<?xml version="1.0" encoding="utf-8"?>
<!-- Generator: Adobe Illustrator 24.0.1, SVG Export Plug-In . SVG Version: 6.00 Build 0)  -->
<svg version="1.1" id="ID01" xmlns="http://www.w3.org/2000/svg" xmlns:xlink="http://www.w3.org/1999/xlink" x="0px" y="0px"
	 viewBox="0 0 56 56" style="enable-background:new 0 0 56 56;" xml:space="preserve">
<style type="text/css">
	.st0{fill:#CFE2FC;}
	.st1{fill:#FFFFFF;}
	.st2{fill:#EFBEA0;}
	.st3{fill:#C79988;}
	.st4{fill:#9C8691;}
	.st5{fill:none;stroke:#8B7180;stroke-width:0.5352;stroke-linecap:round;stroke-miterlimit:10;}
	.st6{fill:none;stroke:#8B7180;stroke-width:0.4285;stroke-linecap:round;stroke-miterlimit:10;}
	.st7{fill:#5D284B;}
	.st8{fill:#BA867B;}
	.st9{fill:none;stroke:#CF9B84;stroke-width:0.3552;stroke-linecap:round;stroke-miterlimit:10;}
</style>
<path class="st0" d="M53.05,56H2.95C1.32,56,0,54.68,0,53.05V2.95C0,1.32,1.32,0,2.95,0h50.1C54.68,0,56,1.32,56,2.95v50.1
	C56,54.68,54.68,56,53.05,56z"/>
<g>
	<g id="body">
		<path class="st1" d="M35.12,34.56c0,0,0.04,0.32,0.02,0.6c-0.15,2.42-0.79,4.47-2.88,5.78c-1.1,0.69-2.11,1.14-3.13,1.15l-0.04,0
			c-1.39,0-2.63-0.73-3.16-1.87c-0.37-0.79-0.31-1.57-0.27-2.34s0.5-1.59,0.5-1.59c-8.36,1.64-9.91,8.19-9.91,8.19
			c6.34,7.95,18.61,7.2,27.47,0C43.72,44.47,42.2,36.77,35.12,34.56z"/>
		<path class="st2" d="M35.12,34.56c-0.93-0.29-1.95-0.49-3.09-0.56l-5.87,2.28c0,0-0.46,0.82-0.5,1.59
			c-0.04,0.78-0.1,1.56,0.27,2.34c0.53,1.13,1.77,1.87,3.16,1.87l0.04,0c1.02-0.01,2.04-0.46,3.13-1.15
			c2.09-1.32,2.74-3.36,2.88-5.78C35.16,34.88,35.12,34.56,35.12,34.56z"/>
		<path class="st2" d="M25.86,31.76c0.83,0.88,0.84,2.22,0.8,3.42c-0.03,0.93-0.06,1.86-0.09,2.79c-0.02,0.62-0.03,1.27,0.23,1.83
			c0.4,0.85,1.37,1.32,2.31,1.31c0.93-0.01,1.82-0.43,2.58-0.97c1.76-1.25,2.57-3.02,2.92-5.15c0,0-1.67-5.72-1.78-7.55L25.86,31.76
			z"/>
		<path class="st3" d="M26.59,37.55c0.48-0.08,0.96-0.2,1.46-0.35c2.7-0.86,4.89-3.3,5.9-4.6c-0.48-1.79-1.05-4.1-1.11-5.15
			l-6.98,4.31c0.83,0.88,0.84,2.22,0.8,3.42C26.64,35.98,26.62,36.77,26.59,37.55z"/>
	</g>
	<g id="_x31_">
		<g>
			<g>
				<g>
					<path class="st2" d="M27.17,33.67c4.39,1.57,9.28-0.49,12.36-9.09c2.12-5.93,0.31-11.45-5.07-12.52
						c-1.61-0.32-3.27-0.19-4.87,0.31c-1.32,0.42-2.5,1.19-3.42,2.22c-0.39,0.73-0.7,1.51-1,2.28c-0.72,1.85-1.45,3.69-2.17,5.54
						c-0.77,1.96-1.55,4.05-1.14,6.09C22.4,31.08,24.3,32.72,27.17,33.67z"/>
				</g>
			</g>
		</g>
		<g>
			<path class="st4" d="M25.32,16.48c0.66-0.76,1.37-1.48,2.15-2.12c0.19-0.16,0.39-0.32,0.57-0.48c0.33,0.5,0.98,0.99,2.08,1.45
				c0.34,0.14,0.9,0.34,1.26,0.41c2.55,0.52,4.12,3.92,6.75,3.63l-1.06,1.23c0.45,2,0.26,4.15-0.52,6.05
				c-0.14,0.33-0.11,0.71,0.07,1.02l0.57,1l-0.69,1.64c5.84-1.32,5.62-4.23,5.74-9.58c0.03-1.6,0.36-2.36-0.69-5.03
				c-1.05-2.67-2.93-3.62-6.58-4.22c-2.33-2.44-6.12-2.22-7.09,0.97c-0.08,0.26-0.12,0.5-0.09,0.75c0,0,0,0,0,0
				C26.31,13.75,25.75,14.92,25.32,16.48z"/>
		</g>
		<path class="st2" d="M39.47,29.53c1.07-0.98,1.94-2.84,0.85-4.01c-1.09-1.17-2.84,0.39-2.84,0.39l-1.62,4.83
			C36.75,31.03,38.4,30.51,39.47,29.53z"/>
		<path class="st5" d="M31.58,20.74c0.96-0.02,1.67,0.58,2,1.3"/>
		<path class="st6" d="M28.61,18.91c-0.69-0.83-1.99-0.83-2.74-0.56"/>
		<path class="st7" d="M30.24,23.57c-0.09,0.33-0.04,0.64,0.17,0.7c0.27,0.08,0.69-0.28,0.84-0.82c0.15-0.54-0.08-0.82-0.41-0.67
			C30.58,22.9,30.34,23.24,30.24,23.57z"/>
		<path class="st7" d="M26.34,21.77c-0.14,0.31-0.39,0.51-0.58,0.42c-0.26-0.12-0.34-0.66-0.11-1.17c0.23-0.51,0.59-0.57,0.75-0.24
			C26.52,21.03,26.48,21.45,26.34,21.77z"/>
		<path class="st8" d="M25.63,27.32c-0.09-0.1,0.03-0.26,0.14-0.2c0.22,0.12,0.45,0.24,0.67,0.35c0.4,0.21,0.8,0.4,1.21,0.56
			c0.41,0.16,0.83,0.29,1.26,0.36c0.24,0.04,0.49,0.07,0.74,0.08c0.13,0,0.15,0.2,0.01,0.24c-0.26,0.07-0.54,0.11-0.81,0.11
			c-0.49,0-0.97-0.1-1.42-0.28c-0.45-0.18-0.86-0.42-1.23-0.71C26,27.68,25.81,27.51,25.63,27.32z"/>
		<path class="st9" d="M27.53,23.21c-0.61,0.08-1.19,0.1-1.74,0.02c-0.16,0.02-0.3,0.12-0.36,0.29c-0.09,0.27,0.13,0.51,0.33,0.67
			c0.17,0.15,0.34,0.29,0.52,0.42c0.11,0.06,0.22,0.12,0.33,0.16c0.31,0.12,0.67,0.14,0.98,0.02"/>
	</g>
	<g id="Arrow_x5F_1">
		<path class="st1" d="M31.79,25.2l0.52,2.54c0.01,0.05-0.05,0.09-0.09,0.06l-2.15-1.45c-0.08-0.05-0.08-0.17,0-0.22l1.52-1.02
			C31.67,25.06,31.77,25.11,31.79,25.2z"/>
		<g id="_x31__1_">
			<path class="st1" d="M10.45,30.14c-0.04,0-0.07-0.01-0.1-0.03c-0.08-0.06-0.1-0.17-0.04-0.25c0.11-0.16,0.26-0.3,0.42-0.42
				c0.08-0.06,0.19-0.04,0.25,0.05c0.06,0.08,0.04,0.19-0.05,0.25c-0.13,0.09-0.24,0.2-0.33,0.33
				C10.57,30.11,10.51,30.14,10.45,30.14z"/>
			<path class="st1" d="M16.01,30.06c-0.09,0-0.16-0.06-0.18-0.15c-0.02-0.1,0.05-0.19,0.15-0.2c0.32-0.05,0.64-0.15,0.97-0.3
				c0.09-0.04,0.2,0,0.24,0.09c0.04,0.09,0,0.2-0.09,0.24c-0.36,0.16-0.71,0.27-1.06,0.32C16.02,30.06,16.01,30.06,16.01,30.06z
				 M14.95,30.05c-0.01,0-0.02,0-0.03,0c-0.36-0.06-0.72-0.16-1.05-0.27c-0.09-0.03-0.15-0.13-0.12-0.22
				c0.03-0.09,0.13-0.15,0.22-0.12c0.34,0.1,0.67,0.2,1.01,0.26c0.1,0.02,0.16,0.11,0.15,0.2C15.11,29.98,15.03,30.05,14.95,30.05z
				 M12.89,29.5c-0.01,0-0.02,0-0.03,0c-0.36-0.08-0.69-0.1-1.02-0.07c-0.1,0.01-0.19-0.06-0.19-0.16c-0.01-0.1,0.06-0.19,0.16-0.19
				c0.36-0.03,0.73-0.01,1.11,0.07c0.09,0.02,0.16,0.11,0.14,0.21C13.05,29.44,12.97,29.5,12.89,29.5z M17.94,29.21
				c-0.06,0-0.11-0.03-0.15-0.08c-0.06-0.08-0.04-0.19,0.04-0.25c0.08-0.06,0.16-0.12,0.24-0.18c0.18-0.14,0.37-0.3,0.57-0.48
				c0.07-0.07,0.19-0.06,0.25,0.01c0.07,0.07,0.06,0.19-0.01,0.25c-0.21,0.19-0.4,0.35-0.59,0.5c-0.08,0.06-0.17,0.13-0.25,0.19
				C18.01,29.2,17.98,29.21,17.94,29.21z M19.67,27.74l-0.14-0.12l-0.11-0.14c0.25-0.25,0.5-0.49,0.76-0.73
				c0.07-0.07,0.19-0.06,0.25,0.01c0.07,0.07,0.06,0.19-0.01,0.25C20.16,27.25,19.92,27.5,19.67,27.74z M19.53,27.63L19.53,27.63
				L19.53,27.63z M21.12,26.38c-0.05,0-0.11-0.02-0.14-0.07c-0.06-0.08-0.04-0.19,0.03-0.25c0.29-0.22,0.59-0.43,0.89-0.61
				c0.08-0.05,0.19-0.03,0.25,0.06c0.05,0.08,0.03,0.19-0.06,0.25c-0.29,0.18-0.58,0.38-0.86,0.59
				C21.19,26.37,21.15,26.38,21.12,26.38z M30.04,25.43c-0.03,0-0.07-0.01-0.1-0.03c-0.29-0.18-0.59-0.35-0.91-0.48
				c-0.09-0.04-0.13-0.14-0.09-0.23c0.04-0.09,0.14-0.13,0.23-0.09c0.34,0.14,0.66,0.32,0.97,0.51c0.08,0.05,0.11,0.16,0.05,0.25
				C30.16,25.4,30.1,25.43,30.04,25.43z M22.92,25.27c-0.07,0-0.13-0.04-0.16-0.1c-0.04-0.09-0.01-0.2,0.08-0.24
				c0.33-0.16,0.67-0.3,1-0.42c0.09-0.03,0.19,0.02,0.23,0.11c0.03,0.09-0.02,0.19-0.11,0.23c-0.32,0.11-0.65,0.25-0.96,0.4
				C22.98,25.26,22.95,25.27,22.92,25.27z M28.09,24.59c-0.01,0-0.03,0-0.04-0.01c-0.34-0.08-0.68-0.14-1.02-0.17
				c-0.1-0.01-0.17-0.09-0.16-0.19c0.01-0.1,0.1-0.17,0.19-0.16c0.36,0.03,0.72,0.09,1.08,0.18c0.1,0.02,0.15,0.12,0.13,0.22
				C28.25,24.54,28.17,24.59,28.09,24.59z M24.93,24.57c-0.08,0-0.16-0.06-0.17-0.14c-0.02-0.1,0.04-0.19,0.14-0.21
				c0.36-0.08,0.72-0.13,1.08-0.16c0.1-0.01,0.18,0.07,0.19,0.16c0.01,0.1-0.07,0.18-0.16,0.19c-0.34,0.02-0.69,0.07-1.03,0.15
				C24.95,24.57,24.94,24.57,24.93,24.57z"/>
		</g>
	</g>
</g>
</svg>
