<?xml version="1.0" encoding="utf-8"?>
<!-- Generator: Adobe Illustrator 24.0.1, SVG Export Plug-In . SVG Version: 6.00 Build 0)  -->
<svg version="1.1" id="ID02" xmlns="http://www.w3.org/2000/svg" xmlns:xlink="http://www.w3.org/1999/xlink" x="0px" y="0px"
	 viewBox="0 0 56 56" style="enable-background:new 0 0 56 56;" xml:space="preserve">
<style type="text/css">
	.st0{fill:#CFE2FC;}
	.st1{fill:none;stroke:#9C8691;stroke-width:1.2123;stroke-linecap:round;stroke-linejoin:round;stroke-miterlimit:10;}
	.st2{fill:#CECBE1;}
	.st3{fill:#A39FC1;}
	.st4{fill:#CFA08D;}
	.st5{fill:#E6B69A;}
	.st6{fill:#E0EAF4;}
	.st7{fill:#F3F2F9;}
	.st8{fill:#A3CEFF;}
	.st9{fill:#EFBEA0;}
	.st10{fill:#C79988;}
	.st11{fill:#9C8691;}
	.st12{fill:none;stroke:#8B7180;stroke-width:0.2806;stroke-linecap:round;stroke-miterlimit:10;}
	.st13{fill:none;stroke:#8B7180;stroke-width:0.2246;stroke-linecap:round;stroke-miterlimit:10;}
	.st14{fill:#5D284B;}
	.st15{fill:#BA867B;}
	.st16{fill:none;stroke:#CF9B84;stroke-width:0.1862;stroke-linecap:round;stroke-miterlimit:10;}
	.st17{fill:#FFFFFF;}
</style>
<path class="st0" d="M53.05,56H2.95C1.32,56,0,54.68,0,53.05V2.95C0,1.32,1.32,0,2.95,0h50.1C54.68,0,56,1.32,56,2.95v50.1
	C56,54.68,54.68,56,53.05,56z"/>
<g>
	<g>
		<path class="st1" d="M27.64,41.19h-6.89c-0.69,0-1.25,0.56-1.25,1.25l-0.03,5.73"/>
		<path class="st2" d="M26.32,48.41c0-0.83,0.68-1.51,1.51-1.51h7.84c0.47,0,0.85-0.38,0.85-0.85c0-0.01,0-0.03,0-0.04l0.6-20.35
			c0.02-0.71,0.52-1.3,1.19-1.44H25.26c-0.84-0.02-1.53,0.64-1.55,1.47l-0.64,20.18l0,0.01c-0.01,0.49-0.42,0.88-0.91,0.88h-5
			c-0.78,0-1.48,0.53-1.65,1.29c-0.22,0.99,0.52,1.87,1.47,1.87l10.55-0.03C26.84,49.75,26.32,49.14,26.32,48.41z"/>
		<path class="st3" d="M38.67,24.19c-0.12,0-0.24,0.01-0.36,0.03c-0.67,0.14-1.17,0.73-1.19,1.44l-0.6,20.35c0,0.01,0,0.03,0,0.04
			c0,0.47-0.38,0.85-0.85,0.85h-7.84c-0.83,0-1.51,0.68-1.51,1.51c0,0.73,0.52,1.34,1.21,1.48c0.1,0.02,0.2,0.03,0.3,0.03h7.84
			c2.13,0,3.86-1.73,3.88-3.85l0.6-20.33C40.17,24.9,39.51,24.21,38.67,24.19z"/>
	</g>
	<g>
		<path class="st4" d="M30.05,11.37c-0.14-0.13-0.34-0.22-0.53-0.28c-0.84-0.38-1.32-1.01-1.34-1.94c0-0.01,0-0.02,0-0.02
			c-0.31,0.8-0.59,1.62-0.82,2.44c0.84,0.24,1.67,0.42,2.39,0.48c0.05-0.24,0.1-0.47,0.16-0.69C29.95,11.37,30,11.37,30.05,11.37z"
			/>
		<path class="st5" d="M30.94,11.31c0.99-0.15,1.65-1.09,1.35-1.95c0-0.01,0-0.01-0.01-0.02c-0.09-0.27-0.2-0.53-0.38-0.75
			c-0.25-0.3-0.62-0.5-0.98-0.68c-0.24-0.13-0.51-0.26-0.79-0.24c-0.38,0.02-0.7,0.28-0.98,0.53c-0.32,0.28-0.79,0.48-0.94,0.86
			c-0.01,0.03-0.02,0.05-0.03,0.08c0,0.01,0,0.02,0,0.02c0.03,0.93,0.32,2.26,1.16,2.63L30.94,11.31z"/>
		<path class="st6" d="M27.99,31.47c0.49-0.41,1.27-1.43,1.52-2c0.34-0.78,0.74-1.82,0.53-2.61c-0.73-2.84,0.01-7.14-0.47-10.32
			c-0.19-1.29-0.11-3.06,0.18-4.49c-0.72-0.07-1.55-0.24-2.39-0.48c-0.43,1.52-0.73,3.06-0.89,4.6
			C26.01,20.71,25.81,27.53,27.99,31.47z"/>
		<path class="st7" d="M35.67,43.15c0,0,0.5-9.27,0.35-11.25c-0.09-1.15,0.26-3.88-3.3-4.99c0,0,0.02,0.16,0.01,0.3
			c-0.07,1.22-0.4,2.25-1.45,2.91c-0.55,0.35-1.06,0.57-1.58,0.58l-0.02,0c-0.7,0-1.32-0.37-1.59-0.94
			c-0.19-0.4-0.15-0.79-0.13-1.18c0.02-0.39,0.25-0.8,0.25-0.8c-3.66,1.14-3.09,4.12-3.09,4.12s-0.92,10.06-0.96,11.38L35.67,43.15z
			"/>
		<path class="st8" d="M35.62,46.89l-8.06,0.01c-0.96,0-1.73,0.8-1.7,1.76l0.04,1.27h-8.73l0.19-4.48c0.02-1.3,1.11-2.33,2.42-2.27
			l15.88-0.03L35.62,46.89z"/>
		<path class="st6" d="M36.02,31.9c-0.09-1.15,0.26-3.88-3.3-4.99c0,0,0.02,0.16,0.01,0.3c-0.07,1.22-0.4,2.25-1.45,2.91
			c-0.32,0.2-0.62,0.36-0.92,0.46c0.13,0.57,0.28,1.15,0.57,1.67c0.29,0.52,0.73,0.98,1.29,1.19c0.54,0.2,1.14,0.15,1.71,0.1
			c0.57-0.05,1.17-0.1,1.71,0.09c0.14,0.05,0.28,0.12,0.4,0.21C36.06,32.99,36.05,32.3,36.02,31.9z"/>
		<g>
			<path class="st9" d="M32.72,26.91c-0.47-0.15-0.98-0.24-1.55-0.28l-2.96,1.15c0,0-0.23,0.41-0.25,0.8
				c-0.02,0.39-0.05,0.78,0.13,1.18c0.27,0.57,0.89,0.94,1.59,0.94l0.02,0c0.51-0.01,1.03-0.23,1.58-0.58
				c1.05-0.66,1.38-1.69,1.45-2.91C32.74,27.07,32.72,26.91,32.72,26.91z"/>
			<path class="st9" d="M28.06,25.51c0.42,0.44,0.42,1.12,0.4,1.72c-0.01,0.47-0.03,0.94-0.04,1.4c-0.01,0.31-0.02,0.64,0.12,0.92
				c0.2,0.43,0.69,0.66,1.16,0.66c0.47,0,0.92-0.22,1.3-0.49c0.89-0.63,1.29-1.52,1.47-2.59c0,0-0.84-2.88-0.89-3.8L28.06,25.51z"/>
			<path class="st10" d="M28.43,28.42c0.24-0.04,0.49-0.1,0.73-0.18c1.36-0.43,2.46-1.66,2.97-2.32c-0.24-0.9-0.53-2.06-0.56-2.59
				l-3.51,2.17c0.42,0.44,0.42,1.12,0.4,1.72C28.45,27.63,28.44,28.02,28.43,28.42z"/>
		</g>
		<g>
			<path class="st9" d="M29.42,26.21c2.44-0.07,4.44-2.01,4.31-6.8c-0.09-3.3-2.03-5.65-4.86-5.15c-0.85,0.15-1.64,0.53-2.32,1.08
				c-0.57,0.46-1,1.06-1.25,1.74c-0.05,0.43-0.05,0.87-0.05,1.3c0,1.04,0,2.08,0,3.12c0,1.1,0.02,2.27,0.6,3.19
				C26.6,25.85,27.84,26.29,29.42,26.21z"/>
			<path class="st11" d="M25.24,18.17c0.18-0.5,0.39-0.98,0.64-1.44c0.06-0.11,0.13-0.23,0.19-0.34c0.26,0.18,0.67,0.3,1.29,0.31
				c0.19,0.01,0.5-0.01,0.69-0.04c1.35-0.23,2.76,1.13,3.99,0.49l-0.28,0.8c0.6,0.89,0.92,1.98,0.9,3.06c0,0.19,0.08,0.37,0.23,0.49
				l0.47,0.38l-0.02,0.93c2.6-1.76,1.94-3.14,0.98-5.77c-0.29-0.79-0.27-1.22-1.3-2.33C32,13.59,30.9,13.49,29,13.89
				c-1.6-0.75-3.41,0.08-3.28,1.82c0.01,0.14,0.04,0.27,0.1,0.38c0,0,0,0,0,0C25.21,16.64,25.15,17.32,25.24,18.17z"/>
			<path class="st9" d="M34.64,21.84c0.33-0.68,0.4-1.76-0.35-2.12c-0.75-0.36-1.31,0.73-1.31,0.73l0.13,2.67
				C33.6,23.1,34.31,22.53,34.64,21.84z"/>
			<path class="st12" d="M29.11,19.05c0.47-0.19,0.93-0.04,1.22,0.25"/>
			<path class="st13" d="M27.31,18.73c-0.5-0.28-1.13-0.03-1.45,0.25"/>
			<path class="st14" d="M29,20.69c0.02,0.18,0.1,0.32,0.22,0.31c0.15-0.01,0.28-0.27,0.25-0.56c-0.03-0.29-0.19-0.38-0.33-0.25
				C29.04,20.3,28.98,20.51,29,20.69z"/>
			<path class="st14" d="M26.75,20.55c-0.01,0.18-0.09,0.32-0.21,0.31c-0.15-0.01-0.29-0.26-0.27-0.55s0.18-0.39,0.32-0.26
				C26.69,20.16,26.76,20.37,26.75,20.55z"/>
			<ellipse class="st15" cx="27.78" cy="23.4" rx="0.2" ry="0.38"/>
			<path class="st16" d="M27.6,21.03c-0.28,0.16-0.56,0.28-0.84,0.34c-0.07,0.04-0.13,0.12-0.12,0.21c0.01,0.15,0.16,0.22,0.29,0.27
				c0.11,0.04,0.22,0.08,0.34,0.11c0.06,0.01,0.13,0.02,0.19,0.02c0.18,0,0.36-0.06,0.48-0.18"/>
		</g>
	</g>
	<g>
		<path class="st9" d="M32.49,12.51c0.1-0.6,0.35-1.2,0.26-1.79c-0.1-0.63-0.57-1.09-1.09-1.48c-0.38,0.21-0.65,0.55-0.96,0.83
			c-0.32,0.28-0.67,0.44-1.09,0.51c-0.42,0.07-0.79,0.39-0.9,0.77c-0.1,0.38,0.07,0.8,0.41,1.01l1.22,2.66c0,0.01,0,0.02,0,0.03
			c0.75-0.21,1.51-0.35,2.28-0.44C32.46,13.93,32.37,13.24,32.49,12.51z"/>
		<path class="st17" d="M34.83,31.48C34.83,31.48,34.83,31.47,34.83,31.48c0.86-1.9,0.3-3.69-0.39-5.55
			c-0.3-0.79-0.77-2.25-0.94-3.08c-0.42-2.1-0.12-4.31-0.49-6.42c-0.11-0.63-0.28-1.22-0.4-1.82c-0.77,0.1-1.53,0.23-2.28,0.44
			c-0.75,4.97-0.2,9.95,0.35,14.87c0.06,0.53,0.33,1.41,0.47,1.93c0,0,0,0.01,0,0.01c0.19,0.7,0.86,0.94,1.71,0.87
			C33.73,32.62,34.52,32.2,34.83,31.48z"/>
	</g>
	<path class="st1" d="M38.36,41.19h-6.89c-0.69,0-1.25,0.56-1.25,1.25l-0.03,5.73"/>
</g>
</svg>
