<?xml version="1.0" encoding="utf-8"?>
<!-- Generator: Adobe Illustrator 24.0.1, SVG Export Plug-In . SVG Version: 6.00 Build 0)  -->
<svg version="1.1" id="ID03" xmlns="http://www.w3.org/2000/svg" xmlns:xlink="http://www.w3.org/1999/xlink" x="0px" y="0px"
	 viewBox="0 0 56 56" style="enable-background:new 0 0 56 56;" xml:space="preserve">
<style type="text/css">
	.st0{fill:#CFE2FC;}
	.st1{fill:#FFFFFF;}
	.st2{fill:#EFBEA0;}
	.st3{fill:#756C72;}
	.st4{fill:#E8C0A5;}
	.st5{fill:#C19C8C;}
	.st6{fill:#82777E;}
	.st7{fill:#998891;}
	.st8{fill:none;stroke:#C89E89;stroke-width:0.3374;stroke-linecap:round;stroke-miterlimit:10;}
	.st9{fill:#B3897D;}
	.st10{fill:none;stroke:#887280;stroke-width:0.4937;stroke-linecap:round;stroke-miterlimit:10;}
	.st11{fill:none;stroke:#887280;stroke-width:0.3953;stroke-linecap:round;stroke-miterlimit:10;}
	.st12{fill:#562C49;}
</style>
<path class="st0" d="M53.05,56H2.95C1.32,56,0,54.68,0,53.05V2.95C0,1.32,1.32,0,2.95,0h50.1C54.68,0,56,1.32,56,2.95v50.1
	C56,54.68,54.68,56,53.05,56z"/>
<g>
	<path class="st1" d="M35.06,34.97c0,0,0.04,0.31,0.02,0.58c-0.14,2.36-0.77,4.35-2.81,5.63c-1.07,0.67-2.06,1.11-3.05,1.12l-0.04,0
		c-1.35,0-2.56-0.71-3.07-1.82c-0.36-0.77-0.3-1.53-0.26-2.28c0.04-0.76,0.49-1.55,0.49-1.55c-8.14,1.59-9.65,7.97-9.65,7.97
		c6.17,7.74,18.12,7.01,26.75,0C43.43,44.62,41.95,37.12,35.06,34.97z"/>
	<path class="st2" d="M35.06,34.97c-0.91-0.28-1.9-0.47-3-0.54l-5.72,2.22c0,0-0.45,0.79-0.49,1.55c-0.04,0.76-0.1,1.52,0.26,2.28
		c0.52,1.1,1.72,1.82,3.07,1.82l0.04,0c1-0.01,1.98-0.44,3.05-1.12c2.04-1.28,2.67-3.27,2.81-5.63
		C35.09,35.28,35.06,34.97,35.06,34.97z"/>
	<g>
		<g>
			<path class="st3" d="M36.35,17.71c-4.6-4.27-11.64-2.14-17.18-1.01L15.9,32.83c8.12,2.12,14.54,2.24,21.56-1.21
				C41.52,27.96,40.59,21.65,36.35,17.71z"/>
			<path id="Group_2_6_" class="st4" d="M26.2,32.38c0.79,0.83,0.8,2.11,0.76,3.25c-0.03,0.88-0.06,1.76-0.08,2.65
				c-0.02,0.59-0.03,1.21,0.22,1.74c0.38,0.8,1.3,1.25,2.19,1.24c0.89-0.01,1.73-0.41,2.45-0.92c1.68-1.19,2.44-2.86,2.77-4.89
				c0,0-1.58-5.43-1.69-7.17L26.2,32.38z"/>
			<path id="Group_1_1_" class="st5" d="M26.89,37.88c0.45-0.07,0.92-0.19,1.38-0.34c2.56-0.82,4.65-3.13,5.61-4.37
				c-0.45-1.7-0.99-3.89-1.05-4.89l-6.63,4.1c0.79,0.83,0.8,2.11,0.76,3.25C26.94,36.39,26.92,37.13,26.89,37.88z"/>
			<path class="st6" d="M19.17,16.69L15.9,32.83c0.35,0.08,0.7,0.16,1.04,0.24l3.21-16.56L19.17,16.69z"/>
		</g>
		<path class="st4" d="M37.59,25.13c-0.21,1.05-0.63,2.06-1.25,2.94c-1.14,1.62-2.86,3.12-4.22,4.15c-3.1,2.33-7.79,2.3-10.63-0.36
			c-0.6-0.57-1.14-1.49-1.37-2.3c-0.37-1.32,0.14-2.71,0.27-4.08c0.12-1.2-0.06-2.41-0.17-3.62c-0.01-0.13-0.03-0.25-0.05-0.38
			c-0.06-0.38-0.08-0.77-0.08-1.17c0-4.74,4.13-8.58,9.23-8.58c3.19,0,6.01,1.51,7.67,3.8c1.28,1.76,1.73,3.99,1.3,6.12L37.59,25.13
			z"/>
		<path class="st7" d="M32.07,33.31l-0.2,0l1.6-13.58c-6,0.69-10.49,0.86-15.74,0.46c0,0-0.46-7.04,7.65-10.05
			c4.52-1.68,7.51-1.41,9.48-0.85c1.29,0.37,2.45,1.1,3.37,2.07c2.73,2.9,3.87,6.64,4.07,10.6l0,0
			C42.8,27.98,38.12,33.19,32.07,33.31z"/>
		<path id="Group_7_3_" class="st4" d="M38.57,24.68c0.56-0.97,0.77-2.54-0.29-3.15c-1.07-0.61-2,0.94-2,0.94l-0.08,3.92
			C36.91,26.41,38.01,25.65,38.57,24.68z"/>
		<path class="st8" d="M23.47,24.98c-0.13,0.44-0.7,0.38-0.83,0.65c-0.1,0.2,0.07,0.33,0.19,0.41c0.12,0.08,0.27,0.11,0.42,0.12
			c0.33,0.02,0.84,0.02,1.08-0.31"/>
		<path id="Group_2_5_" class="st9" d="M23.35,28.41c-0.11-0.05-0.07-0.23,0.05-0.22c0.23,0.02,0.46,0.04,0.69,0.06
			c0.41,0.03,0.82,0.05,1.23,0.03c0.41-0.01,0.81-0.06,1.2-0.15c0.22-0.05,0.44-0.12,0.66-0.21c0.12-0.05,0.2,0.12,0.1,0.2
			c-0.2,0.16-0.41,0.29-0.64,0.39c-0.41,0.18-0.86,0.27-1.3,0.28c-0.44,0.01-0.88-0.04-1.3-0.15C23.8,28.57,23.57,28.5,23.35,28.41z
			"/>
	</g>
	<g>
		<path id="Group_6_3_" class="st10" d="M26.18,21.73c0.81-0.37,1.63-0.12,2.17,0.37"/>
		<path id="Group_5_3_" class="st11" d="M23,21.27c-0.89-0.45-1.99,0.02-2.53,0.53"/>
		<path id="Group_4_4_" class="st12" d="M26.09,24.61c0.04,0.31,0.2,0.55,0.4,0.53c0.26-0.04,0.48-0.49,0.41-1
			c-0.07-0.51-0.37-0.66-0.59-0.41C26.13,23.92,26.05,24.3,26.09,24.61z"/>
		<path id="Group_3_7_" class="st12" d="M22.13,24.52c-0.01,0.32-0.14,0.57-0.34,0.57c-0.26-0.01-0.53-0.43-0.52-0.95
			c0.01-0.52,0.29-0.7,0.55-0.47C22.01,23.83,22.13,24.2,22.13,24.52z"/>
	</g>
</g>
</svg>
