<?xml version="1.0" encoding="utf-8"?>
<!-- Generator: Adobe Illustrator 24.0.1, SVG Export Plug-In . SVG Version: 6.00 Build 0)  -->
<svg version="1.1" id="ID04" xmlns="http://www.w3.org/2000/svg" xmlns:xlink="http://www.w3.org/1999/xlink" x="0px" y="0px"
	 viewBox="0 0 56 56" style="enable-background:new 0 0 56 56;" xml:space="preserve">
<style type="text/css">
	.st0{fill:#CFE2FC;}
	.st1{fill:none;stroke:#998891;stroke-width:1.2111;stroke-linecap:round;stroke-linejoin:round;}
	.st2{fill:#CECCE0;}
	.st3{fill:#E3EBF4;}
	.st4{fill:#F6F8FA;}
	.st5{fill:#E8C0A5;}
	.st6{fill:#C19C8C;}
	.st7{fill:#998891;}
	.st8{fill:none;stroke:#887280;stroke-width:0.2803;stroke-linecap:round;stroke-miterlimit:10;}
	.st9{fill:none;stroke:#887280;stroke-width:0.2244;stroke-linecap:round;stroke-miterlimit:10;}
	.st10{fill:#562C49;}
	.st11{fill:#B3897D;}
	.st12{fill:none;stroke:#C89E89;stroke-width:0.186;stroke-linecap:round;stroke-miterlimit:10;}
	.st13{fill:#ADCFFC;}
	.st14{fill:#A3A1BF;}
	.st15{fill:#FFFFFF;}
</style>
<path class="st0" d="M53.05,56H2.95C1.32,56,0,54.68,0,53.05V2.95C0,1.32,1.32,0,2.95,0h50.1C54.68,0,56,1.32,56,2.95v50.1
	C56,54.68,54.68,56,53.05,56z"/>
<g id="_x32__2_">
	<g id="Group_2_1_">
		<path id="Group_6_2_" class="st1" d="M27.63,41.12h-6.88c-0.69,0-1.25,0.56-1.25,1.24l-0.03,5.73"/>
		<path id="Group_5_2_" class="st2" d="M26.31,48.33c0-0.83,0.68-1.51,1.51-1.51h7.83c0.47,0,0.85-0.38,0.85-0.85
			c0-0.01,0-0.03,0-0.04l0.6-20.32c0.02-0.71,0.52-1.29,1.19-1.44H25.25c-0.84-0.02-1.53,0.64-1.55,1.47L23.07,45.8l0,0.01
			c-0.01,0.49-0.42,0.88-0.91,0.88h-5c-0.78,0-1.48,0.53-1.65,1.29c-0.22,0.99,0.52,1.86,1.47,1.86l10.54-0.03
			C26.83,49.67,26.31,49.06,26.31,48.33z"/>
		<g id="Group_4_1_">
			<g id="Group_7_2_">
			</g>
			<path class="st3" d="M27.79,27.63c-0.71,0.36-1.28,0.94-1.81,1.53c-0.94,1.03-1.82,2.13-2.42,3.39
				c-0.59,1.26-0.87,2.71-0.55,4.07c0.08,0.33,0.2,0.66,0.42,0.92c0.43,0.52,1.22,0.65,1.85,0.43c0.64-0.22,1.13-0.76,1.44-1.36
				c0.31-0.6,0.45-1.27,0.56-1.94L27.79,27.63z"/>
			<path id="Group_4_3_" class="st4" d="M35.67,43.07c0,0,0.5-9.26,0.35-11.23c-0.09-1.15,0.26-3.87-3.3-4.98
				c0,0,0.02,0.16,0.01,0.3c-0.07,1.22-0.4,2.25-1.45,2.91c-0.55,0.35-1.06,0.57-1.58,0.58l-0.02,0c-0.7,0-1.32-0.37-1.59-0.94
				c-0.19-0.4-0.15-0.79-0.13-1.18s0.25-0.8,0.25-0.8c-3.66,1.14-3.09,4.12-3.09,4.12s-0.92,10.05-0.96,11.37L35.67,43.07z"/>
			<path id="Group_3_6_" class="st3" d="M32.73,26.85c0,0,0.02,0.16,0.01,0.3c-0.07,1.22-0.4,2.25-1.45,2.91
				c-0.55,0.35-1.06,0.57-1.58,0.58l-0.02,0c-0.7,0-1.32-0.37-1.59-0.94c-0.19-0.4-0.15-0.79-0.13-1.18c0.02-0.39,0.25-0.8,0.25-0.8
				c-3.48,1.08-3.13,3.82-3.09,4.1c1.98,0.37,3.98,0.65,5.98,0.85c1.16,0.12,2.35,0.2,3.46-0.14c0.53-0.16,1.03-0.43,1.45-0.8
				C35.95,30.53,36.18,27.93,32.73,26.85z"/>
			<path id="Group_3_5_" class="st5" d="M32.73,26.85c-0.47-0.15-0.98-0.24-1.55-0.28l-2.95,1.15c0,0-0.23,0.41-0.25,0.8
				s-0.05,0.78,0.13,1.18c0.27,0.57,0.89,0.94,1.59,0.94l0.02,0c0.51-0.01,1.02-0.23,1.58-0.58c1.05-0.66,1.38-1.69,1.45-2.91
				C32.74,27.01,32.73,26.85,32.73,26.85z"/>
			<path id="Group_2_4_" class="st5" d="M28.07,25.45c0.42,0.44,0.42,1.12,0.4,1.72c-0.01,0.47-0.03,0.93-0.04,1.4
				c-0.01,0.31-0.02,0.64,0.12,0.92c0.2,0.43,0.69,0.66,1.16,0.66c0.47,0,0.92-0.21,1.3-0.49c0.89-0.63,1.29-1.52,1.47-2.59
				c0,0-0.84-2.87-0.89-3.8L28.07,25.45z"/>
			<path id="Group_1_10_" class="st6" d="M28.44,28.36c0.24-0.04,0.48-0.1,0.73-0.18c1.36-0.43,2.46-1.66,2.97-2.32
				c-0.24-0.9-0.53-2.06-0.56-2.59l-3.51,2.17c0.42,0.44,0.42,1.12,0.4,1.72C28.46,27.56,28.45,27.96,28.44,28.36z"/>
			<g id="Group_1_5_">
				<path id="Group_1_9_" class="st5" d="M29.61,26.42c2.39-0.49,4.02-2.75,3.06-7.43c-0.66-3.23-2.98-5.21-5.68-4.22
					c-0.81,0.3-1.52,0.81-2.09,1.47c-0.48,0.55-0.8,1.21-0.92,1.92c0.02,0.43,0.1,0.86,0.17,1.29c0.18,1.02,0.36,2.05,0.54,3.07
					c0.19,1.09,0.41,2.23,1.15,3.03C26.78,26.56,28.07,26.78,29.61,26.42z"/>
				<path id="Group_1_8_" class="st7" d="M24.11,19.24c0.09-0.52,0.21-1.03,0.38-1.53c0.04-0.12,0.09-0.25,0.12-0.37
					c0.28,0.14,0.71,0.17,1.33,0.08c0.19-0.03,0.49-0.09,0.67-0.16c1.28-0.46,2.91,0.63,4.01-0.21l-0.14,0.84
					c0.75,0.78,1.25,1.79,1.41,2.85c0.03,0.19,0.15,0.35,0.31,0.44l0.53,0.29l0.14,0.92c2.25-2.18,1.36-3.42-0.04-5.85
					c-0.42-0.72-0.48-1.15-1.68-2.06c-1.2-0.91-2.3-0.82-4.09-0.09c-1.71-0.46-3.34,0.67-2.91,2.36c0.03,0.14,0.08,0.26,0.16,0.36
					c0,0,0,0,0,0C23.81,17.74,23.87,18.42,24.11,19.24z"/>
				<path id="Group_7_1_" class="st5" d="M33.99,21.22c0.21-0.73,0.09-1.8-0.71-2.03c-0.8-0.23-1.16,0.95-1.16,0.95l0.59,2.6
					C33.18,22.63,33.78,21.95,33.99,21.22z"/>
				<path id="Group_6_1_" class="st8" d="M28.07,19.44c0.43-0.27,0.91-0.2,1.25,0.04"/>
				<path id="Group_5_1_" class="st9" d="M26.24,19.43c-0.54-0.18-1.11,0.17-1.38,0.5"/>
				<path id="Group_4_2_" class="st10" d="M28.24,21.07c0.05,0.17,0.16,0.29,0.27,0.26c0.14-0.04,0.23-0.31,0.15-0.59
					c-0.08-0.28-0.26-0.34-0.37-0.19C28.21,20.67,28.19,20.89,28.24,21.07z"/>
				<path id="Group_3_4_" class="st10" d="M26,21.32c0.02,0.18-0.04,0.33-0.15,0.34c-0.15,0.02-0.33-0.2-0.37-0.49
					c-0.03-0.29,0.11-0.41,0.27-0.31C25.88,20.95,25.98,21.14,26,21.32z"/>
				<path id="Group_2_3_" class="st11" d="M27.2,24c-0.07-0.02-0.06-0.12,0.01-0.13c0.13-0.01,0.26-0.01,0.39-0.02
					c0.24-0.02,0.47-0.04,0.69-0.08c0.23-0.04,0.45-0.1,0.66-0.18c0.12-0.05,0.24-0.1,0.35-0.17c0.06-0.03,0.12,0.05,0.07,0.1
					c-0.1,0.1-0.21,0.19-0.33,0.27c-0.22,0.13-0.46,0.22-0.71,0.26c-0.25,0.04-0.5,0.05-0.74,0.02C27.46,24.06,27.33,24.04,27.2,24z
					"/>
				<path id="Group_1_6_" class="st12" d="M26.93,21.64c-0.25,0.2-0.51,0.37-0.77,0.48c-0.06,0.05-0.1,0.14-0.08,0.23
					c0.04,0.15,0.2,0.19,0.33,0.21c0.12,0.02,0.23,0.04,0.35,0.05c0.07,0,0.13-0.01,0.19-0.02c0.17-0.03,0.34-0.12,0.44-0.26"/>
			</g>
		</g>
		<path id="Group_2_2_" class="st13" d="M35.61,46.81l-8.05,0.01c-0.96,0-1.73,0.8-1.7,1.76l0.04,1.26h-8.72l0.19-4.47
			c0.02-1.3,1.11-2.33,2.41-2.26l15.87-0.03L35.61,46.81z"/>
		<path id="Group_1_4_" class="st14" d="M38.66,24.14c-0.12,0-0.24,0.01-0.36,0.03c-0.67,0.14-1.17,0.73-1.19,1.44l-0.6,20.32
			c0,0.01,0,0.03,0,0.04c0,0.47-0.38,0.85-0.85,0.85h-7.83c-0.83,0-1.51,0.68-1.51,1.51c0,0.73,0.52,1.34,1.21,1.48
			c0.1,0.02,0.2,0.03,0.3,0.03h7.83c2.13,0,3.86-1.73,3.87-3.85l0.6-20.31C40.15,24.85,39.49,24.16,38.66,24.14z"/>
		<path id="Group_3_3_" class="st5" d="M16.01,27.2c-0.54-0.07-1.1-0.18-1.64-0.17c-0.39,0-0.85-0.11-1.2,0.1
			c-0.16,0.1-0.28,0.24-0.36,0.4c-0.16,0.37,0.12,0.8,0.47,0.7c0.01,0,0.02-0.01,0.04-0.01c-0.16,0.23-0.14,0.58,0,0.83
			c0.13,0.25,0.36,0.41,0.61,0.51c0.6,0.24,1.33,0.1,1.96-0.04L16.01,27.2z"/>
		<path id="Group_1_3_" class="st15" d="M34.63,28.18C34.63,28.18,34.62,28.17,34.63,28.18c-1.76-1.2-3.7-0.99-5.73-0.66
			c-0.87,0.14-2.45,0.33-3.33,0.34c-2.22,0.02-5.15-0.4-7.25-0.6c-0.68,0-1.67-0.06-2.31-0.05c-0.06,0.77-0.19,1.55-0.13,2.32
			c4.91,1.68,11.2,2.04,16.32,2.43c0.56,0.04,1.51-0.06,2.06-0.1c0,0,0.01,0,0.01,0c0.75-0.06,1.13-0.66,1.23-1.52
			C35.57,29.48,35.3,28.62,34.63,28.18z"/>
		<path id="Group_3_2_" class="st5" d="M27.87,30.22c-0.14-0.63-0.31-1.41-0.52-2.02c-0.16-0.44-0.22-1-0.56-1.32
			c-0.2-0.19-0.42-0.28-0.65-0.28c-0.33,0.01-0.54,0.35-0.41,0.65c0.02,0.05,0.05,0.1,0.08,0.15c-0.28-0.1-0.6,0.03-0.78,0.26
			c-0.18,0.23-0.25,0.54-0.25,0.85c0,0.76,0.39,1.57,0.75,2.24L27.87,30.22z"/>
		<path class="st15" d="M25.45,30.57c-0.03-0.05-1.7,4.22-1.9,4.79c-0.24,0.67-0.42,1.24-0.16,1.88c0.18,0.43,0.6,0.73,1.06,0.89
			c0.64,0.22,1.15,0.11,1.73-0.25c0.75-0.47,0.95-1.24,1.11-2.07c0.28-1.43,0.7-4.39,0.56-5.83L25.45,30.57z"/>
	</g>
	<path id="Group_1_2_" class="st1" d="M38.34,41.12h-6.88c-0.69,0-1.25,0.56-1.25,1.24l-0.03,5.73"/>
</g>
</svg>
