<?xml version="1.0" encoding="utf-8"?>
<!-- Generator: Adobe Illustrator 24.0.1, SVG Export Plug-In . SVG Version: 6.00 Build 0)  -->
<svg version="1.1" id="_x30_1" xmlns="http://www.w3.org/2000/svg" xmlns:xlink="http://www.w3.org/1999/xlink" x="0px" y="0px"
	 viewBox="0 0 56 56" style="enable-background:new 0 0 56 56;" xml:space="preserve">
<style type="text/css">
	.st0{fill:#CFE2FC;}
	.st1{fill:#C2B8BD;}
	.st2{fill:#C8C7D8;}
	.st3{fill:#E4E3ED;}
	.st4{fill:#D6D0D7;}
	.st5{fill:#E0E9F2;}
	.st6{fill:#E7BEA3;}
	.st7{fill:#F2F1F6;}
	.st8{fill:#B87193;}
	.st9{fill:#737984;}
	.st10{fill:#BB84A0;}
	.st11{fill:#A99DAB;}
	.st12{fill:#BF9A8A;}
	.st13{fill:#978690;}
	.st14{fill:none;stroke:#857280;stroke-width:0.2156;stroke-linecap:round;stroke-miterlimit:10;}
	.st15{fill:#562C49;}
	.st16{fill:#B1877D;}
	.st17{fill:none;stroke:#C69C87;stroke-width:0.1431;stroke-linecap:round;stroke-miterlimit:10;}
	.st18{fill:#FFFFFF;}
</style>
<path class="st0" d="M53.05,56H2.95C1.32,56,0,54.68,0,53.05V2.95C0,1.32,1.32,0,2.95,0h50.1C54.68,0,56,1.32,56,2.95v50.1
	C56,54.68,54.68,56,53.05,56z"/>
<g>
	<g>
		<path class="st1" d="M33.33,36.59h1.57c0.6-1.06,0.96-2.32,1.05-3.66h-1.32C34.52,34.33,34.06,35.64,33.33,36.59z"/>
		<path class="st2" d="M39.18,31.46l-0.8-9.39c-0.06-0.7-0.65-1.24-1.35-1.24h-1.5c0.16,0,0.32,0.04,0.46,0.09
			c0.47,0.18,0.81,0.62,0.86,1.15l0.1,1.12l0.24,2.84l0.46,5.43c0.07,0.78-0.54,1.45-1.33,1.47h1.51
			C38.63,32.93,39.25,32.25,39.18,31.46z"/>
		<path class="st3" d="M37.65,31.46l-0.46-5.43l-0.24-2.84l-0.1-1.12c-0.05-0.53-0.39-0.96-0.86-1.15c-0.14-0.05-0.3-0.09-0.46-0.09
			c-0.01,0-0.02,0-0.03,0h-6.05c-0.71,0-1.3,0.55-1.35,1.25l-0.37,5.24l-0.07,0.93l-0.23,3.23c-0.06,0.78,0.56,1.45,1.35,1.45h5.85
			h1.32h0.36c0.01,0,0.01,0,0.02,0C37.11,32.92,37.72,32.25,37.65,31.46z"/>
		<path class="st4" d="M36.85,48.07c0.18,0.03,0.34,0.12,0.46,0.25v-0.74h-0.46V48.07z"/>
		<path class="st1" d="M36.7,48.05c-0.49,0-0.89,0.42-0.89,0.94s0.4,0.94,0.89,0.94s0.89-0.42,0.89-0.94c0-0.26-0.1-0.5-0.27-0.68
			c-0.13-0.13-0.29-0.22-0.46-0.25C36.81,48.06,36.75,48.05,36.7,48.05z"/>
		<path class="st4" d="M30.49,48.07c0.18,0.03,0.34,0.12,0.46,0.25v-0.74h-0.46V48.07z"/>
		<path class="st1" d="M30.34,48.05c-0.49,0-0.89,0.42-0.89,0.94s0.4,0.94,0.89,0.94s0.89-0.42,0.89-0.94c0-0.26-0.1-0.5-0.27-0.67
			c-0.13-0.13-0.29-0.22-0.46-0.25C30.44,48.06,30.39,48.05,30.34,48.05z"/>
		<path class="st4" d="M24,48.32c0.13-0.13,0.29-0.22,0.46-0.25v-0.49H24V48.32z"/>
		<path class="st1" d="M23.73,48.99c0,0.52,0.4,0.94,0.89,0.94s0.89-0.42,0.89-0.94s-0.4-0.94-0.89-0.94c-0.05,0-0.1,0.01-0.15,0.02
			c-0.18,0.03-0.34,0.12-0.46,0.25C23.84,48.49,23.73,48.73,23.73,48.99z"/>
		<rect x="29.84" y="39.55" class="st1" width="1.6" height="2.49"/>
		<polygon class="st2" points="29.45,42.04 29.45,45.99 30.65,45.84 31.82,45.98 31.82,42.04 31.43,42.04 29.84,42.04 		"/>
		<polygon class="st4" points="29.45,45.99 23.64,46.71 23.64,47.57 24,47.57 24.47,47.57 30.49,47.57 30.95,47.57 36.85,47.57 
			37.32,47.57 37.64,47.57 37.64,46.71 31.82,45.98 30.65,45.84 		"/>
		<path class="st2" d="M23.11,36.59c-0.39,0-0.71,0.32-0.71,0.71v1.55c0,0.39,0.32,0.71,0.71,0.71h6.73h1.6h4.39
			c0.4,0,0.72-0.32,0.72-0.72v-1.52c0-0.4-0.32-0.72-0.72-0.72H34.9h-1.57H23.11z"/>
	</g>
	<g id="Char">
		<path class="st5" d="M27.95,21.65c-0.71,0.2-1.09,0.8-1.23,1.89l-0.63,7.59L21.3,32.2l-0.03,1.7l6.74-0.59
			c0.71-0.18,0.59-1.13,0.79-2.19l0.93-6.67c0,0,0.28-1.56-0.2-2.18S28.66,21.45,27.95,21.65z"/>
		<path class="st6" d="M21.3,32.2l-1.5,0.52c-0.15,0.05-0.28,0.14-0.38,0.26c-0.22,0.26-0.58,0.72-0.58,0.93
			c0,0.3,0.2,0.87,0.57,0.82c0.37-0.05,0.51-0.15,0.48-0.33c0.3,0,1.39-0.5,1.39-0.5L21.3,32.2z"/>
		<path class="st7" d="M33.58,33.34h-6.55l-0.28-8.16c-0.01-0.38,0.01-0.75,0.07-1.13c0.21-1.26,0.5-4.1,2.69-4.1
			s3.37,1.78,3.57,5.16C33.25,27.88,33.58,33.34,33.58,33.34z"/>
		<path class="st8" d="M31.62,36.61c0.52-0.97,0.46-1.95,0.3-3.27h-6.15l-4.94,0.28c-1.39,0.06-2.45,1.26-2.36,2.65l0.72,11.81h2.41
			l0.17-11.25L31.62,36.61z"/>
		<path class="st9" d="M16.98,49.8h4.6l0.03-1.74h-2.41l-2.35,1.15C16.54,49.36,16.65,49.8,16.98,49.8z"/>
		<path class="st10" d="M33.28,36.61c0.52-0.97,0.46-1.95,0.3-3.27h-6.15l-4.94,0.28c-1.39,0.06-2.45,1.26-2.36,2.65l0.72,11.81
			h2.41l0.17-11.25L33.28,36.61z"/>
		<path class="st11" d="M18.64,49.8h4.6l0.03-1.74h-2.41l-2.35,1.15C18.21,49.36,18.31,49.8,18.64,49.8z"/>
		<path id="Group_3_22_" class="st6" d="M31.03,20.25c-0.33-0.1-0.7-0.17-1.1-0.2l-2.1,0.82c0,0-0.16,0.29-0.18,0.57
			c-0.01,0.28-0.04,0.56,0.1,0.84c0.19,0.41,0.63,0.67,1.13,0.67h0.01c0.36,0,0.73-0.16,1.12-0.41c0.75-0.47,0.98-1.2,1.03-2.07
			C31.04,20.36,31.03,20.25,31.03,20.25z"/>
		<path id="Group_2_75_" class="st6" d="M27.72,19.25c0.3,0.31,0.3,0.79,0.29,1.22c-0.01,0.33-0.02,0.66-0.03,1
			c-0.01,0.22-0.01,0.45,0.08,0.65c0.14,0.3,0.49,0.47,0.82,0.47c0.33,0,0.65-0.15,0.92-0.35c0.63-0.45,0.92-1.08,1.05-1.84
			c0,0-0.6-2.04-0.64-2.7L27.72,19.25z"/>
		<path id="Group_1_96_" class="st12" d="M27.98,21.32c0.17-0.03,0.35-0.07,0.52-0.13c0.96-0.31,1.75-1.18,2.11-1.65
			c-0.17-0.64-0.37-1.46-0.4-1.84l-2.49,1.54c0.3,0.31,0.3,0.79,0.29,1.22C28,20.76,27.99,21.04,27.98,21.32z"/>
		<path id="Group_1_95_" class="st6" d="M25.52,13.23c-0.3,0.97-0.27,2.09-0.27,2.89c0,0.85-0.17,1.75,0.28,2.45
			c0.58,0.89,1.07,1.04,2.12,1.03c1.88-0.05,4.39-2.24,4.39-5.09c-0.07-2.54-1.2-3.89-3.38-3.51
			C26.33,11.58,25.83,12.26,25.52,13.23z"/>
		<path id="Group_1_94_" class="st13" d="M25.94,12.23c0.2,0.14,0.56,0.27,1.04,0.28c0.15,0,0.57-0.01,0.71-0.03
			c1.04-0.18,0.54,0.78,1.49,0.28l-0.22,0.62c0.46,0.69,0.79,1.56,0.78,2.39c0,0.15,0.06,0.28,0.18,0.37l0.95,0.43l0.31,0.82
			c1.38-0.83,1.82-2.2,1.36-3.69c-0.22-0.6,0.4-1.08-0.57-2.5c-0.79-0.85-2.08-1.25-3.54-0.93c-1.23-0.57-2.89,0.06-2.79,1.4
			c0.01,0.11,0.03,0.21,0.08,0.29l0,0"/>
		<path id="Group_7_15_" class="st6" d="M30.99,16.38c0.26-0.53,0.31-1.35-0.27-1.63c-0.58-0.28-1.01,0.56-1.01,0.56l0.1,2.05
			C30.19,17.34,30.73,16.9,30.99,16.38z"/>
		<path id="Group_6_12_" class="st14" d="M26.74,14.24c0.36-0.15,0.71-0.03,0.94,0.19"/>
		<path id="Group_4_12_" class="st15" d="M26.65,15.49c0.01,0.14,0.08,0.25,0.17,0.24c0.11-0.01,0.22-0.21,0.2-0.43
			c-0.02-0.23-0.15-0.29-0.25-0.19C26.68,15.19,26.64,15.36,26.65,15.49z"/>
		<path id="Group_2_73_" class="st16" d="M25.44,17.78c-0.05-0.02-0.03-0.09,0.02-0.09c0.09,0.01,0.19,0.02,0.28,0.03
			c0.17,0.02,0.33,0.03,0.5,0.03c0.16,0,0.33-0.01,0.49-0.05c0.09-0.02,0.18-0.04,0.27-0.07c0.05-0.02,0.08,0.05,0.04,0.08
			c-0.08,0.06-0.17,0.11-0.26,0.15c-0.17,0.07-0.35,0.09-0.53,0.09s-0.35-0.03-0.52-0.08C25.62,17.86,25.53,17.83,25.44,17.78z"/>
		<path id="Group_1_93_" class="st6" d="M25.58,15.76c-0.22,0.12-0.43,0.21-0.65,0.26c-0.05,0.03-0.1,0.09-0.09,0.16
			c0.01,0.12,0.12,0.17,0.22,0.21c0.08,0.03,0.17,0.06,0.26,0.08c0.05,0.01,0.1,0.01,0.15,0.01c0.14,0,0.27-0.05,0.37-0.14"/>
		<path id="Group_1_92_" class="st17" d="M25.58,15.76c-0.22,0.12-0.43,0.21-0.65,0.26c-0.05,0.03-0.1,0.09-0.09,0.16
			c0.01,0.12,0.12,0.17,0.22,0.21c0.08,0.03,0.17,0.06,0.26,0.08c0.05,0.01,0.1,0.01,0.15,0.01c0.14,0,0.27-0.05,0.37-0.14"/>
		<path class="st18" d="M31.55,21.46c-0.71,0.2-1.09,0.8-1.23,1.89l-0.63,7.59l-4.79,1.07l-0.03,1.7l6.74-0.59
			c0.71-0.18,0.59-1.13,0.79-2.19l0.93-6.67c0,0,0.28-1.56-0.2-2.18C32.65,21.46,32.26,21.26,31.55,21.46z"/>
		<path class="st6" d="M24.9,32.01l-1.5,0.52c-0.15,0.05-0.28,0.14-0.38,0.26c-0.22,0.26-0.58,0.72-0.58,0.93
			c0,0.3,0.2,0.87,0.57,0.82c0.37-0.05,0.51-0.15,0.48-0.33c0.3,0,1.39-0.5,1.39-0.5L24.9,32.01z"/>
	</g>
</g>
</svg>
