<?xml version="1.0" encoding="utf-8"?>
<!-- Generator: Adobe Illustrator 24.0.1, SVG Export Plug-In . SVG Version: 6.00 Build 0)  -->
<svg version="1.1" id="_x30_2" xmlns="http://www.w3.org/2000/svg" xmlns:xlink="http://www.w3.org/1999/xlink" x="0px" y="0px"
	 viewBox="0 0 56 56" style="enable-background:new 0 0 56 56;" xml:space="preserve">
<style type="text/css">
	.st0{fill:#CFE2FC;}
	.st1{fill:#FDB491;}
	.st2{fill:#FDC279;}
	.st3{fill:#7CA9BB;}
	.st4{fill:#5294B4;}
	.st5{fill:#FAD68F;}
	.st6{fill:#FDC197;}
	.st7{fill:#FDAD8C;}
	.st8{fill:#978690;}
	.st9{fill:#5D284B;}
	.st10{fill:#896571;}
	.st11{fill:none;stroke:#FFA791;stroke-width:0.179;stroke-linecap:round;stroke-miterlimit:10;}
	.st12{fill:#7C6E77;}
	.st13{fill:#FCC7A5;}
</style>
<path class="st0" d="M53.05,56H2.95C1.32,56,0,54.68,0,53.05V2.95C0,1.32,1.32,0,2.95,0h50.1C54.68,0,56,1.32,56,2.95v50.1
	C56,54.68,54.68,56,53.05,56z"/>
<g>
	<g>
		<path id="Group_2_10_" class="st1" d="M22.54,41.78c-0.21,0.37-0.55,1.36-0.5,1.76c0.04,0.33,0.25,0.58,0.15,0.92
			c-0.19,0.66-0.78-0.77-0.86-0.93c-0.08,0.3-0.04,0.62,0,0.92c0.03,0.17,0.15,0.48-0.13,0.47c-0.37-0.02-0.51-1.26-0.62-1.53
			c-0.16,0.34,0.08,0.7-0.04,1.03c-0.2,0.55-0.41-0.28-0.45-0.45c-0.12-0.58-0.1-1.27,0.01-1.86c0.04-0.24,0.37-1.21,0.45-1.44
			L22.54,41.78z"/>
		<polygon id="Group_1_7_" class="st2" points="26.52,27.42 22.57,42.05 20.51,40.89 24.45,25.75 		"/>
		<polygon class="st3" points="22.66,39.56 26.99,42.2 26.99,42.29 28.04,42.46 28.42,49.99 33.44,49.99 33.65,40.1 		"/>
		<polygon class="st4" points="22.66,39.56 22.27,39.54 22.25,40.83 22.06,49.99 26.64,49.99 26.99,42.29 26.99,42.2 		"/>
		<path class="st5" d="M32.4,25.99c-0.49-1.51-1.42-2.44-2.9-2.69l0.02,0.17c0.09,0.59-0.33,1.13-0.92,1.19l-1.28,0.18
			c-0.62,0.06-1.17-0.35-1.24-0.93c-0.28,0.17-0.55,0.38-0.79,0.61c-1.67,1.63-1.41,4.32-1.41,7.44l-1.62,7.58l0.39,0.02l10.99,0.54
			L32.4,25.99z"/>
		<path class="st6" d="M27.32,24.83l1.28-0.18c0.59-0.06,1.01-0.59,0.92-1.19l-0.13-1.17c-0.71,1.26-1.99,1.45-3.35,1.2l0.03,0.39
			c0,0.01,0,0.02,0,0.02C26.15,24.49,26.71,24.89,27.32,24.83z"/>
		<path class="st7" d="M29.39,22.3c0-0.01,0.01-0.01,0.01-0.02l-0.12-0.95l-3.44,0.65l0.21,1.51C27.39,23.75,28.67,23.56,29.39,22.3
			z"/>
	</g>
	<g>
		<path class="st6" d="M26.75,22.87c2.67-0.08,4.84-2.1,4.7-7.05c-0.1-3.41-2.22-5.84-5.31-5.31c-0.92,0.16-1.78,0.56-2.53,1.13
			c-0.62,0.47-1.09,1.1-1.36,1.8c-0.06,0.45-0.06,0.9-0.06,1.35c0,1.08,0,2.15,0,3.23c0,1.14,0.02,2.35,0.66,3.3
			c0.54,0.8,1.46,1.3,2.44,1.59C25.75,22.97,26.23,22.88,26.75,22.87z"/>
		<path class="st8" d="M32.09,13.35c-0.08-0.2-0.14-0.39-0.2-0.56c-0.01-0.33-0.05-0.66-0.18-0.96c-0.12-0.28-0.31-0.51-0.51-0.74
			c-0.22-0.25-0.45-0.49-0.72-0.69c-0.91-0.68-2.14-0.78-3.28-0.86c-0.19-0.36-0.45-0.67-0.77-0.92c-0.02-0.02-0.05-0.04-0.08-0.04
			c-0.03,0-0.07,0.01-0.1,0.03c-0.38,0.18-0.77,0.38-1.17,0.48c-0.22,0.05-0.44,0.08-0.67,0.12c-0.51,0.09-1.01,0.25-1.44,0.53
			c-0.43,0.29-0.77,0.72-0.89,1.22c-0.08,0.36-0.05,0.73,0.05,1.08c0.05,0.17,0.1,0.35,0.2,0.49c-0.45,0.35-0.68,0.93-0.64,1.5
			c0.03,0.45,0.21,0.87,0.48,1.23c0-0.15,0-0.31,0-0.46c0-0.07,0-0.15,0-0.23v0c0.19-0.51,0.42-1.02,0.7-1.5
			c0.07-0.12,0.14-0.24,0.2-0.36c0.28,0.19,0.73,0.3,1.41,0.32c0.21,0,0.55-0.01,0.76-0.04c1.47-0.24,3.01,1.15,4.35,0.48
			l-0.31,0.83c0.65,0.92,1,2.03,0.98,3.14c-0.02,0.18-0.03,0.33-0.04,0.4c-0.07,0.59-0.05,1.18-0.35,1.7
			c-0.02,0.03-0.03,0.06-0.05,0.08l-2.5-0.95c-1.36-0.35-2.81-0.31-4.15,0.1c-0.39,0.13-0.82,0.31-0.98,0.69
			c-0.08,0.19-0.09,0.41-0.08,0.61c0.05,0.7,0.36,1.51,0.92,1.93c0.78,0.63,1.76,1.14,2.99,1.16c1.23,0.02,1.91-0.15,2.76-0.5
			c0.88-0.48,1.51-1.27,1.96-2.17c0.02-0.03,0.04-0.06,0.06-0.1c0.2-0.33,0.31-0.75,0.36-1.19C32.56,18.26,33.1,15.97,32.09,13.35z"
			/>
		<path class="st7" d="M32.46,18.16c0.4-0.62,0.54-1.62-0.23-2c-0.77-0.39-1.43,0.6-1.43,0.6l-0.04,2.5
			C31.28,19.27,32.07,18.78,32.46,18.16z"/>
		<path class="st9" d="M26.28,17.17c0.02,0.19,0.12,0.33,0.24,0.31c0.16-0.02,0.31-0.28,0.28-0.58s-0.21-0.4-0.36-0.25
			C26.32,16.76,26.26,16.98,26.28,17.17z"/>
		<path class="st9" d="M23.82,17.03c-0.01,0.19-0.1,0.33-0.22,0.33c-0.16-0.01-0.32-0.26-0.3-0.57s0.2-0.4,0.35-0.27
			C23.77,16.63,23.84,16.85,23.82,17.03z"/>
		<path class="st6" d="M25.04,17.71c-0.27,0.21-0.55,0.39-0.84,0.51c-0.07,0.05-0.11,0.14-0.08,0.23c0.04,0.15,0.22,0.2,0.36,0.22
			c0.13,0.02,0.25,0.04,0.38,0.04c0.07,0,0.14-0.01,0.21-0.02c0.19-0.03,0.37-0.13,0.48-0.27"/>
		<path class="st10" d="M27.43,16.27c-0.04,0-0.08-0.01-0.11-0.04c-0.35-0.36-0.84-0.35-1.19-0.27c-0.08,0.02-0.16-0.03-0.18-0.12
			c-0.02-0.08,0.03-0.16,0.12-0.18c0.61-0.13,1.11,0,1.46,0.36c0.06,0.06,0.05,0.15,0,0.21C27.5,16.26,27.46,16.27,27.43,16.27z"/>
		<path class="st10" d="M22.71,16.42c-0.03,0-0.06-0.01-0.08-0.03c-0.05-0.05-0.05-0.12,0-0.17c0.35-0.35,1.05-0.58,1.68-0.33
			c0.06,0.02,0.09,0.09,0.07,0.16c-0.02,0.06-0.09,0.09-0.16,0.07c-0.51-0.21-1.12-0.02-1.42,0.27
			C22.77,16.41,22.74,16.42,22.71,16.42z"/>
		<path class="st11" d="M25.04,17.71c-0.27,0.21-0.55,0.39-0.84,0.51c-0.07,0.05-0.11,0.14-0.08,0.23c0.04,0.15,0.22,0.2,0.36,0.22
			c0.13,0.02,0.25,0.04,0.38,0.04c0.07,0,0.14-0.01,0.21-0.02c0.19-0.03,0.37-0.13,0.48-0.27"/>
		<path id="Group_2_9_" class="st12" d="M26.37,19.98c0.06-0.04,0.03-0.17-0.04-0.16c-0.14,0.03-0.27,0.07-0.41,0.1
			c-0.24,0.06-0.48,0.1-0.72,0.13c-0.24,0.02-0.48,0.03-0.72-0.01c-0.14-0.02-0.27-0.05-0.4-0.09c-0.07-0.02-0.11,0.1-0.04,0.15
			c0.13,0.1,0.26,0.17,0.41,0.23c0.26,0.09,0.53,0.12,0.79,0.09s0.52-0.1,0.76-0.22C26.11,20.13,26.25,20.06,26.37,19.98z"/>
	</g>
	<path class="st2" d="M27.4,32.22c0.44,0.24,5.85,1.34,6.28,1.57c0.32,0.18,0.65,0.35,0.97,0.53c-0.65-2.71-1.48-6.19-1.89-7.92
		c-0.1-0.44-0.37-0.82-0.75-1.06c0,0,0,0-0.01,0c-1.12-0.71-2.73-0.03-2.73,1.34c0,0,0.03,0.89,0.5,1.6
		c0.7,1.06,1.78,3.23,1.78,3.23S28.06,31.79,27.4,32.22z"/>
	<path id="Group_2_8_" class="st5" d="M29.59,26.4c-0.16-0.86,0.14-1.58,0.77-1.92c0.63-0.34,1.54-0.43,2.46,1.31
		c0.92,1.74,4.07,8.52,2.91,8.78c-1.87,0.55-8.66-0.01-8.66-0.01l-0.02-2.36l5.31-0.19C32.36,32.01,29.75,27.26,29.59,26.4z"/>
	<path id="Group_2_7_" class="st13" d="M27.11,34.48c-0.42,0-1.46,0.18-1.78,0.42c-0.27,0.19-0.39,0.5-0.73,0.58
		c-0.67,0.15,0.3-1.05,0.4-1.21c-0.3,0.07-0.57,0.26-0.81,0.45c-0.14,0.1-0.35,0.36-0.47,0.11c-0.16-0.33,0.86-1.06,1.04-1.28
		c-0.38,0.02-0.58,0.4-0.92,0.46c-0.57,0.09,0.04-0.49,0.18-0.61c0.44-0.39,1.06-0.7,1.64-0.89c0.23-0.07,1.24-0.26,1.48-0.3
		L27.11,34.48z"/>
</g>
</svg>
