<?xml version="1.0" encoding="utf-8"?>
<!-- Generator: Adobe Illustrator 24.0.1, SVG Export Plug-In . SVG Version: 6.00 Build 0)  -->
<svg version="1.1" id="_x30_3" xmlns="http://www.w3.org/2000/svg" xmlns:xlink="http://www.w3.org/1999/xlink" x="0px" y="0px"
	 viewBox="0 0 56 56" style="enable-background:new 0 0 56 56;" xml:space="preserve">
<style type="text/css">
	.st0{fill:#CFE2FC;}
	.st1{fill:#A7C7A7;}
	.st2{fill:#C0E0C0;}
	.st3{fill:#FDB491;}
	.st4{fill:#FDC197;}
	.st5{fill:#FAD68F;}
	.st6{fill:#FDAD8C;}
	.st7{fill:#FDC279;}
	.st8{fill:none;stroke:#FFA791;stroke-width:0.2488;stroke-linecap:round;stroke-miterlimit:10;}
	.st9{fill:#65234D;}
	.st10{fill:#C08079;}
	.st11{fill:#E3BD74;}
</style>
<path class="st0" d="M53.05,56H2.95C1.32,56,0,54.68,0,53.05V2.95C0,1.32,1.32,0,2.95,0h50.1C54.68,0,56,1.32,56,2.95v50.1
	C56,54.68,54.68,56,53.05,56z"/>
<g>
	<path id="Arm_x5F_back" class="st1" d="M17.02,37.73l4.45-9.24c0.77-1.09,1.75-1.74,2.87-1.65c1.15,0.07,1.55,1.53,1.38,2.61
		c-0.39,1.92-3.23,6.36-5.27,10.11L17.02,37.73z"/>
	<path id="body_1_" class="st2" d="M21.51,50h17.14c-1.24-6.68-2.92-15.49-4.04-20.29c-0.46-1.98-1.84-3.64-3.71-4.43
		c-0.88-0.37-1.73-0.56-2.56-0.58l-2.52,0.43c-1.55,0.69-3.01,1.76-4.36,3.39v0.04c-0.81,3.05,1.77,7.99,2.26,12.28L21.51,50z"/>
	<g id="front_x5F_arm_x5F_L">
		<path id="Group_2_97_" class="st2" d="M16.98,37.69c-0.17,1.77-0.11,3.16,0.48,3.35c1.57,0.5,9.65-1.44,9.65-1.44l-0.17-2.76
			L16.98,37.69z"/>
		<path class="st3" d="M24.93,37.03c-0.06-1.04,0.13-2.55,0.52-3.36c0.11-0.24,0.73-1.38,0.77-0.52c0.02,0.51-0.43,0.97-0.36,1.52
			c0.24-0.36,0.93-2.15,1.42-2.06c0.38,0.06,0.09,0.48-0.01,0.73c-0.18,0.43-0.36,0.89-0.37,1.36c0.17-0.22,1.52-2.15,1.51-1.12
			c0,0.52-0.38,0.83-0.56,1.3c-0.23,0.58-0.85,4.13-0.73,4.73C26.55,38.24,25.86,37.26,24.93,37.03z"/>
	</g>
	<g id="Arm_x5F_front_x5F_R">
		<path class="st1" d="M27.92,36.73c0.54,0.29,7.11,1.04,7.65,1.33c0.4,0.22,0.79,0.43,1.19,0.65c-0.79-3.32-1.81-7.6-2.32-9.72
			c-0.13-0.54-0.46-1-0.92-1.3c0,0,0,0-0.01,0c-1.37-0.87-3.35-0.04-3.35,1.65c0,0-0.03,1.12,0.57,1.97
			c0.16,0.23,2.79,4.32,2.79,4.32S28.72,36.2,27.92,36.73z"/>
		<path id="Group_2_98_" class="st2" d="M30.21,28.99c-0.19-1.05,0.16-1.94,0.94-2.36s1.89-0.52,3.02,1.61s6.03,9.79,4.7,10.77
			c-1.33,0.98-10.58,0.38-10.58,0.38l-1.34-2.93l7.41-0.58C34.36,35.86,30.4,30.04,30.21,28.99z"/>
		<path class="st4" d="M29.53,36.24c-0.28-1-0.95-2.37-1.58-3.01c-0.18-0.19-1.14-1.08-0.9-0.25c0.14,0.49,0.72,0.78,0.83,1.32
			c-0.34-0.27-1.58-1.73-2.01-1.5c-0.34,0.18,0.07,0.49,0.25,0.69c0.31,0.35,0.63,0.72,0.79,1.16c-0.24-0.15-2.13-1.55-1.79-0.57
			c0.17,0.49,0.63,0.66,0.95,1.05c0.4,0.47,2.14,3.63,2.21,4.24C28.38,37.91,28.72,36.76,29.53,36.24z"/>
	</g>
	<g id="head">
		<g>
			<path class="st5" d="M31.15,13.12c-2.85-2.65-7.22-1.33-10.65-0.63L18.3,23.47c5.03,1.31,9.94,1.17,13.52-1.72
				C34.35,19.48,33.77,15.56,31.15,13.12z"/>
			<path id="Group_2_96_" class="st4" d="M24.85,22.22c0.49,0.51,0.49,1.31,0.47,2.02c-0.02,0.55-0.03,2.06-0.05,2.6
				c-0.01,0.37-0.02,0.75,0.13,1.08c0.23,0.5,0.81,0.78,1.36,0.77c0.55-0.01,1.07-0.25,1.52-0.57c1.04-0.74,1.51-1.77,1.72-3.03
				c0,0-0.98-4.33-1.05-5.41L24.85,22.22z"/>
			<path class="st6" d="M28.96,19.68c0.04,0.67,0.44,2.61,0.73,3.98c-0.08,0.05-0.15,0.09-0.23,0.13c-1.39,0.71-2.77,1.11-4.15,1.03
				c0-0.24,0.01-0.44,0.01-0.58c0.02-0.71,0.02-1.5-0.47-2.02L28.96,19.68z"/>
			<path class="st7" d="M20.5,12.5L18.3,23.47c0.22,0.05,0.43,0.1,0.65,0.15l2.15-11.24L20.5,12.5z"/>
			<path class="st4" d="M33.61,17.33c-0.77,3.82-8.55,7.21-10.88,5.84c-1.95-1.14-1.23-4.01-1.29-5.81
				c-0.06-1.67-0.76-3.29,0.08-4.85c1.62-3,7.49-4.39,9.99-2.16C34.1,12.68,34.15,14.6,33.61,17.33z"/>
			<path class="st5" d="M28.67,14.37c-3.72,0.43-5.81,0.53-9.06,0.28c0,0-0.5-4.72,5.07-5.74c6.34-1.17,9.45,0.65,11.22,5.75
				c1.77,5.1-0.49,9.92-7.4,10.09L28.67,14.37z"/>
			<path id="Group_7_23_" class="st6" d="M32.52,17.44c0.35-0.6,0.48-1.57-0.18-1.95c-0.66-0.38-1.24,0.58-1.24,0.58l-0.05,2.43
				C31.49,18.52,32.17,18.04,32.52,17.44z"/>
		</g>
		<g>
			<path id="nose_9_" class="st8" d="M23.33,17.6c-0.33,0.28-0.51,0.21-0.61,0.45c-0.08,0.17,0.05,0.29,0.15,0.36
				c0.09,0.07,0.21,0.09,0.32,0.1c0.21,0.02,0.4,0.04,0.57-0.12"/>
			<path id="Group_4_18_" class="st9" d="M25.2,17.4c0.03,0.19,0.12,0.34,0.25,0.33c0.16-0.02,0.3-0.3,0.26-0.62
				c-0.04-0.32-0.23-0.41-0.37-0.26C25.23,16.97,25.17,17.21,25.2,17.4z"/>
			<path id="Group_3_28_" class="st9" d="M22.33,17.34c0,0.2-0.09,0.35-0.21,0.35c-0.16,0-0.33-0.27-0.32-0.59
				c0.01-0.32,0.18-0.43,0.34-0.29C22.26,16.92,22.33,17.15,22.33,17.34z"/>
			<path id="Group_2_95_" class="st10" d="M23.09,19.75c-0.07-0.03-0.05-0.14,0.03-0.13c0.14,0.01,0.29,0.02,0.43,0.03
				c0.26,0.02,0.51,0.03,0.76,0.02c0.25-0.01,0.5-0.04,0.74-0.1c0.14-0.03,0.27-0.08,0.41-0.13c0.07-0.03,0.12,0.07,0.06,0.12
				c-0.12,0.1-0.26,0.18-0.4,0.24c-0.26,0.11-0.53,0.16-0.81,0.17c-0.28,0.01-0.54-0.03-0.81-0.09
				C23.37,19.86,23.22,19.81,23.09,19.75z"/>
			<path id="Group_1_122_" class="st11" d="M27.06,15.75c0.02,0,0.05-0.01,0.07-0.03c0.04-0.04,0.04-0.1,0-0.13
				c-0.42-0.41-1.16-0.74-1.98-0.44c-0.05,0.02-0.07,0.07-0.06,0.12c0.02,0.05,0.07,0.07,0.12,0.06c0.74-0.27,1.4,0.03,1.78,0.4
				C27.02,15.74,27.04,15.75,27.06,15.75z"/>
			<path id="Group_1_121_" class="st11" d="M20.91,15.87c0.02,0,0.04-0.01,0.06-0.02c0.34-0.27,1.11-0.57,1.69-0.24
				c0.04,0.03,0.1,0.01,0.13-0.04c0.03-0.04,0.01-0.1-0.04-0.13c-0.67-0.38-1.51-0.05-1.9,0.25c-0.04,0.03-0.05,0.09-0.02,0.13
				C20.85,15.86,20.88,15.87,20.91,15.87z"/>
		</g>
	</g>
</g>
</svg>
