<?xml version="1.0" encoding="utf-8"?>
<!-- Generator: Adobe Illustrator 24.0.1, SVG Export Plug-In . SVG Version: 6.00 Build 0)  -->
<svg version="1.1" id="_x30_7" xmlns="http://www.w3.org/2000/svg" xmlns:xlink="http://www.w3.org/1999/xlink" x="0px" y="0px"
	 viewBox="0 0 56 56" style="enable-background:new 0 0 56 56;" xml:space="preserve">
<style type="text/css">
	.st0{fill:#CFE2FC;}
	.st1{fill:#A0CEE0;}
	.st2{fill:#B6DDEF;}
	.st3{fill:#8CC0D2;}
	.st4{fill:#CD8E7A;}
	.st5{fill:#E0A491;}
	.st6{fill:#7B6766;}
	.st7{fill:none;stroke:#B78979;stroke-width:0.2688;stroke-linecap:round;stroke-miterlimit:10;}
	.st8{fill:none;stroke:#6D475D;stroke-width:0.5445;stroke-linecap:round;stroke-miterlimit:10;}
	.st9{fill:none;stroke:#5C294B;stroke-width:0.4189;stroke-linecap:round;stroke-miterlimit:10;}
	.st10{fill:#9C6B6C;}
</style>
<path class="st0" d="M53.05,56H2.95C1.32,56,0,54.68,0,53.05V2.95C0,1.32,1.32,0,2.95,0h50.1C54.68,0,56,1.32,56,2.95v50.1
	C56,54.68,54.68,56,53.05,56z"/>
<g>
	<g>
		<g>
			<path class="st1" d="M7.17,41.06c-1.52,0.8-2.42,2.41-2.33,4.12h0.2c0.06,1.05,1.04,1.8,2.07,1.6c3.16-0.63,12.28-4.5,15.43-5.65
				c3.57-1.31-0.06-5.16-1.74-6.73c-0.43-0.4-1.08-0.46-1.58-0.14C15.18,36.85,10.07,39.53,7.17,41.06z"/>
			<path class="st1" d="M44.36,49.66c-2.93-1.33-10.93-7.19-13.73-9.03c-3.17-2.09,0.6-5.21,2.61-6.34c0.51-0.29,1.16-0.2,1.57,0.22
				c3.34,3.44,8.33,7.41,10.81,9.57c1.29,1.13,2.03,2.44,1.54,4.09C46.69,49.19,46,50.13,44.36,49.66z"/>
			<path class="st2" d="M18.13,49.99c1.75-0.01,3.5-0.03,5.25-0.05c2.17-0.03,4.34-0.05,6.51-0.06c1.63-0.01,3.26,0.01,4.89-0.01
				c0.43-1.76,1.29-5.33,1.98-8.7c0.3-1.46,0.62-4.1-1.21-6.12c-2.31-2.53-8.22-3.52-8.22-3.52s-7.9,1.48-9.52,4.05
				c-0.9,1.43-1.44,4.82-0.3,9.57C17.89,46.76,18.1,48.38,18.13,49.99z"/>
			<path class="st3" d="M18.19,45.77c0.7-0.59,1.63-0.89,2.53-0.83c0.71,0.05,1.4,0.31,2.11,0.44c0.94,0.18,1.93,0.12,2.85-0.16
				c-2.46-1.85-5.58-2.77-8.66-2.62c0.1,0.81,0.26,1.67,0.48,2.58c0.09,0.35,0.16,0.7,0.23,1.06
				C17.87,46.06,18.03,45.91,18.19,45.77z"/>
			<path class="st3" d="M29.34,42.04c0.15,0.96,0.96,1.68,1.81,2.14c0.85,0.46,1.79,0.77,2.56,1.36c0.61,0.47,1.09,1.12,1.37,1.85
				c0.06,0.18,0.12,0.36,0.17,0.54c0.24-1.02,0.53-2.23,0.81-3.5C33.84,43.61,31.65,42.72,29.34,42.04z"/>
			<path id="XMLID_2_" class="st4" d="M24.66,26.48v7.2c0,0,2.34,3.38,6.17,0.47l-0.05-7.79L24.66,26.48z"/>
		</g>
		<g>
			<path class="st2" d="M20.08,40.91c-3.95,0.12-9.25,0.67-11.93,1.03c-3.11,0.41-4.88,2.8-2.55,4.91c0.03,0.03,0.07,0.06,0.1,0.09
				c0.46,0.39,1.05,0.59,1.65,0.56c1.89-0.06,11.3-3.41,13.6-3.61c0.01,0.01,0.01,0.02,0.02,0.03
				C20.68,42.88,20.49,41.88,20.08,40.91z"/>
			<path class="st5" d="M20.95,43.88c0.38,0.61,1.08,1,1.83,0.97c0.71-0.03,1.44,0.01,1.81,0.16c0.58,0.23,0.94,0.74,1.59,0.72
				c1.29-0.03-1.02-1.79-1.28-2.02c0.59,0,1.15,0.23,1.67,0.46c0.3,0.13,0.8,0.51,0.92-0.01c0.15-0.67-2.04-1.55-2.47-1.86
				c0.7-0.13,1.23,0.48,1.88,0.43c1.09-0.09-0.3-0.88-0.59-1.03c-0.98-0.5-2.25-0.81-3.38-0.89c-0.45-0.03-2.38,0.07-2.84,0.12
				L20.95,43.88z"/>
			<path class="st2" d="M44.68,49.78c-3.5-1.45-10.52-5.18-13-6.44c0.44-0.48,1.92-1.06,2.91-1.15c1.83,0.33,6.91,0.82,9.88,1.57
				c1.36,0.34,2.49,1.35,2.86,2.7C47.89,48.51,46.6,50.46,44.68,49.78z"/>
			<path class="st5" d="M31.72,43.34c-0.72,0.08-1.45-0.24-1.89-0.85c-0.41-0.58-0.89-1.13-1.23-1.33
				c-0.54-0.32-1.15-0.29-1.54-0.81c-0.77-1.04,2.03-0.29,2.38-0.23c-0.36-0.47-0.88-0.77-1.39-1.04c-0.29-0.16-0.89-0.33-0.55-0.73
				c0.44-0.53,2.47,0.66,2.98,0.81c-0.33-0.63-1.13-0.68-1.49-1.22c-0.59-0.91,0.89-0.3,1.18-0.16c1,0.47,2.02,1.28,2.78,2.12
				c0.3,0.34,1.4,1.92,1.65,2.32L31.72,43.34z"/>
		</g>
	</g>
	<g>
		<path class="st6" d="M19.35,20.62c-0.09-0.81-0.17-1.69,0.26-2.38c0.1-0.16,0.24-0.32,0.28-0.51c0.03-0.14,0.01-0.28-0.01-0.42
			c-0.08-0.54-0.15-1.11,0.04-1.62c0.16-0.45,0.51-0.8,0.85-1.14c0.35-0.35,0.7-0.7,1.05-1.05c0.31-0.31,0.64-0.63,1.02-0.86
			c0.67-0.4,1.52-0.5,2.27-0.25c0.51-0.29,1.04-0.58,1.61-0.71c0.58-0.13,1.22-0.09,1.69,0.26c0.15,0.11,0.29,0.25,0.47,0.32
			c0.22,0.08,0.46,0.04,0.69,0c0.54-0.1,1.1-0.2,1.64-0.1s1.07,0.46,1.22,1c0.02,0.09,0.04,0.18,0.1,0.25
			c0.07,0.09,0.19,0.11,0.3,0.13c0.66,0.15,1.23,0.63,1.5,1.25c0.27,0.62,0.22,1.37-0.12,1.95c1.05,0.6,1.39,2.16,0.68,3.14
			c0.53,0.58,0.76,1.42,0.6,2.19c-0.16,0.77-0.7,1.46-1.41,1.79c-0.25,0.11-0.51,0.19-0.76,0.31c-0.22,0.11-0.42,0.25-0.62,0.39
			c-1.86,1.24-4.19,1.73-6.4,1.43c-1.15-0.16-2.28-0.53-3.27-1.14c-0.69-0.42-1.49-0.69-2.14-1.15
			C19.82,22.97,19.5,21.84,19.35,20.62z"/>
		<path class="st4" d="M35.84,25.47c0.56-1.04,0.71-2.7-0.46-3.3c-1.17-0.6-2.1,1.08-2.1,1.08l0.09,4.13
			C34.14,27.37,35.28,26.52,35.84,25.47z"/>
		<path class="st4" d="M19.37,25.84c-0.6-1.02-0.83-2.67,0.31-3.32c1.14-0.65,2.14,0.98,2.14,0.98l0.09,4.13
			C21.14,27.66,19.97,26.86,19.37,25.84z"/>
		<path class="st5" d="M34.71,24.7c0,5.36-1.84,7.87-6.99,7.87s-6.99-3.46-6.99-7.87c0-7.65,1.4-11.03,6.99-11.03
			C33.31,13.67,34.71,17.63,34.71,24.7z"/>
		<path class="st7" d="M28.37,25.25c0.1,0.23,0.18,0.58-0.16,0.68c-0.29,0.05-0.73,0.12-0.94-0.21c-0.1-0.15-0.05-0.32,0.03-0.5"/>
		<path class="st8" d="M29.65,21.54c0.8-0.21,1.7,0.27,2.24,0.64"/>
		<path class="st8" d="M26.3,20.89c-0.9-0.33-1.93,0.21-2.41,0.73"/>
		<path class="st9" d="M24.53,23.82c0.46,0.13,0.94,0.15,1.41,0.05"/>
		<path class="st9" d="M31.41,23.78c-0.45,0.16-0.94,0.2-1.41,0.14"/>
		<path class="st6" d="M33.56,13.81c-0.89-0.54-1.93-0.8-2.96-0.75c-0.8,0.04-1.58,0.27-2.38,0.27c-0.65,0-1.29-0.15-1.94-0.22
			c-1.22-0.14-2.51,0.02-3.55,0.7c-1.21,0.64-1.94,1.64-2.18,3.04c-0.24,0.97-0.2,1.64-0.2,2.47c0,0.12-0.02,0.24-0.05,0.36
			c-0.02,0.03-0.04,0.06-0.05,0.1c-0.7,1.47,0.64,3.2,0.36,4.82c0.59-0.93,1.25-1.92,1.22-3.03c-0.01-0.52-0.18-1.04-0.15-1.56
			c0-0.07,0.01-0.14,0.05-0.2c0.05-0.07,0.13-0.1,0.21-0.13c1.2-0.44,2.26-1.27,3-2.33c0.7,1.13,1.46,1.24,2.27,0.7
			c1.73,1.24,4.09,1.44,6.01,0.56c0,0.1-0.01,0.2-0.03,0.29c-0.06,0.4-0.2,0.78-0.21,1.18c-0.01,0.57,0.24,1.13,0.6,1.56
			c0.31,0.38,0.7,0.69,1.09,0.98c0.4-0.8,0.53-3.15,0.06-5.1c0.15-0.19,0.28-0.4,0.36-0.64C35.49,15.71,34.6,14.44,33.56,13.81z"/>
		<path class="st10" d="M29.93,27.45c0.12-0.08,0.03-0.29-0.11-0.26c-0.27,0.05-0.53,0.11-0.8,0.16c-0.48,0.09-0.95,0.17-1.44,0.21
			c-0.48,0.04-0.97,0.04-1.46-0.03c-0.28-0.04-0.55-0.09-0.84-0.17c-0.15-0.04-0.21,0.18-0.07,0.26c0.27,0.17,0.57,0.3,0.86,0.4
			c0.54,0.17,1.09,0.22,1.61,0.17c0.53-0.04,1.03-0.17,1.49-0.36C29.45,27.71,29.69,27.59,29.93,27.45z"/>
	</g>
</g>
</svg>
