<?xml version="1.0" encoding="utf-8"?>
<!-- Generator: Adobe Illustrator 24.1.0, SVG Export Plug-In . SVG Version: 6.00 Build 0)  -->
<svg version="1.1" id="ID01" xmlns="http://www.w3.org/2000/svg" xmlns:xlink="http://www.w3.org/1999/xlink" x="0px" y="0px"
	 viewBox="0 0 56 56" style="enable-background:new 0 0 56 56;" xml:space="preserve">
<style type="text/css">
	.st0{fill:#CFE2FC;}
	.st1{fill:#AA668B;}
	.st2{fill:#BA7196;}
	.st3{fill:#B16D92;}
	.st4{fill:#EFBEA0;}
	.st5{fill:#C79988;}
	.st6{fill:#9C8691;}
	.st7{fill:none;stroke:#8B7180;stroke-width:0.4481;stroke-linecap:round;stroke-miterlimit:10;}
	.st8{fill:none;stroke:#8B7180;stroke-width:0.3587;stroke-linecap:round;stroke-miterlimit:10;}
	.st9{fill:#5D284B;}
	.st10{fill:#BA867B;}
	.st11{fill:none;stroke:#CF9B84;stroke-width:0.2974;stroke-linecap:round;stroke-miterlimit:10;}
	.st12{fill:#BF83A2;}
</style>
<path class="st0" d="M53,56H3c-1.6,0-3-1.3-3-3V3c0-1.6,1.3-3,3-3h50c1.6,0,3,1.3,3,3v50C56,54.7,54.7,56,53,56z"/>
<g>
	<g id="body_1_">
		<path class="st1" d="M37.3,36.1c0.1,1.6-1.8,8.8-2.7,12.5h-7.3c0.6-0.6,1.2-1.3,1.4-1.6c0.3-0.5,0.4-1,0.5-1.6
			c1-5.2,0.4-13.1,4.6-13.9C36.4,31,37.2,33.9,37.3,36.1z"/>
		<path class="st2" d="M48.2,48.6H29.9c0.5-5.4,1.1-12.4,1.1-12.4s-0.9-4.8,4.9-6.6c0,0-0.4,0.7-0.4,1.3c0,0.6-0.1,1.3,0.2,1.9
			c0.4,0.9,1.4,1.5,2.5,1.5h0c0.8,0,1.6-0.4,2.5-0.9c1.7-1.1,2.2-2.7,2.3-4.7c0-0.2,0-0.5,0-0.5c5.7,1.8,5.1,6.1,5.3,8
			C48.6,38.1,48.4,44.1,48.2,48.6z"/>
		<path id="Group_3_5_" class="st3" d="M43.2,28.3c0,0,0,0.3,0,0.5c-0.1,1.9-0.6,3.6-2.3,4.7c-0.9,0.6-1.7,0.9-2.5,0.9h0
			c-1.1,0-2.1-0.6-2.5-1.5c-0.3-0.6-0.2-1.3-0.2-1.9c0-0.6,0.4-1.3,0.4-1.3c-5.6,1.7-5,6.1-4.9,6.5c3.2,0.6,6.4,1,9.6,1.4
			c1.8,0.2,3.7,0.3,5.5-0.2c0.8-0.3,1.7-0.7,2.3-1.3C48.3,34.2,48.7,30,43.2,28.3z"/>
		<path id="Group_3_2_" class="st4" d="M43.2,28.3c-0.7-0.2-1.6-0.4-2.5-0.4L36,29.7c0,0-0.4,0.7-0.4,1.3c0,0.6-0.1,1.3,0.2,1.9
			c0.4,0.9,1.4,1.5,2.5,1.5h0c0.8,0,1.6-0.4,2.5-0.9c1.7-1.1,2.2-2.7,2.3-4.7C43.2,28.6,43.2,28.3,43.2,28.3z"/>
		<path id="Group_2_2_" class="st4" d="M35.7,26.1c0.7,0.7,0.7,1.8,0.6,2.8c0,0.7,0,1.5-0.1,2.2c0,0.5,0,1,0.2,1.5
			c0.3,0.7,1.1,1.1,1.9,1.1c0.8,0,1.5-0.3,2.1-0.8c1.4-1,2.1-2.4,2.3-4.1c0,0-1.3-4.6-1.4-6.1L35.7,26.1z"/>
		<path id="Group_1_8_" class="st5" d="M36.3,30.7c0.4-0.1,0.8-0.2,1.2-0.3c2.2-0.7,3.9-2.7,4.7-3.7c-0.4-1.4-0.8-3.3-0.9-4.1
			l-5.6,3.5c0.7,0.7,0.7,1.8,0.6,2.8C36.4,29.4,36.3,30.1,36.3,30.7z"/>
		<path id="Group_1_10_" class="st4" d="M37.6,27.4c3.9-0.1,7.1-3.3,6.8-10.9c-0.2-5.3-3.3-9-7.8-8.2c-1.4,0.3-2.6,0.9-3.7,1.8
			c-0.9,0.7-1.6,1.7-2,2.8c-0.1,0.7-0.1,1.4-0.1,2.1c0,1.7,0,3.3,0,5c0,1.8,0.1,3.6,1,5.1C33,26.9,35,27.6,37.6,27.4z"/>
		<path id="Group_1_2_" class="st6" d="M30.8,14.6c0.3-0.8,0.6-1.6,1-2.3c0.1-0.2,0.2-0.4,0.3-0.6c0.4,0.3,1.1,0.5,2.1,0.5
			c0.3,0,0.8,0,1.1-0.1c2.1-0.4,4.4,1.8,6.4,0.7l-0.4,1.3c1,1.4,1.5,3.1,1.5,4.9c0,0.3,0.1,0.6,0.4,0.8l0.8,0.6l0,1.5
			c4.1-2.8,3.1-5,1.5-9.2c-0.5-1.3-0.4-1.9-2.1-3.7c-1.6-1.8-3.4-1.9-6.4-1.2c-2.6-1.2-5.4,0.2-5.2,3c0,0.2,0.1,0.4,0.2,0.6l0,0
			C30.7,12.2,30.6,13.3,30.8,14.6z"/>
		<path id="Group_7_3_" class="st4" d="M45.8,20.4c0.5-1.1,0.6-2.8-0.6-3.4c-1.2-0.6-2.1,1.2-2.1,1.2l0.2,4.3
			C44.2,22.4,45.3,21.5,45.8,20.4z"/>
		<path id="Group_6_1_" class="st7" d="M37,16c0.7-0.3,1.5-0.1,2,0.4"/>
		<path id="Group_5_1_" class="st8" d="M34.1,15.5c-0.8-0.4-1.8,0-2.3,0.4"/>
		<path id="Group_4_4_" class="st9" d="M36.8,18.6c0,0.3,0.2,0.5,0.3,0.5c0.2,0,0.4-0.4,0.4-0.9c0-0.5-0.3-0.6-0.5-0.4
			C36.9,18,36.8,18.3,36.8,18.6z"/>
		<path id="Group_3_7_" class="st9" d="M33.2,18.4c0,0.3-0.1,0.5-0.3,0.5c-0.2,0-0.5-0.4-0.4-0.9c0-0.5,0.3-0.6,0.5-0.4
			C33.1,17.8,33.2,18.2,33.2,18.4z"/>
		<path id="Group_2_1_" class="st10" d="M34.4,23c-0.1,0-0.1-0.2,0.1-0.2c0.2,0,0.4,0,0.6,0.1c0.4,0,0.7,0.1,1.1,0.1
			c0.4,0,0.7,0,1.1-0.1c0.2,0,0.4-0.1,0.6-0.2c0.1,0,0.2,0.1,0.1,0.2c-0.2,0.1-0.4,0.3-0.6,0.3c-0.4,0.2-0.8,0.2-1.2,0.2
			c-0.4,0-0.8-0.1-1.2-0.2C34.8,23.1,34.6,23.1,34.4,23z"/>
		<path id="Group_1_12_" class="st11" d="M34.6,19.2c-0.4,0.3-0.9,0.5-1.3,0.6c-0.1,0.1-0.2,0.2-0.2,0.3c0,0.2,0.3,0.4,0.5,0.4
			c0.2,0.1,0.4,0.1,0.5,0.2c0.1,0,0.2,0,0.3,0c0.3,0,0.6-0.1,0.8-0.3"/>
	</g>
	<path id="Group_3_4_" class="st4" d="M8,33.8c0,1.9,2.1,2.5,4.7,1l5.2,0.3l0-3.3l-5.2,0c-1.6-0.1-3.6-0.4-4.8,0.3
		C7.4,32.4,7.4,33.4,8,33.8z"/>
	<path id="Group_1_3_" class="st12" d="M15.8,31.4l0.1,3.7c8,2,18.5,1.7,26.7,1.7c2.7-0.1,5-1.1,5-3c0-2-0.7-2.6-1.7-3.3
		c-2.5-1.7-6-1.1-9.2-0.3C29.6,31.5,22.5,31.4,15.8,31.4z"/>
	<path class="st5" d="M11.6,34.3c0,0-0.2,0.1-0.9,0.1c-0.7-0.1-0.9-0.1-0.9-0.1s-0.1,0.2-0.4,0.3c0.5-0.1,0.7,0,1,0.1
		c0.2,0.1,0.6,0.5,0,0.8C10.9,35.4,11.3,34.9,11.6,34.3z"/>
</g>
</svg>
