<?xml version="1.0" encoding="utf-8"?>
<!-- Generator: Adobe Illustrator 24.1.0, SVG Export Plug-In . SVG Version: 6.00 Build 0)  -->
<svg version="1.1" id="ID01" xmlns="http://www.w3.org/2000/svg" xmlns:xlink="http://www.w3.org/1999/xlink" x="0px" y="0px"
	 viewBox="0 0 56 56" style="enable-background:new 0 0 56 56;" xml:space="preserve">
<style type="text/css">
	.st0{fill:#CFE2FC;}
	.st1{fill:#D6EAFF;}
	.st2{fill:#FFFFFF;}
	.st3{fill:#A5C3E5;}
	.st4{fill:#8CB2D7;}
	.st5{fill:#B6C8E7;}
	.st6{fill:#A9BDDF;}
	.st7{fill:#ACCEFB;}
	.st8{fill:#F3F2F9;}
	.st9{fill:#FFC6A0;}
	.st10{fill:#FFB496;}
	.st11{fill:#7F6665;}
	.st12{fill:none;stroke:#7F6665;stroke-width:0.1329;stroke-linecap:round;stroke-miterlimit:10;}
	.st13{fill:none;stroke:#7F6665;stroke-width:0.1064;stroke-linecap:round;stroke-miterlimit:10;}
	.st14{fill:none;stroke:#64244D;stroke-width:0.1152;stroke-linecap:round;stroke-miterlimit:10;}
	.st15{fill:#F9AC91;}
	.st16{fill:none;stroke:#FFB496;stroke-width:9.457284e-02;stroke-linecap:round;stroke-miterlimit:10;}
	.st17{fill:#93C3EA;}
	.st18{fill:#ADBDDC;}
	.st19{fill:#B9C8E3;}
</style>
<path class="st0" d="M53,56H3c-1.6,0-3-1.3-3-3V3c0-1.6,1.3-3,3-3h50c1.6,0,3,1.3,3,3v50C56,54.7,54.7,56,53,56z"/>
<g>
	<g>
		<rect x="22.2" y="24.6" class="st1" width="4.9" height="6"/>
		<path class="st1" d="M22.2,23.9h4.9v-7l0,0c-2.7,0-4.9,1.9-4.9,4.2L22.2,23.9L22.2,23.9z"/>
		<rect x="28" y="24.6" class="st1" width="4.9" height="6"/>
		<path class="st1" d="M28,16.9v7h4.9v-2.8C32.9,18.8,30.7,16.9,28,16.9L28,16.9z"/>
		<g>
			<path class="st2" d="M30.7,20.5c-0.5,0-0.9-0.3-0.9-0.7s0.3-0.8,0.8-0.8c0.1,0,0.1,0,0.2,0c-0.2-0.2-0.5-0.2-0.8-0.2
				c-0.7,0-1.2,0.5-1.1,1.1c0,0.6,0.6,1,1.3,0.9c0.3,0,0.6-0.1,0.8-0.3C30.9,20.5,30.8,20.5,30.7,20.5z"/>
			<g>
				<path class="st2" d="M23.9,26l-0.1,0.2c0,0.1-0.1,0.1-0.2,0.1l-0.2,0.1c0,0,0,0,0,0l0.2,0.1c0.1,0,0.1,0.1,0.2,0.1l0.1,0.2
					c0,0,0,0,0,0l0.1-0.2c0-0.1,0.1-0.1,0.2-0.1l0.2-0.1c0,0,0,0,0,0l-0.2-0.1c-0.1,0-0.1-0.1-0.2-0.1L23.9,26
					C23.9,26,23.9,26,23.9,26z"/>
			</g>
			<g>
				<path class="st2" d="M25.3,28.5L25.3,28.5c-0.1,0.1-0.1,0.1-0.1,0.2l-0.1,0.1c0,0,0,0,0,0l0.1,0.1c0,0,0.1,0,0.1,0.1l0.1,0.1
					c0,0,0,0,0,0l0.1-0.1c0,0,0-0.1,0.1-0.1l0.1-0.1c0,0,0,0,0,0l-0.1-0.1C25.5,28.7,25.4,28.7,25.3,28.5L25.3,28.5
					C25.3,28.5,25.3,28.5,25.3,28.5z"/>
			</g>
			<g>
				<path class="st2" d="M31.4,25.3L31.4,25.3c-0.1,0.1-0.1,0.1-0.1,0.2l-0.1,0.1c0,0,0,0,0,0l0.1,0.1c0,0,0.1,0,0.1,0.1l0.1,0.1
					c0,0,0,0,0,0l0.1-0.1c0,0,0-0.1,0.1-0.1l0.1-0.1c0,0,0,0,0,0l-0.1-0.1C31.6,25.5,31.5,25.5,31.4,25.3L31.4,25.3
					C31.4,25.3,31.4,25.3,31.4,25.3z"/>
			</g>
		</g>
	</g>
	<g>
		<g>
			<path class="st3" d="M18.3,38l-1.9-6.7c-0.1-0.5-0.5-0.8-1-0.8H8.5l3.3,9h34.3V38L18.3,38L18.3,38z"/>
			<path class="st3" d="M51.3,39.5h-5.2V38h4.8c0.2,0,0.4,0.2,0.4,0.4V39.5z"/>
			<path class="st4" d="M11.2,37.5l-1.7-6.2c-0.1-0.5-0.5-0.8-1-0.8l0,0c-1.3,0-2.3,1.1-2.2,2.3l0.8,6.7h39V38H11.9
				C11.7,38,11.3,37.8,11.2,37.5z"/>
			<path class="st5" d="M49.3,34.4H18.2v3c0,0.3,0.3,0.6,0.6,0.6h30.8c0.3,0,0.6-0.3,0.6-0.6v-2.1C50.1,34.8,49.7,34.4,49.3,34.4z"
				/>
			<path class="st6" d="M45,34.3H11.9c-0.3,0-0.6,0.3-0.6,0.6v2.5c0,0.3,0.3,0.6,0.6,0.6H45L45,34.3L45,34.3z"/>
			<path class="st7" d="M15.9,32.3c-1.5,0-1.5,0-1.5,0s-1.2,0-2.6,0c0,0-0.1,0-0.1,0c-1.6,0.1-1.6,2.1,0,2.1c0,0,0.1,0,0.1,0
				c1.5,0,2.6,0,2.6,0s0,0,1.5,0s1.9-1.1,1.9-1.1S17.4,32.3,15.9,32.3z"/>
			<path class="st8" d="M11.4,30.7c3.3-1.2,5.5-0.6,7.4,0.5c1.1,0.7,2.3,1.8,2.3,3.2c0,0-2.2,0-5.4,0S11.4,30.7,11.4,30.7z"/>
			<path class="st1" d="M15.7,34.4c0.1,0,4,0,4.1,0c-1.8-0.3-3.4-1.1-4.8-1.1c-1.1-1.1-3.6-2.6-3.6-2.6c0.1,0.4,0.3,0.7,0.4,1
				C12.4,32.8,13.6,34.4,15.7,34.4z"/>
			<g>
				<path class="st9" d="M22,31l-1-0.2l-0.1,1.6l0.9,0.1l0,0c0.3,0.1,0.5-0.1,0.6-0.4l0.1-0.6C22.5,31.3,22.3,31.1,22,31z"/>
				<path class="st10" d="M21,30.9l-0.1,1.6l0.7,0.1c0-0.1,0-0.1,0.1-0.2c0.1-0.5,0.1-1-0.2-1.4L21,30.9z"/>
				<path class="st9" d="M21.3,32.2c0.3-1.1-0.3-2.3-2.5-2.9c-1.5-0.4-2.8,0.1-3,1.5c-0.1,0.4,0,0.8,0.2,1.2
					c0.1,0.3,0.3,0.6,0.6,0.8c0.2,0.1,0.4,0.1,0.6,0.2c0.5,0.1,0.9,0.3,1.4,0.4c0.5,0.2,1,0.3,1.5,0.2C20.8,33.5,21.1,33,21.3,32.2z
					"/>
				<path class="st11" d="M17.1,33c-0.2-0.1-0.4-0.3-0.6-0.5c0,0-0.1-0.1-0.1-0.1c0.1-0.1,0.2-0.3,0.3-0.5c0-0.1,0.1-0.2,0.1-0.3
					c0.1-0.6,0.9-1.1,0.8-1.7l0.3,0.2c0.5-0.1,1-0.1,1.5,0c0.1,0,0.2,0,0.3,0l0.2-0.2l0.4,0.1c-0.4-1.4-1.1-1.3-2.5-1.3
					c-0.4,0-0.6,0-1.2,0.3c-0.6,0.3-0.8,0.8-0.9,1.7c-0.6,0.6-0.4,1.6,0.4,1.7c0.1,0,0.1,0,0.2,0l0,0C16.4,32.8,16.7,32.9,17.1,33z"
					/>
				<path class="st10" d="M20.1,29.3c-0.3-0.2-0.7-0.4-1-0.1s0.1,0.7,0.1,0.7l1.2,0.3C20.5,29.9,20.4,29.5,20.1,29.3z"/>
				<path class="st12" d="M18,31.5c0-0.2,0.1-0.4,0.3-0.5"/>
				<path class="st13" d="M17.6,32.3c-0.2,0.2-0.2,0.5-0.1,0.7"/>
				<path class="st14" d="M18.3,32.7c0,0.1,0,0.2-0.1,0.3"/>
				<path class="st14" d="M18.7,31.7c0.1-0.1,0.1-0.2,0.1-0.3"/>
				<path class="st15" d="M20,32C20,32,19.9,32,20,32c-0.1,0.1-0.1,0.1-0.1,0.2c0,0.1,0,0.2-0.1,0.3c0,0.1-0.1,0.2-0.1,0.3
					c0,0.1-0.1,0.1-0.1,0.2c0,0,0,0.1,0,0c0.1,0,0.1-0.1,0.1-0.1c0.1-0.1,0.1-0.2,0.1-0.3s0-0.2,0-0.3C20,32.1,20,32.1,20,32z"/>
				<path class="st16" d="M18.9,32.2c0.1,0.1,0.1,0.3,0.1,0.4c0,0,0,0.1,0.1,0.1c0.1,0,0.1-0.1,0.1-0.1c0-0.1,0-0.1,0.1-0.2
					c0,0,0-0.1,0-0.1c0-0.1,0-0.2-0.1-0.2"/>
			</g>
			<path class="st8" d="M19.8,34.4l0.9-2c1.1-2.5,4-3.9,6.6-3.1l1.8,0.5c2.4,0.7,5,1.1,7.5,1l2.8-0.1c4.8,0,7.1,1.4,7.1,3.6
				L19.8,34.4z"/>
			<path class="st1" d="M19.8,34.4l26.8,0c0-0.2,0-0.4-0.1-0.6l0,0c-1.4-0.5-2.8-0.7-4.3-0.6l-8.7,0.6c-0.8,0.1-1.6,0-2.3-0.1
				l-4.7-0.8c-1.8-0.3-3.6-0.1-5.2,0.5L20,33.9L19.8,34.4z"/>
		</g>
		<path class="st17" d="M52.1,40h-49c-0.1,0-0.3-0.1-0.3-0.3l0,0c0-0.1,0.1-0.3,0.3-0.3h49c0.1,0,0.3,0.1,0.3,0.3l0,0
			C52.3,39.9,52.2,40,52.1,40z"/>
		<path class="st18" d="M5.4,32.7v6.8h4.3v-7.4H6C5.6,32.1,5.4,32.3,5.4,32.7z"/>
		<path class="st19" d="M9.7,32.1v7.4h3.9v-6.8c0-0.3-0.3-0.6-0.6-0.6L9.7,32.1L9.7,32.1z"/>
	</g>
</g>
</svg>
