<?xml version="1.0" encoding="utf-8"?>
<!-- Generator: Adobe Illustrator 24.2.1, SVG Export Plug-In . SVG Version: 6.00 Build 0)  -->
<svg version="1.1" id="Layer_1" xmlns="http://www.w3.org/2000/svg" xmlns:xlink="http://www.w3.org/1999/xlink" x="0px" y="0px"
	 viewBox="0 0 56 56" style="enable-background:new 0 0 56 56;" xml:space="preserve">
<style type="text/css">
	.st0{fill:#CFE2FC;}
	.st1{fill:#EFF4F4;}
	.st2{clip-path:url(#SVGID_2_);}
	.st3{fill:#FFCC4D;}
	.st4{fill:#664500;}
	.st5{fill:#5DADEC;}
	.st6{fill:#BA7196;}
	.st7{fill:#BD86A2;}
	.st8{fill:#FEC9A7;}
	.st9{fill:#F9BEA0;}
	.st10{fill:#907A81;}
	.st11{fill:#F6B89C;}
	.st12{fill:#5C294B;}
	.st13{fill:#EFB097;}
	.st14{fill:none;stroke:#7B6766;stroke-width:0.1956;stroke-linecap:round;stroke-miterlimit:10;}
	.st15{fill:#FDD6C0;}
	.st16{fill:#8DA9B9;}
	.st17{fill:#6E95B1;}
	.st18{clip-path:url(#SVGID_4_);}
	.st19{fill:#F5F8FA;}
	.st20{fill:#E1E8ED;}
</style>
<path class="st0" d="M53,56H3c-1.6,0-3-1.3-3-3V3c0-1.6,1.3-3,3-3H53c1.6,0,3,1.3,3,3V53C56,54.7,54.7,56,53,56z"/>
<path class="st1" d="M9.4,14.3c-1.5-1.6-0.1-4.6,2.1-3.6c0.6-2.4,5.8-3.4,8.5-0.6c3.2,0.3,6.1,3.1,4.7,5.3c1.6,1.9,0,3.9-1.8,4.5
	c-0.9,1.6-1.1,2.3-2.6,2.7c-0.7,0.2-1.6,0.1-2.5-0.2c-0.2,0.7-0.7,1-1.5,1.1c0,0,0,0,0,0c-1.5,0.2-5.4-0.4-6.8-1.6
	C6,19.2,6.4,16.5,9.4,14.3z"/>
<g>
	<defs>
		<rect id="SVGID_1_" x="14" y="14.4" width="4.1" height="4.1"/>
	</defs>
	<clipPath id="SVGID_2_">
		<use xlink:href="#SVGID_1_"  style="overflow:visible;"/>
	</clipPath>
	<g class="st2">
		<path class="st3" d="M18.2,16.5c0,1.1-0.9,2.1-2.1,2.1c-1.1,0-2.1-0.9-2.1-2.1c0-1.1,0.9-2.1,2.1-2.1
			C17.2,14.4,18.2,15.4,18.2,16.5z"/>
		<path class="st4" d="M15.3,16.8c0.2,0,0.3-0.2,0.3-0.4c0-0.2-0.1-0.4-0.3-0.4c-0.2,0-0.3,0.2-0.3,0.4
			C15.1,16.6,15.2,16.8,15.3,16.8z"/>
		<path class="st4" d="M16.8,16.8c0.2,0,0.3-0.2,0.3-0.4c0-0.2-0.1-0.4-0.3-0.4s-0.3,0.2-0.3,0.4C16.5,16.6,16.7,16.8,16.8,16.8z"/>
		<path class="st4" d="M14.7,16C14.7,16,14.7,16,14.7,16c-0.1-0.1-0.1-0.1-0.1-0.2c0.4-0.5,0.9-0.5,0.9-0.5c0.1,0,0.1,0.1,0.1,0.1
			s-0.1,0.1-0.1,0.1C15.5,15.5,15.1,15.5,14.7,16C14.8,16,14.7,16,14.7,16z M17.5,16C17.4,16,17.4,16,17.5,16
			c-0.4-0.4-0.8-0.5-0.8-0.5c-0.1,0-0.1-0.1-0.1-0.1c0-0.1,0.1-0.1,0.1-0.1c0,0,0.5,0,0.9,0.5C17.6,15.9,17.6,15.9,17.5,16
			C17.5,16,17.5,16,17.5,16L17.5,16z M16.7,17.7c0,0-0.1-0.5-0.6-0.5c-0.5,0-0.6,0.5-0.6,0.5c0,0,0,0,0,0.1c0,0,0,0,0.1,0
			c0,0,0.1-0.1,0.5-0.1C16.5,17.7,16.6,17.7,16.7,17.7C16.6,17.8,16.7,17.8,16.7,17.7C16.7,17.8,16.7,17.8,16.7,17.7
			C16.7,17.7,16.7,17.7,16.7,17.7L16.7,17.7z"/>
		<path class="st5" d="M15.9,18c0,0.3-0.3,0.6-0.6,0.6c-0.3,0-0.6-0.3-0.6-0.6s0.5-1.1,0.6-1.1C15.4,16.8,15.9,17.7,15.9,18z"/>
	</g>
</g>
<path class="st6" d="M34.7,38.7c-0.5-1.3-2-1.6-2.6-1.6c-0.3,0-0.9,0.3-1,0.5c-0.6,1.1,0.2,5.1,1.7,8.9c0.4-0.1,1,0.2,1.6,0.5
	c0.8,0.4,1.7-0.2,1.6-1.1C35.7,43.4,35.2,40,34.7,38.7z"/>
<path class="st7" d="M34.1,49.7c-0.6-4.4-0.5-4-0.5-4c0-3.2,0.5-6.2-0.2-8.3c-3.4-1.5-6.6-1.6-9.6,0.4l-0.4,8.1l-0.6,3.8h5.8H34.1z"
	/>
<path class="st6" d="M33.6,44.5c0-0.2,0-0.4,0-0.6c-0.9,0-1.9,0.1-2.8,0.2c-0.5,0.1-1.1,0.2-1.6,0.2c-0.6,0-1.1-0.1-1.7-0.2
	c-0.6-0.1-1.2-0.3-1.8-0.4c-0.1,0-0.3-0.1-0.4-0.2c-0.1-0.1-0.1-0.2-0.2-0.3c-0.3-1.2-0.2-2.5-0.2-3.7c0-0.6,0-1.2-0.1-1.8
	c-0.4,0.4-0.9,0.8-1.2,1.2l-0.3,5.8l-0.6,5.1h11.4C33.6,45.4,33.6,44.5,33.6,44.5z"/>
<path class="st7" d="M25.1,37.4c-0.4-0.2-0.9,0-1.4,0.3c-0.8,0.5-1.4,1.4-1.8,2.3c-0.5,1.2-1.4,6.2-1.7,7.3
	c-0.2,0.9,2.3,0.7,3.4,0.7c0.7-1.6,2.4-7.2,2.5-8.4C26.1,38.6,26,37.9,25.1,37.4z"/>
<path class="st8" d="M28.6,38.6c-0.9,0-1.5-0.7-1.5-1.5v-2.3h3.1v2.3C30.2,37.9,29.5,38.6,28.6,38.6z"/>
<path class="st9" d="M27.1,34.9l3.1-0.2v2.6C29.7,36.9,27.1,36.9,27.1,34.9z"/>
<path class="st9" d="M31.6,46.2c-0.8,0.3-1.7,0.8-2.5,0.5l-5.3-0.2c0,0-1.1,0.1-2.3,0.1c0,0-1.2-0.2-0.9-1.2c0.1-1.5,2.5-1,4.9-0.6
	L31.6,46.2z"/>
<path class="st10" d="M32.3,30.7c-0.2,0.8-0.7,1.2-1.1,1.9h-5.7c-0.3-0.5-0.6-1-0.8-1.5c-1-2.1-1.3-5.6,3-5.6l1.5,0
	C32.4,25.5,32.8,28.7,32.3,30.7z"/>
<path class="st11" d="M33,31.9c0.3-0.6,0.4-1.5-0.3-1.8c-0.7-0.3-1.2,0.6-1.2,0.6l0.1,2.3C32,32.9,32.7,32.5,33,31.9z"/>
<path class="st11" d="M23.8,32.1c-0.3-0.6-0.5-1.5,0.2-1.8c0.6-0.4,1.2,0.5,1.2,0.5l0.1,2.3C24.8,33.1,24.1,32.7,23.8,32.1z"/>
<path class="st8" d="M32.4,31.9c0,2.9-0.8,4.3-3.9,4.3c-3.2,0-3.9-1.9-3.9-4.3c0-4.2,0.8-6.1,3.9-6.1C31.6,25.9,32.4,28,32.4,31.9z"
	/>
<path class="st12" d="M27.4,32.8c0,0.1-0.1,0.2-0.2,0.2c-0.1,0-0.3-0.2-0.2-0.4c0-0.2,0.2-0.3,0.3-0.2
	C27.3,32.5,27.4,32.7,27.4,32.8z"/>
<path class="st12" d="M29.7,32.8c0,0.1,0.1,0.2,0.2,0.2c0.1,0,0.3-0.2,0.2-0.4c0-0.2-0.2-0.3-0.3-0.2C29.8,32.5,29.7,32.7,29.7,32.8
	z"/>
<path class="st13" d="M29.5,34.8c0.1,0,0,0.1,0,0.1c-0.1,0-0.2,0-0.3-0.1c-0.2,0-0.4-0.1-0.6-0.1c-0.2,0-0.4,0-0.6,0.1
	c-0.1,0-0.2,0.1-0.4,0.1c-0.1,0-0.1-0.1,0-0.1c0.1-0.1,0.2-0.1,0.4-0.2c0.2-0.1,0.5-0.1,0.7-0.1c0.2,0,0.4,0.1,0.6,0.1
	C29.3,34.7,29.4,34.7,29.5,34.8z"/>
<path class="st14" d="M27.5,31.4c-0.4-0.1-0.8,0-1.1,0.2"/>
<path class="st15" d="M28.6,34c-0.1,0-0.3,0-0.4-0.1c-0.1-0.1,0-0.2,0-0.3c0.1-0.1,0.4-0.1,0.4,0C28.8,33.6,28.9,33.9,28.6,34z"/>
<path class="st14" d="M29.5,31.9c0.4-0.1,0.9-0.1,1.1,0.1"/>
<path class="st10" d="M28.4,25.6c-4,0-3.9,2.1-3.9,6.2c0.3-0.3,0.4-0.8,0.4-1.3c0-0.1,0-0.2,0-0.4c0-0.2,0.1-0.4,0.2-0.5
	c0.2-0.1,0.3-0.2,0.4-0.4c0.4,0.1,0.7,0.3,1.2,0.4c0.4,0.1,0.8,0.2,1.3,0c0.2-0.1,0.4-0.2,0.6-0.2c0.3-0.1,0.5,0,0.8,0
	c0.6,0.1,1.2,0.2,1.8,0.1c0.1,0,0.2-0.1,0.3-0.1c0.1,0.1,0.1,0.1,0.2,0.2c0.2,0.1,0.2,0.3,0.2,0.5c0,0.1,0,0.2,0,0.4
	c0,0.6,0.2,1,0.5,1.4C32.4,28,32.5,25.6,28.4,25.6z"/>
<path class="st16" d="M29.5,44.3c-0.1-2.8-0.3-6.3-0.8-6.3c-0.5,0-0.8,3.3-0.9,6.2c0.5,0.1,0.9,0.2,1.4,0.2
	C29.3,44.3,29.4,44.3,29.5,44.3z"/>
<path class="st17" d="M29.6,48c0,0,0-1.7-0.1-3.6c-0.1,0-0.2,0-0.3,0c-0.5,0-0.9-0.1-1.4-0.2c-0.1,2-0.1,3.8-0.1,3.8
	C28.7,51.3,29.6,48,29.6,48z"/>
<path class="st17" d="M29.2,38.1c0,0-0.3-0.1-0.5-0.1c-0.2,0-0.6,0.1-0.6,0.1s-0.4,1.3,0.6,1.3S29.2,38.1,29.2,38.1z"/>
<path class="st6" d="M28.9,38c0.9-0.4,1.3-0.8,1.3-1.9l0.9,0.5c-0.6,2.2-1.5,3-1.5,3L28.9,38z"/>
<path class="st6" d="M28.4,38c-1-0.3-1.4-0.7-1.3-1.9l-0.9,0.5c0.5,2.1,1.5,3,1.5,3L28.4,38z"/>
<path class="st8" d="M36,45.3c-0.1-1.5-2.5-1-4.9-0.6L27.9,45c-0.4-0.1-0.7-0.2-1.1-0.2l-0.2,0c-0.8,0.1-1.3,0.5-1.8,1.1
	c-0.1,0.1-0.1,0.1-0.1,0.2c0,0.2,0.2,0.3,0.3,0.4c0.8,0.3,1.7,0.4,2.5,0.1l5.3-0.2c0,0,1.1,0.1,2.3,0.1C35.1,46.6,36.3,46.3,36,45.3
	z"/>
<path class="st1" d="M37.1,8.7c0.5-1.9,4.4-2.4,4.9-0.3c2.8-0.8,5.9,0.9,4.9,4.4c1.9,2.5,1.2,6.1-2,6.2c-0.8,2.1-3.8,2-5.7,1
	c-2.2,0.1-3,0.3-4.5-0.5c-0.7-0.4-1.3-1.2-1.6-2c-0.8,0.2-1.5,0-2.1-0.6c0,0,0,0,0,0c-1.2-1-1.8-2.6-1.6-4.2C30,8.6,33,7.5,37.1,8.7
	z"/>
<g>
	<defs>
		<rect id="SVGID_3_" x="37.2" y="11.5" width="4.1" height="4.1"/>
	</defs>
	<clipPath id="SVGID_4_">
		<use xlink:href="#SVGID_3_"  style="overflow:visible;"/>
	</clipPath>
	<g class="st18">
		<path class="st3" d="M41.3,13.6c0,1.1-0.9,2.1-2.1,2.1c-1.1,0-2.1-0.9-2.1-2.1c0-1.1,0.9-2.1,2.1-2.1
			C40.4,11.5,41.3,12.5,41.3,13.6z"/>
		<path class="st4" d="M39.5,13C39.5,13,39.4,13,39.5,13c-0.1,0-0.1-0.1-0.1-0.1c0-0.3,0.3-0.8,0.9-0.8c0.1,0,0.1,0.1,0.1,0.1
			c0,0.1-0.1,0.1-0.1,0.1c-0.6,0-0.7,0.6-0.7,0.6C39.6,13,39.5,13,39.5,13z M39,13c-0.1,0-0.1,0-0.1-0.1c0,0-0.1-0.6-0.7-0.6
			c-0.1,0-0.1-0.1-0.1-0.1c0-0.1,0.1-0.1,0.1-0.1c0.6,0,0.9,0.5,0.9,0.8C39.1,13,39.1,13,39,13C39,13,39,13,39,13z M38.5,13.6
			c-0.3,0-0.4-0.1-0.5-0.1c-0.1,0-0.1-0.1,0-0.2c0-0.1,0.1-0.1,0.2,0c0,0,0.3,0.2,0.7,0c0.1,0,0.1,0,0.2,0.1c0,0.1,0,0.1-0.1,0.2
			C38.8,13.6,38.6,13.6,38.5,13.6L38.5,13.6z M40,13.6c-0.1,0-0.3,0-0.5-0.1c-0.1,0-0.1-0.1-0.1-0.2c0-0.1,0.1-0.1,0.2-0.1
			c0.4,0.2,0.7,0,0.7,0c0.1,0,0.1,0,0.2,0c0,0.1,0,0.1,0,0.2C40.4,13.5,40.3,13.6,40,13.6L40,13.6z M40.1,14.6
			C40.1,14.6,40.1,14.6,40.1,14.6c-0.1,0-0.4-0.5-0.9-0.5c-0.5,0-0.8,0.4-0.8,0.4c0,0.1-0.1,0.1-0.2,0c-0.1,0-0.1-0.1,0-0.2
			c0,0,0.4-0.5,1-0.5s1,0.5,1,0.5C40.3,14.5,40.3,14.6,40.1,14.6C40.2,14.6,40.2,14.6,40.1,14.6L40.1,14.6z"/>
		<path class="st19" d="M38.9,13.9c-0.1,0-0.1,0-0.1,0l-0.6,0.9c0,0,0,0.1,0,0.1c0,0,0.1,0.1,0.1,0.1h0.3c0.1,0,0.1,0,0.1-0.1L39,14
			C39,13.9,39,13.9,38.9,13.9L38.9,13.9z M40.2,14.8l-0.6-0.9c0,0-0.1-0.1-0.1,0c-0.1,0-0.1,0.1-0.1,0.1l0.2,0.9
			c0,0.1,0.1,0.1,0.1,0.1h0.3c0,0,0.1,0,0.1-0.1C40.3,14.9,40.3,14.8,40.2,14.8L40.2,14.8z"/>
		<path class="st20" d="M40.8,15C40.8,15,40.8,15,40.8,15c0-0.2-0.2-0.4-0.3-0.4c-0.1,0-0.2,0.1-0.3,0.1c-0.1,0-0.1,0-0.2,0
			c-0.3,0-0.5,0.2-0.5,0.5c0,0.3,0.2,0.5,0.5,0.5c0.2,0,0.3-0.1,0.4-0.2c0.1,0.1,0.2,0.2,0.3,0.2c0.2,0,0.3-0.2,0.3-0.3
			C41.1,15.2,41,15.1,40.8,15z M38.4,14.8c-0.1,0-0.1,0-0.2,0c-0.1-0.1-0.2-0.1-0.3-0.1c-0.2,0-0.3,0.2-0.3,0.3c0,0,0,0,0,0
			c-0.1,0-0.2,0.2-0.2,0.3c0,0.2,0.2,0.3,0.3,0.3c0.1,0,0.3-0.1,0.3-0.2c0.1,0.1,0.2,0.2,0.4,0.2c0.3,0,0.5-0.2,0.5-0.5
			C38.9,15,38.7,14.8,38.4,14.8z"/>
	</g>
</g>
<path class="st1" d="M29.5,22.1c0-0.4,0.4-0.7,0.9-0.7c0.5,0,0.8,0.4,0.8,0.8c0,0.4-0.4,0.6-0.9,0.6C29.9,22.8,29.5,22.5,29.5,22.1z
	"/>
<path class="st1" d="M30.8,19.2c0.1-0.5,0.7-0.9,1.4-0.8c0.7,0.1,1.1,0.8,1.1,1.3c-0.1,0.5-0.7,0.8-1.3,0.7
	C31.2,20.3,30.7,19.8,30.8,19.2z"/>
<path class="st1" d="M23.6,21.9c-0.2-0.5,0.1-1.1,0.8-1.4c0.6-0.3,1.4,0.1,1.6,0.6c0.2,0.5-0.2,1-0.8,1.2
	C24.5,22.6,23.8,22.4,23.6,21.9z"/>
<path class="st1" d="M27,24.2c-0.1-0.3,0.1-0.6,0.4-0.8c0.4-0.1,0.8,0.1,0.9,0.3c0.1,0.3-0.1,0.5-0.5,0.7
	C27.5,24.6,27.1,24.5,27,24.2z"/>
<path class="st6" d="M20.6,45.3c0.1-0.7,1.5-0.8,1.5-0.8c0.2,0,0.3,0,0.5,0c0.2,0,0.6,0.1,0.9,0.1c0.4,0.1,0.7,0.2,1.1,0.2
	c0,0,0.2,0,0.2,0c0,0,0,0,0,0c0.1-0.2,0.1-0.3,0.2-0.5c-0.9,0-2.1-0.2-3-0.5c-0.1,0-0.2-0.1-0.3,0c-0.1,0-0.1,0.1-0.1,0.1
	c-0.1,0.2-0.2,0.4-0.3,0.7c0-0.1-0.1-0.3-0.1-0.4c-0.1-0.1-0.1-0.3-0.3-0.3c-0.1,0-0.1,0.1-0.2,0.1c-0.2,0.2-0.4,0.3-0.5,0.5
	c-0.1,0.2-0.1,0.5,0.1,0.7"/>
</svg>
