<?xml version="1.0" encoding="utf-8"?>
<!-- Generator: Adobe Illustrator 24.2.1, SVG Export Plug-In . SVG Version: 6.00 Build 0)  -->
<svg version="1.1" id="Layer_1" xmlns="http://www.w3.org/2000/svg" xmlns:xlink="http://www.w3.org/1999/xlink" x="0px" y="0px"
	 viewBox="0 0 56 56" style="enable-background:new 0 0 56 56;" xml:space="preserve">
<style type="text/css">
	.st0{fill:#CFE2FC;}
	.st1{fill:#FEC9A7;}
	.st2{fill:#D3EBEE;}
	.st3{fill:#DF6D77;}
	.st4{fill:#A6C0D1;}
	.st5{fill:#729DB2;}
	.st6{fill:#CC5676;}
	.st7{fill:#CA9A7A;}
	.st8{fill:#B2856D;}
	.st9{fill:#F6B89C;}
	.st10{fill:#8B6462;}
	.st11{fill:#685265;}
</style>
<path class="st0" d="M53.05,56H2.95C1.32,56,0,54.68,0,53.05V2.95C0,1.32,1.32,0,2.95,0h50.1C54.68,0,56,1.32,56,2.95v50.1
	C56,54.68,54.68,56,53.05,56z"/>
<path class="st1" d="M28.57,32.92c0.08-0.1,0.09-0.25,0.05-0.37c-0.04-0.12-0.12-0.23-0.2-0.33c-0.21-0.25-0.46-0.46-0.7-0.67
	c-0.06-0.06-0.13-0.13-0.12-0.21c0.01-0.08,0.08-0.14,0.14-0.2c0.07-0.06,0.14-0.14,0.19-0.21c0.07-0.09,0.12-0.19,0.08-0.3
	c-0.03-0.07-0.09-0.12-0.16-0.16c-0.06-0.04-0.12-0.08-0.18-0.07c-0.07,0.01-0.12,0.06-0.17,0.11c-0.14,0.17-0.27,0.35-0.43,0.52
	c-0.12,0.12-0.25,0.24-0.4,0.32c-0.09,0.01-0.18,0.03-0.27,0.04l-1.82,0.42l-2.63,0.33c-0.17,0.05-0.36-0.02-0.46-0.17l-1.47-3.58
	l-2.16-0.26c0.07,0.99,1.99,6.88,2.97,6.64c0.98-0.24,3.1-1.07,3.1-1.07l2.29-0.7c0.11,0.15,0.22,0.28,0.36,0.39
	c0.26,0.2,0.61,0.3,0.91,0.18c0.15-0.06,0.28-0.17,0.39-0.29c0.1-0.12,0.22-0.28,0.38-0.28c0.07,0,0.15,0.03,0.22,0
	C28.52,32.97,28.55,32.95,28.57,32.92z"/>
<path class="st2" d="M9.86,35.97c0.05,0.25-0.17,0.52-0.5,0.59c-0.33,0.07-0.65-0.08-0.7-0.34c-0.05-0.25,0.17-0.52,0.5-0.59
	C9.49,35.56,9.81,35.71,9.86,35.97z"/>
<path class="st3" d="M47.15,40.32C46.68,36.66,46.1,32,46.1,32c0.03-2.64,0.4-5.21-0.13-6.95c-2.8-1.23-5.45-1.31-7.92,0.3
	l-0.37,6.78l-1.23,8.19L47.15,40.32L47.15,40.32z"/>
<path class="st3" d="M39.18,25.06c-0.26-0.2-1.01-0.1-1.39,0.11c-0.64,0.35-0.9,0.98-1.26,1.69c-0.39,0.77-1.66,3-2.15,4.53
	c-0.14,0.43,2.29,1.32,2.57,0.66c0.78-1.84,2-4.4,2.17-5.1c0.14-0.82,0.63-1.29,0.04-1.74"/>
<path class="st1" d="M42.02,26.02c-0.7,0-1.27-0.57-1.27-1.27v-1.94h2.54v1.94C43.29,25.45,42.73,26.02,42.02,26.02z"/>
<path class="st4" d="M41.25,35.18c0,0,0.07-9.65,0.79-9.65s0.76,9.68,0.76,9.68S42.1,38.51,41.25,35.18z"/>
<path class="st5" d="M42.48,25.63c0,0-0.27-0.1-0.43-0.1c-0.16,0-0.51,0.1-0.51,0.1s-0.33,1.12,0.47,1.12S42.48,25.63,42.48,25.63z"
	/>
<path class="st6" d="M42.24,25.53c0.75-0.36,1.08-0.66,1.04-1.6l0.75,0.42c-0.47,1.84-1.23,2.55-1.23,2.55L42.24,25.53z"/>
<path class="st6" d="M41.86,25.53c-0.8-0.27-1.13-0.61-1.08-1.56l-0.75,0.42c0.38,1.79,1.27,2.5,1.27,2.5L41.86,25.53z"/>
<path class="st7" d="M45.62,15.62c0.82,0.79,1.25,1.89,1.22,3.03c-0.01,0.43-0.01,0.82,0,0.99c0.03,0.39,0.12,0.79,0.05,1.17
	c-0.17,0.87-1.12,1.33-1.96,1.62c-0.68,0.24-1.37,0.45-2.07,0.65c-0.14,0.04-0.28,0.08-0.42,0.07c-0.2-0.01-0.37-0.11-0.55-0.21
	c-0.92-0.52-1.75-0.97-2.66-1.49c-0.7-0.4-1.1-1.17-1.02-1.97l-0.08-0.08c-0.58-0.58-1.04-1.47-0.67-2.21
	c0.12-0.25,0.33-0.45,0.39-0.72c0.06-0.24-0.01-0.49,0-0.73c0.02-0.49,0.35-0.92,0.77-1.18c0.42-0.26,0.9-0.38,1.38-0.49
	c0.16-0.03,0.31-0.07,0.47-0.07c0.39,0,0.74,0.22,1.11,0.33c0.37,0.11,0.75,0.13,1.14,0.12c1.08-0.02,2.12,0.4,2.9,1.15L45.62,15.62
	z"/>
<path class="st1" d="M41.25,24.59c1.91,0.02,3.53-1.35,3.58-4.9c0.03-2.45-1.41-4.25-3.64-3.96c-0.67,0.08-1.29,0.34-1.84,0.73
	c-0.46,0.32-0.81,0.75-1.03,1.25c-0.06,0.32-0.07,0.64-0.08,0.96c-0.03,0.77-0.07,1.54-0.1,2.31c-0.04,0.82-0.06,1.68,0.37,2.38
	c0.36,0.59,1.15,0.57,1.84,0.81C40.67,24.22,40.88,24.59,41.25,24.59z"/>
<path class="st7" d="M44.24,20.49c-0.76,0.11-0.92,1.3-1.66,1.52c-0.35,0.1-0.71-0.05-1.06-0.15c-1.12-0.33-2.38-0.14-3.37,0.49
	c0.05,0.35,0.15,0.7,0.34,1c0.49,0.8,1.45,1.27,2.38,1.25c0.92-0.02,1.76-0.13,2.48-0.74c0.73-0.62,1.11-1.55,1.3-2.47
	C44.66,21.02,44.58,20.61,44.24,20.49z"/>
<path class="st7" d="M44.42,22.18c2.09-1.22,1.62-2.26,0.95-4.25c-0.2-0.59-0.17-0.91-0.94-1.76c-0.76-0.85-1.62-0.96-3.11-0.72
	c-1.23-0.6-2.67-0.04-2.62,1.25c0,0.1,0.02,0.2,0.07,0.29c-0.55,0.18-0.84,0.74-0.65,1.27c0.03,0.08,0.13,0.16,0.13,0.24
	c0.15-0.36,0.33-0.72,0.55-1.05c0.05-0.08,0.11-0.17,0.16-0.25c0.19,0.14,0.51,0.24,1,0.27c0.15,0.01,0.4,0.01,0.54-0.01
	c1.06-0.13,2.12,0.92,3.1,0.48l-0.25,0.58c0.44,0.68,0.66,1.49,0.6,2.29c-0.01,0.14,0.05,0.27,0.17,0.37l0.35,0.3L44.42,22.18z"/>
<path class="st1" d="M45.41,20.84c0.28-0.5,0.37-1.29-0.21-1.58c-0.58-0.29-1.05,0.5-1.05,0.5l0.02,1.98
	C44.56,21.73,45.13,21.33,45.41,20.84z"/>
<path class="st8" d="M39.66,19.19c-0.22-0.12-0.46-0.14-0.68-0.1c-0.22,0.04-0.42,0.14-0.56,0.24l0.12,0.15
	c0.12-0.09,0.29-0.17,0.48-0.21c0.19-0.03,0.39-0.02,0.55,0.07L39.66,19.19z M38.42,19.34c-0.04,0.03-0.05,0.09-0.02,0.13
	c0.03,0.04,0.09,0.05,0.13,0.02L38.42,19.34z M39.57,19.35c0.05,0.03,0.1,0.01,0.13-0.04c0.03-0.05,0.01-0.1-0.04-0.13L39.57,19.35z
	"/>
<path class="st9" d="M40.19,21.62c0.15-0.02,0.3-0.09,0.4-0.21l-0.12-0.1c-0.07,0.09-0.18,0.14-0.31,0.16L40.19,21.62z M40.03,21.63
	c0.05,0,0.11,0,0.17-0.01l-0.03-0.15c-0.04,0.01-0.08,0.01-0.14,0.01V21.63z M39.74,21.59c0.09,0.02,0.18,0.03,0.28,0.04l0.02-0.15
	c-0.09-0.01-0.18-0.02-0.27-0.04L39.74,21.59z M39.43,21.37c0.02,0.08,0.08,0.14,0.13,0.17c0.06,0.03,0.12,0.05,0.18,0.06l0.03-0.15
	c-0.05-0.01-0.09-0.02-0.13-0.04c-0.04-0.02-0.05-0.04-0.06-0.07L39.43,21.37z M39.53,21.12c-0.07,0.05-0.12,0.14-0.1,0.24
	l0.15-0.03c-0.01-0.03,0.01-0.06,0.04-0.09L39.53,21.12z M40.14,20.78c-0.2,0.14-0.4,0.26-0.59,0.33l0.05,0.14
	c0.22-0.08,0.43-0.2,0.63-0.35L40.14,20.78z M40.59,21.41c0.03-0.03,0.02-0.08-0.01-0.11c-0.03-0.03-0.08-0.02-0.11,0.01
	L40.59,21.41z M40.18,21.55l-0.01-0.08l0,0L40.18,21.55z M40.03,21.56l-0.01,0.08h0.01V21.56z M39.76,21.51l0.02-0.07l0,0
	L39.76,21.51z M39.51,21.35l-0.07,0.02l0,0L39.51,21.35z M39.58,21.18l-0.03-0.07l-0.01,0l-0.01,0.01L39.58,21.18z M40.23,20.91
	c0.03-0.02,0.04-0.07,0.02-0.11s-0.07-0.04-0.11-0.02L40.23,20.91z"/>
<path class="st10" d="M41.31,20.5c0.01,0.14,0.09,0.25,0.18,0.23c0.12-0.01,0.23-0.21,0.2-0.44S41.52,20,41.41,20.1
	C41.34,20.19,41.29,20.36,41.31,20.5z"/>
<path class="st10" d="M39.32,20.41c0,0.14-0.07,0.25-0.17,0.25c-0.12,0-0.24-0.19-0.23-0.42s0.14-0.3,0.26-0.2
	C39.27,20.11,39.33,20.27,39.32,20.41z"/>
<path class="st8" d="M41.16,19.41c0.37-0.13,0.72,0,0.94,0.22l0.13-0.13c-0.26-0.27-0.69-0.42-1.14-0.27L41.16,19.41z M42.1,19.63
	c0.04,0.04,0.1,0.04,0.13,0c0.04-0.04,0.04-0.1,0-0.13L42.1,19.63z M41.1,19.23c-0.05,0.02-0.08,0.07-0.06,0.12s0.07,0.08,0.12,0.06
	L41.1,19.23z"/>
<path class="st11" d="M39.6,22.63c-0.05,0.02-0.03,0.09,0.02,0.09c0.1-0.01,0.2-0.02,0.3-0.03c0.18-0.02,0.35-0.03,0.53-0.03
	s0.34,0.01,0.51,0.05h0c0.09,0.02,0.14-0.12,0.05-0.15c0,0,0,0-0.01,0c-0.18-0.07-0.37-0.1-0.56-0.1s-0.38,0.03-0.56,0.08
	C39.8,22.56,39.7,22.59,39.6,22.63z"/>
<path class="st6" d="M34.32,31.52c0.17-0.55,1.12,0.12,1.12,0.12c0.15-0.01,0.23-0.15,0.37-0.11c0.19,0.04,0.21,0.04,0.39,0.11
	c0.3,0.12,0.5,0.15,0.58,0.44c0.08,0.29,0.04,0.29,0.27,0.2c0.13-0.05,0.17-0.49,0.24-0.61c-0.78-0.06-0.83-0.94-1.53-1.27
	c-0.08-0.04-0.17-0.08-0.25-0.05c-0.05,0.02-0.08,0.06-0.11,0.1c-0.13,0.16-0.25,0.33-0.34,0.52c-0.02-0.12-0.05-0.24-0.08-0.35
	c-0.03-0.13-0.08-0.28-0.22-0.29c-0.07,0-0.13,0.04-0.18,0.08c-0.16,0.11-0.33,0.24-0.43,0.41c-0.1,0.17-0.12,0.41,0,0.56"/>
<path class="st1" d="M34.3,32.62c0.05,1.04,0.59,3.12,0.59,3.12l0.73,3.44c0.08,0.14,0,0.31-0.08,0.45
	c-0.11,0.19-0.22,0.38-0.33,0.58c-0.06,0.09-0.11,0.2-0.1,0.31c0,0.02,0.01,0.04,0.03,0.06c0.01,0.01,0.03,0.01,0.04,0.01
	c0.14,0,0.25-0.11,0.34-0.21c0.11-0.12,0.25-0.19,0.36-0.32c0.01,0.05-0.01,0.11-0.03,0.16c-0.08,0.2-0.19,0.39-0.31,0.57
	c-0.02,0.03-0.05,0.08-0.03,0.11c0.01,0.02,0.03,0.04,0.05,0.04c0.07,0.02,0.15,0,0.21-0.05c0.06-0.05,0.1-0.11,0.14-0.17
	c0.15-0.21,0.3-0.38,0.47-0.58c0,0.22-0.15,0.4-0.24,0.6c-0.02,0.04-0.03,0.08-0.03,0.12c0,0.04,0.03,0.08,0.08,0.08
	c0.02,0,0.04-0.01,0.07-0.02c0,0,0.28-0.3,0.42-0.57c0.13-0.26,0.29-0.75,0.29-0.75c0.1-0.35,0.13-0.72,0.08-1.08l-0.27-1.93
	c0,0-0.24-2.2-0.05-3.33c0.28-1.32,0.19-1.7-1.08-2.03C34.37,30.91,34.1,31.33,34.3,32.62z"/>
<path class="st3" d="M45.17,24.95c0.27-0.19,1.01-0.06,1.39,0.17c0.63,0.38,0.86,1.02,1.18,1.75c0.35,0.78,1.52,3.07,1.94,4.62
	c0.12,0.44-2.35,1.21-2.6,0.54c-0.69-1.88-1.8-4.48-1.94-5.2c-0.1-0.83-0.57-1.32,0.04-1.74"/>
<path class="st6" d="M49.92,31.64c-0.14-0.56-1.12,0.07-1.12,0.07c-0.15-0.01-0.22-0.16-0.37-0.13c-0.19,0.04-0.21,0.03-0.4,0.09
	c-0.3,0.1-0.5,0.13-0.6,0.42c-0.1,0.29-0.05,0.29-0.28,0.18c-0.13-0.06-0.14-0.5-0.21-0.62c0.78-0.02,0.68-0.91,1.4-1.21
	c0.08-0.03,0.36-0.06,0.45-0.03c0.05,0.02,0.08,0.06,0.11,0.1c0.12,0.17,0.23,0.35,0.32,0.53c0.03-0.12,0.06-0.23,0.09-0.35
	c0.03-0.13,0.1-0.28,0.23-0.28c0.07,0,0.12,0.04,0.17,0.08c0.16,0.12,0.32,0.25,0.41,0.42c0.09,0.17,0.1,0.41-0.03,0.56"/>
<path class="st1" d="M49.7,32.73c-0.09,1.04-0.74,3.09-0.74,3.09l-0.88,3.41c-0.08,0.14-0.01,0.31,0.06,0.46
	c0.1,0.2,0.2,0.39,0.3,0.59c0.05,0.1,0.1,0.21,0.08,0.32c0,0.02-0.01,0.04-0.03,0.06c-0.01,0.01-0.03,0.01-0.04,0.01
	c-0.14,0-0.25-0.12-0.33-0.23c-0.1-0.13-0.24-0.2-0.34-0.33c-0.01,0.05,0,0.11,0.02,0.16c0.08,0.2,0.17,0.4,0.28,0.58
	c0.02,0.03,0.04,0.08,0.02,0.11c-0.01,0.02-0.03,0.03-0.06,0.04c-0.07,0.02-0.15,0-0.21-0.06c-0.06-0.05-0.09-0.11-0.13-0.17
	c-0.14-0.22-0.28-0.4-0.45-0.6c-0.01,0.22,0.13,0.41,0.21,0.61c0.01,0.04,0.03,0.08,0.02,0.12c0,0.04-0.04,0.08-0.08,0.08
	c-0.02,0-0.04-0.01-0.06-0.02c0,0-0.27-0.32-0.39-0.58c-0.12-0.27-0.26-0.76-0.26-0.76c-0.08-0.35-0.09-0.73-0.03-1.08l0.35-1.92
	c0,0,0.34-2.18,0.21-3.33c-0.22-1.33-0.11-1.7,1.17-1.98C49.72,31.02,49.96,31.44,49.7,32.73z"/>
<path class="st3" d="M19.09,40.37c-0.48-3.67-1.06-8.32-1.06-8.32c0.03-2.64,0.4-5.21-0.13-6.95c-2.8-1.23-5.45-1.31-7.92,0.3
	l-0.37,6.78l-1.23,8.19L19.09,40.37L19.09,40.37z"/>
<path class="st3" d="M11.12,25.1c-0.26-0.2-1.01-0.1-1.39,0.11c-0.64,0.35-0.9,0.98-1.26,1.69c-0.39,0.77-1.66,3-2.15,4.53
	c-0.14,0.43,2.29,1.32,2.57,0.66c0.78-1.84,2-4.4,2.17-5.1c0.14-0.82,0.63-1.29,0.04-1.74"/>
<path class="st1" d="M13.96,26.07c-0.7,0-1.27-0.57-1.27-1.27v-1.94h2.54v1.94C15.23,25.5,14.66,26.07,13.96,26.07z"/>
<path class="st4" d="M13.18,35.23c0,0,0.07-9.65,0.79-9.65s0.76,9.68,0.76,9.68S14.03,38.55,13.18,35.23z"/>
<path class="st5" d="M14.42,25.68c0,0-0.27-0.1-0.43-0.1c-0.16,0-0.51,0.1-0.51,0.1s-0.33,1.12,0.47,1.12
	C14.74,26.81,14.42,25.68,14.42,25.68z"/>
<path class="st6" d="M14.17,25.58c0.75-0.36,1.08-0.66,1.04-1.6l0.75,0.42c-0.47,1.84-1.23,2.55-1.23,2.55L14.17,25.58z"/>
<path class="st6" d="M13.8,25.58c-0.8-0.27-1.13-0.61-1.08-1.56l-0.75,0.42c0.38,1.79,1.27,2.5,1.27,2.5L13.8,25.58z"/>
<path class="st7" d="M10.55,15.67c-0.82,0.79-1.25,1.89-1.22,3.03c0.01,0.43,0.01,0.82,0,0.99c-0.03,0.39-0.12,0.79-0.05,1.17
	c0.17,0.87,1.12,1.33,1.96,1.62c0.68,0.24,1.37,0.45,2.07,0.65c0.14,0.04,0.28,0.08,0.42,0.07c0.2-0.01,0.37-0.11,0.55-0.21
	c0.92-0.52,1.75-0.97,2.66-1.49c0.7-0.4,1.1-1.17,1.02-1.97l0.08-0.08c0.58-0.58,1.04-1.47,0.67-2.21
	c-0.12-0.25-0.33-0.45-0.39-0.72c-0.06-0.24,0.01-0.49,0-0.73c-0.02-0.49-0.35-0.92-0.77-1.18c-0.42-0.26-0.9-0.38-1.38-0.49
	c-0.16-0.03-0.31-0.07-0.47-0.07c-0.39,0-0.74,0.22-1.11,0.33c-0.37,0.11-0.75,0.13-1.14,0.12c-1.08-0.02-2.12,0.4-2.9,1.15
	L10.55,15.67z"/>
<path class="st1" d="M14.91,24.64c-1.91,0.02-3.53-1.35-3.58-4.9c-0.03-2.45,1.41-4.25,3.64-3.96c0.67,0.08,1.29,0.34,1.84,0.73
	c0.46,0.32,0.81,0.75,1.03,1.25c0.06,0.32,0.07,0.64,0.08,0.96c0.03,0.77,0.07,1.54,0.1,2.31c0.04,0.82,0.06,1.68-0.37,2.38
	c-0.36,0.59-1.15,0.57-1.84,0.81C15.49,24.27,15.28,24.63,14.91,24.64z"/>
<path class="st7" d="M11.92,20.53c0.76,0.11,0.92,1.3,1.66,1.52c0.35,0.1,0.71-0.05,1.06-0.15c1.12-0.33,2.38-0.14,3.37,0.49
	c-0.05,0.35-0.15,0.7-0.34,1c-0.49,0.8-1.45,1.27-2.38,1.25c-0.92-0.02-1.76-0.13-2.48-0.74c-0.73-0.62-1.11-1.55-1.3-2.47
	C11.5,21.07,11.58,20.66,11.92,20.53z"/>
<path class="st7" d="M11.75,22.23c-2.09-1.22-1.62-2.26-0.95-4.25c0.2-0.59,0.17-0.91,0.94-1.76c0.76-0.85,1.62-0.96,3.11-0.72
	c1.23-0.6,2.67-0.04,2.62,1.25c0,0.1-0.02,0.2-0.07,0.29c0.55,0.18,0.84,0.74,0.65,1.27c-0.03,0.08-0.13,0.16-0.13,0.24
	c-0.15-0.36-0.33-0.72-0.55-1.05c-0.05-0.08-0.11-0.17-0.16-0.25c-0.19,0.14-0.51,0.24-1,0.27c-0.15,0.01-0.4,0.01-0.54-0.01
	c-1.06-0.13-2.12,0.92-3.1,0.48l0.25,0.58c-0.44,0.68-0.66,1.49-0.6,2.29c0.01,0.14-0.05,0.27-0.17,0.37l-0.35,0.3L11.75,22.23z"/>
<path class="st1" d="M10.75,20.88c-0.28-0.5-0.37-1.29,0.21-1.58c0.58-0.29,1.05,0.5,1.05,0.5l-0.02,1.98
	C11.6,21.78,11.03,21.38,10.75,20.88z"/>
<path class="st8" d="M16.59,19.4c0.17-0.09,0.36-0.11,0.55-0.07c0.19,0.04,0.36,0.12,0.48,0.21l0.12-0.15
	c-0.14-0.11-0.34-0.2-0.56-0.24c-0.22-0.04-0.46-0.03-0.68,0.1L16.59,19.4z M17.63,19.53c0.04,0.03,0.1,0.02,0.13-0.02
	s0.02-0.1-0.02-0.13L17.63,19.53z M16.5,19.23c-0.05,0.03-0.06,0.08-0.04,0.13c0.03,0.05,0.08,0.06,0.13,0.04L16.5,19.23z"/>
<path class="st9" d="M15.99,21.52c-0.12-0.02-0.24-0.07-0.31-0.16l-0.12,0.1c0.1,0.12,0.25,0.19,0.4,0.21L15.99,21.52z M16.13,21.53
	c-0.05,0-0.1,0-0.14-0.01l-0.03,0.15c0.06,0.01,0.12,0.01,0.17,0.01V21.53z M16.39,21.49c-0.09,0.02-0.17,0.03-0.27,0.04l0.02,0.15
	c0.1-0.01,0.19-0.02,0.28-0.04L16.39,21.49z M16.58,21.38c-0.01,0.02-0.02,0.05-0.06,0.07c-0.04,0.02-0.08,0.03-0.13,0.04l0.03,0.15
	c0.05-0.01,0.12-0.03,0.18-0.06c0.06-0.03,0.12-0.08,0.13-0.17L16.58,21.38z M16.54,21.29c0.03,0.02,0.05,0.06,0.04,0.09l0.15,0.03
	c0.02-0.1-0.03-0.19-0.1-0.24L16.54,21.29z M15.93,20.95c0.21,0.15,0.42,0.27,0.63,0.35l0.05-0.14c-0.2-0.07-0.4-0.19-0.59-0.33
	L15.93,20.95z M15.69,21.36c-0.03-0.03-0.07-0.04-0.11-0.01c-0.03,0.03-0.04,0.07-0.01,0.11L15.69,21.36z M15.98,21.59L16,21.52l0,0
	L15.98,21.59z M16.13,21.6v0.08l0.01,0L16.13,21.6z M16.41,21.56l-0.01-0.07l0,0L16.41,21.56z M16.66,21.4l0.07,0.02l0,0L16.66,21.4
	z M16.58,21.23l0.04-0.06l-0.01-0.01l-0.01,0L16.58,21.23z M16.02,20.83c-0.03-0.02-0.08-0.02-0.11,0.02
	c-0.02,0.03-0.02,0.08,0.02,0.11L16.02,20.83z"/>
<path class="st10" d="M14.85,20.54c-0.01,0.14-0.09,0.25-0.18,0.23c-0.12-0.01-0.23-0.21-0.2-0.44s0.17-0.29,0.27-0.18
	C14.83,20.24,14.87,20.41,14.85,20.54z"/>
<path class="st10" d="M16.84,20.46c0,0.14,0.07,0.25,0.17,0.25c0.12,0,0.24-0.19,0.23-0.42s-0.14-0.3-0.26-0.2
	C16.89,20.16,16.83,20.32,16.84,20.46z"/>
<path class="st8" d="M15.06,19.27c-0.44-0.16-0.87,0-1.14,0.27l0.13,0.13c0.22-0.22,0.57-0.35,0.94-0.22L15.06,19.27z M13.92,19.54
	c-0.04,0.04-0.04,0.1,0,0.13c0.04,0.04,0.1,0.04,0.13,0L13.92,19.54z M14.99,19.45c0.05,0.02,0.1-0.01,0.12-0.06
	s-0.01-0.1-0.06-0.12L14.99,19.45z"/>
<path class="st11" d="M15.12,22.59c-0.05-0.02-0.03-0.09,0.02-0.09c0.1,0.01,0.2,0.02,0.3,0.03c0.18,0.02,0.35,0.03,0.53,0.03
	c0.17,0,0.34-0.01,0.51-0.05h0c0.09-0.02,0.14,0.12,0.05,0.15c0,0,0,0-0.01,0c-0.18,0.07-0.37,0.1-0.56,0.1
	c-0.19,0-0.38-0.03-0.56-0.08C15.31,22.67,15.21,22.63,15.12,22.59z"/>
<path class="st6" d="M6.25,31.57c0.17-0.55,1.12,0.12,1.12,0.12c0.15-0.01,0.23-0.15,0.37-0.11c0.19,0.04,0.21,0.04,0.39,0.11
	c0.3,0.12,0.5,0.15,0.58,0.44c0.08,0.29,0.04,0.29,0.27,0.2c0.13-0.05,0.17-0.49,0.24-0.61c-0.78-0.06-0.83-0.94-1.53-1.27
	c-0.08-0.04-0.17-0.08-0.25-0.05c-0.05,0.02-0.08,0.06-0.11,0.1c-0.13,0.16-0.25,0.33-0.34,0.52c-0.02-0.12-0.05-0.24-0.08-0.35
	c-0.03-0.13-0.08-0.28-0.22-0.29c-0.07,0-0.13,0.04-0.18,0.08c-0.16,0.11-0.33,0.24-0.43,0.41c-0.1,0.17-0.12,0.41,0,0.56"/>
<path class="st1" d="M6.23,32.67c0.05,1.04,0.59,3.12,0.59,3.12l0.73,3.44c0.08,0.14,0,0.31-0.08,0.45
	c-0.11,0.19-0.22,0.38-0.33,0.58c-0.06,0.09-0.11,0.2-0.1,0.31c0,0.02,0.01,0.04,0.03,0.06c0.01,0.01,0.03,0.01,0.04,0.01
	c0.14,0,0.25-0.11,0.34-0.21c0.11-0.12,0.25-0.19,0.36-0.32c0.01,0.05-0.01,0.11-0.03,0.16c-0.08,0.2-0.19,0.39-0.31,0.57
	c-0.02,0.03-0.05,0.08-0.03,0.11c0.01,0.02,0.03,0.04,0.05,0.04c0.07,0.02,0.15,0,0.21-0.05c0.06-0.05,0.1-0.11,0.14-0.17
	c0.15-0.21,0.3-0.38,0.47-0.58c0,0.22-0.15,0.4-0.24,0.6c-0.02,0.04-0.03,0.08-0.03,0.12c0,0.04,0.03,0.08,0.08,0.08
	c0.02,0,0.04-0.01,0.07-0.02c0,0,0.28-0.3,0.42-0.57c0.13-0.26,0.29-0.75,0.29-0.75c0.1-0.35,0.13-0.72,0.08-1.08l-0.27-1.93
	c0,0-0.24-2.2-0.05-3.33c0.28-1.32,0.19-1.7-1.08-2.03C6.31,30.95,6.04,31.37,6.23,32.67z"/>
<path class="st3" d="M17.1,25c0.27-0.19,1.01-0.06,1.39,0.17c0.63,0.38,0.86,1.02,1.18,1.75c0.35,0.78,1.5,2.91,1.92,4.47
	c0.12,0.44-2.18,1.69-2.43,1.01c-0.69-1.88-1.95-4.8-2.09-5.52c-0.1-0.83-0.57-1.32,0.04-1.74"/>
<path class="st6" d="M21.69,32.27c-0.12-0.61-0.89,0.24-0.89,0.24c-0.13-0.02-0.19-0.17-0.32-0.14c-0.16,0.04-0.18,0.04-0.34,0.1
	c-0.26,0.11-0.43,0.14-0.52,0.45c-0.08,0.31-0.04,0.31-0.24,0.2c-0.11-0.06-0.12-0.55-0.18-0.68c0.67-0.03,0.58-0.99,1.2-1.33
	c0.07-0.04,0.31-0.07,0.38-0.03c0.04,0.02,0.07,0.07,0.09,0.11c0.11,0.19,0.2,0.38,0.27,0.58c0.02-0.13,0.05-0.25,0.08-0.38
	c0.03-0.14,0.08-0.3,0.2-0.3c0.06,0,0.11,0.05,0.15,0.09c0.13,0.13,0.17,0.23,0.25,0.42c0.08,0.19,0.11,0.26,0,0.42"/>
</svg>
