<?xml version="1.0" encoding="utf-8"?>
<!-- Generator: Adobe Illustrator 24.2.1, SVG Export Plug-In . SVG Version: 6.00 Build 0)  -->
<svg version="1.1" id="Layer_1" xmlns="http://www.w3.org/2000/svg" xmlns:xlink="http://www.w3.org/1999/xlink" x="0px" y="0px"
	 viewBox="0 0 56 56" style="enable-background:new 0 0 56 56;" xml:space="preserve">
<style type="text/css">
	.st0{fill:#CFE2FC;}
	.st1{fill:#907A81;}
	.st2{fill:#E2AD96;}
	.st3{fill:#A2CD9E;}
	.st4{fill:#CCDFA0;}
	.st5{fill:#F0BB9E;}
	.st6{fill:#E8B09C;}
	.st7{fill:#EEB99D;}
	.st8{fill:#655763;}
	.st9{fill:#5C294B;}
	.st10{fill:#C19881;}
	.st11{fill:#EFF4F4;}
	.st12{fill:#D3EBEE;}
	.st13{opacity:0.0625;fill:#F7F0E4;}
	.st14{fill:#729DB2;}
	.st15{fill:#FFC577;}
	.st16{fill:#669BB5;}
</style>
<path class="st0" d="M53.05,56H2.95C1.32,56,0,54.68,0,53.05V2.95C0,1.32,1.32,0,2.95,0h50.1C54.68,0,56,1.32,56,2.95v50.1
	C56,54.68,54.68,56,53.05,56z"/>
<path class="st1" d="M21.85,42.49c1.65-0.21,3.22-1.09,3.9-2.62c0.42-0.94,0.4-2.01,0.33-3.02c-0.07-1.12-0.33-2.24-0.6-3.32
	c-0.22-0.89-0.39-1.75-0.34-2.67c0.06-1.27,0.43-2.35,0.7-3.49c0.11-0.48,0.15-0.96,0.17-1.45c0.04-0.8-0.08-1.47-0.66-1.99
	c-0.64-0.57-1.35-0.62-2.19-0.69c-0.59-0.05-1.19-0.04-1.78,0.09c-0.99,0.2-1.94,0.51-2.46,1.39c-0.73,1.25-0.06,3.16-0.23,4.57
	c-0.09,0.72-0.18,1.31-0.52,1.96c-0.54,1.04-0.64,1.93-0.99,3.05c-0.2,0.65-0.22,1.35-0.23,2.02c-0.01,0.8,0,1.6,0.2,2.37
	C17.32,41.47,19.12,42.48,21.85,42.49z"/>
<path class="st2" d="M24.87,34.12l-2.15-0.01c0.13,0.46,1.03,2.08,1.97,3.47c0.4,0.47,2.38,1.13,2.64,0.24
	c0.03-0.1,0.01-0.21-0.06-0.31L24.87,34.12z"/>
<path class="st3" d="M23.98,32.51l2.18,2.82c0.01,0.02,0.02,0.04,0.04,0.05c-0.75,0.46-1.92,1.12-2.62,1.65
	c-0.86-1.24-1.59-2.81-1.92-3.8c-0.16-0.49,0.31-1.2,0.83-1.32C23.01,31.8,23.55,32.04,23.98,32.51z"/>
<path class="st4" d="M25.06,45c0.98-4.74-0.01-2.76-1.04-8c0.4-3.5-0.05-5.65-2.81-5.65c-1.8,0-2.45,1.31-2.68,3.46l-0.36,4.23
	L17.2,45h6.82H25.06z"/>
<path class="st5" d="M21.05,30.18c-0.01,0.44-0.07,0.89-0.4,1.67c0.91,1.33,2.06,1.57,2.18,0.77c0.05-0.31,0.06-0.71,0.08-1.08
	C22.28,31.56,21.49,30.81,21.05,30.18z"/>
<path class="st6" d="M23.09,30.36l-2-1.39c-0.05,0.5-0.03,0.85-0.04,1.2c0.44,0.63,1.23,1.37,1.86,1.36
	C22.94,30.93,22.96,30.39,23.09,30.36z"/>
<path class="st7" d="M15.47,29.72l2.75,2l-0.81,1.68c-0.71-0.52-4.26-2.69-4.67-3.62c-0.14-0.32,2.35-2.16,2.35-2.16l3.01-2.06
	c0.13-0.06,0.16-0.22,0.18-0.35c0.02-0.19,0.05-0.38,0.07-0.56c0.01-0.1,0.03-0.2,0.09-0.26c0.01-0.01,0.03-0.02,0.05-0.02
	c0.01,0,0.02,0.01,0.04,0.01c0.1,0.07,0.11,0.2,0.12,0.32c0.01,0.14,0.07,0.26,0.09,0.4c0.04-0.03,0.05-0.08,0.06-0.12
	c0.04-0.18,0.07-0.36,0.08-0.55c0-0.04,0.01-0.07,0.04-0.09c0.02-0.01,0.04-0.01,0.06,0c0.06,0.02,0.1,0.08,0.12,0.14
	c0.02,0.06,0.01,0.12,0.01,0.19c-0.01,0.22,0.01,0.42,0.02,0.64c0.11-0.15,0.1-0.35,0.15-0.53c0.01-0.04,0.02-0.07,0.04-0.09
	s0.06-0.04,0.09-0.02c0.02,0.01,0.02,0.03,0.04,0.05c0,0,0.04,0.35-0.01,0.6c-0.05,0.24-0.19,0.67-0.19,0.67
	c-0.04,0.11-0.1,0.22-0.16,0.32c0.23,0.1,0.42,0.27,0.55,0.48c0.06,0.1,0.11,0.22,0.06,0.33c-0.03,0.07-0.11,0.13-0.19,0.12
	c-0.11-0.02-0.15-0.15-0.21-0.23c-0.09-0.12-0.27-0.17-0.42-0.15c-0.13,0.02-0.49,0.23-0.6,0.29l-2.81,2.27
	C15.36,29.47,15.36,29.64,15.47,29.72z"/>
<path class="st3" d="M19.28,35.96c-0.21,0.27-0.61,0.87-0.93,0.84l0.18-1.99c0.05-0.48,0.12-0.91,0.22-1.29l1.61-0.68
	c0,0,0.59,0.49,0.56,0.57C20.63,34.52,19.81,35.29,19.28,35.96z"/>
<path class="st5" d="M21.21,31.35c1,0,1.74,0.35,2.27,0.95c0.1,0.56-0.04,0.93-0.62,0.96c-1.22,0-2.32-1.1-2.65-1.75
	C20.51,31.41,20.84,31.35,21.21,31.35z"/>
<path class="st7" d="M25.18,28.02c-0.03,0.55-0.22,1.28-0.51,1.75c-0.11,0.17-0.25,0.33-0.43,0.43c-0.27,0.14-0.72,0.24-1.03,0.2
	c-0.81-0.12-1.66-0.34-2.32-0.81c0.05-0.66,0.26-1.32,0.41-1.98c0.06-0.24,0.11-0.48,0.11-0.73c0-0.02,0-0.03,0-0.05
	c1.25-0.3,2.1-1.26,3.23-1.94c0.15,0.18,0.27,0.38,0.37,0.59C25.31,26.16,25.22,27.28,25.18,28.02z"/>
<path class="st8" d="M23.38,26.56c-0.31-0.11-0.61-0.01-0.8,0.18l0.03,0.04c0.18-0.18,0.46-0.27,0.75-0.17L23.38,26.56z
	 M22.58,26.74c-0.01,0.01-0.01,0.03,0,0.04c0.01,0.01,0.03,0.01,0.04,0L22.58,26.74z M23.37,26.61c0.01,0,0.03,0,0.03-0.01
	c0-0.01,0-0.03-0.01-0.03L23.37,26.61z"/>
<path class="st8" d="M24.41,26.56c0.12-0.07,0.26-0.07,0.39-0.05c0.13,0.03,0.25,0.08,0.33,0.15l0.03-0.04
	c-0.09-0.07-0.21-0.13-0.35-0.16c-0.14-0.03-0.29-0.02-0.42,0.05L24.41,26.56z M25.13,26.66c0.01,0.01,0.03,0.01,0.03,0
	s0.01-0.03,0-0.03L25.13,26.66z M24.39,26.52c-0.01,0.01-0.02,0.02-0.01,0.03c0.01,0.01,0.02,0.02,0.03,0.01L24.39,26.52z"/>
<path class="st9" d="M23.22,27.44c-0.01,0.11-0.06,0.19-0.13,0.19c-0.09-0.01-0.18-0.16-0.17-0.33s0.11-0.23,0.2-0.15
	C23.19,27.21,23.23,27.34,23.22,27.44z"/>
<path class="st10" d="M24.2,27.94c-0.09,0.01-0.15,0.01-0.21-0.04l-0.05,0.04c0.08,0.08,0.18,0.07,0.26,0.06L24.2,27.94z
	 M24.31,27.9c-0.03,0.03-0.07,0.03-0.11,0.04l0,0.06c0.05,0,0.1-0.01,0.15-0.05L24.31,27.9z M24.36,27.79
	c0.01,0.03,0.01,0.04,0,0.06c-0.01,0.02-0.03,0.03-0.05,0.05l0.04,0.05c0.02-0.02,0.05-0.04,0.06-0.07
	c0.02-0.03,0.03-0.07,0.01-0.12L24.36,27.79z M24.12,27.62c0.07,0.06,0.13,0.08,0.17,0.1c0.02,0.01,0.03,0.02,0.05,0.03
	c0.01,0.01,0.02,0.02,0.03,0.04l0.06-0.03c-0.01-0.03-0.03-0.05-0.05-0.07c-0.02-0.02-0.04-0.03-0.06-0.04
	c-0.04-0.02-0.09-0.04-0.15-0.09L24.12,27.62z M23.99,27.9c-0.01-0.01-0.03-0.01-0.05,0c-0.01,0.01-0.01,0.03,0,0.05L23.99,27.9z
	 M24.2,27.97l0-0.03l0,0L24.2,27.97z M24.39,27.78l-0.03,0.01l0,0L24.39,27.78z M24.16,27.57c-0.01-0.01-0.03-0.01-0.05,0
	c-0.01,0.01-0.01,0.03,0,0.05L24.16,27.57z"/>
<path class="st10" d="M24.4,28.72c0.03,0.01,0.03,0.07,0,0.07c-0.05,0-0.1,0.01-0.15,0.01c-0.09,0.01-0.18,0.02-0.26,0.04
	c-0.09,0.02-0.17,0.06-0.24,0.11c-0.04,0.03-0.09,0.06-0.13,0.1c-0.02,0.02-0.05-0.03-0.03-0.06c0.03-0.06,0.07-0.11,0.11-0.16
	c0.08-0.08,0.17-0.13,0.26-0.15s0.19-0.02,0.29-0.01C24.3,28.69,24.35,28.7,24.4,28.72z"/>
<path class="st9" d="M24.64,27.33c0.01,0.11,0.06,0.19,0.13,0.18c0.09-0.01,0.18-0.16,0.16-0.33s-0.12-0.23-0.21-0.15
	C24.66,27.09,24.63,27.22,24.64,27.33z"/>
<path class="st4" d="M19.98,31.71l-3.12-1.74c-0.02-0.01-0.05-0.03-0.07-0.04c-0.49,0.99-0.79,2.06-1.38,3
	c1.71,0.98,2.64,1.71,3.95,2.04c0.66,0.17,1.5-0.73,1.59-1.41C21.02,32.88,20.65,32.22,19.98,31.71z"/>
<path class="st7" d="M25.51,32.02c0.14-0.26,0.22-0.62,0.23-0.99c0.01-0.28-0.12-0.54-0.35-0.71l-0.17-0.12
	c-0.43-0.37-1.31-0.81-1.6-0.33l0.43,0.91c-0.12-0.04-0.23-0.15-0.32-0.16h0c-0.15-0.02-0.28,0.13-0.23,0.28l0.01,0.05
	c0.01,0.05,0.05,0.1,0.09,0.12c0.12,0.07,0.27,0.18,0.37,0.24c0.15,0.09,0.48,0.54,0.47,0.71l1.22,5.07
	c0.14,0.66,0.39,1.26,1.06,1.18c0.21-0.02,0.4-0.1,0.54-0.22C27.69,37.14,26.38,34.79,25.51,32.02z"/>
<path class="st11" d="M19.54,21.61c-0.07,0.31,0.17,0.61,0.53,0.7c0.36,0.08,0.73-0.19,0.79-0.49c0.07-0.31-0.19-0.53-0.55-0.61
	S19.61,21.31,19.54,21.61z"/>
<path class="st12" d="M22.24,26.89c0,0.1-0.08,0.18-0.18,0.18c-0.1,0-0.18-0.08-0.18-0.18c0-0.1,0.18-0.39,0.18-0.39
	S22.24,26.79,22.24,26.89z"/>
<path class="st13" d="M15.47,29.38l2.81-2.27c0.06-0.03,0.2-0.11,0.33-0.18c0.06,0.81,0.18,1.64,0.09,2.34
	c-0.07,0.56-0.14,1.05-0.33,1.54l-1.53-0.85c-0.02-0.01-0.05-0.03-0.07-0.04c-0.09,0.18-0.17,0.37-0.26,0.55l-1.05-0.76
	C15.36,29.64,15.36,29.47,15.47,29.38z M15.75,32.29c-0.11,0.22-0.22,0.43-0.35,0.64c0.74,0.43,1.33,0.8,1.87,1.12
	c-0.02,0.08-0.05,0.16-0.07,0.23c-0.2,0.65-0.22,1.35-0.23,2.02c-0.01,0.8,0,1.6,0.2,2.37c0.04,0.81,0.23,1.47,0.54,2l-1.18,4.24
	h9.23c-0.91-3.45-0.1-0.16-0.88-3.81c0.37-0.35,0.67-0.77,0.88-1.25c0.23-0.52,0.33-1.08,0.36-1.65c0.09,0.01,0.18,0.03,0.27,0.03
	c0.1,0.03,0.21,0.04,0.33,0.02c0.21-0.02,0.4-0.1,0.54-0.22c0.44-0.91-0.88-3.26-1.75-6.03c0.14-0.26,0.22-0.62,0.23-0.99
	c0.01-0.28-0.12-0.54-0.35-0.71l-0.17-0.12c0,0-0.01-0.01-0.01-0.01c0.13-0.99,0.42-1.89,0.64-2.84c0.11-0.48,0.15-0.96,0.17-1.45
	c0.04-0.8-0.08-1.47-0.66-1.99c-0.64-0.57-1.35-0.62-2.19-0.69c-0.59-0.05-1.19-0.04-1.78,0.09c-0.89,0.18-1.77,0.45-2.3,1.16
	c0,0,0-0.01,0-0.01c-0.02-0.06-0.06-0.12-0.12-0.14c-0.02-0.01-0.04-0.01-0.06,0c-0.03,0.02-0.04,0.06-0.04,0.09
	c-0.01,0.18-0.04,0.37-0.08,0.55c-0.01,0.05-0.02,0.09-0.06,0.12c-0.01-0.14-0.07-0.26-0.09-0.4c-0.01-0.12-0.03-0.25-0.12-0.32
	c-0.01-0.01-0.02-0.01-0.04-0.01c-0.02,0-0.04,0.01-0.05,0.02c-0.07,0.07-0.08,0.17-0.09,0.26c-0.02,0.19-0.05,0.38-0.07,0.56
	c-0.02,0.14-0.05,0.3-0.18,0.35l-3.01,2.06c0,0-2.49,1.85-2.35,2.16C13,30.37,14.5,31.44,15.75,32.29z"/>
<path class="st11" d="M33.29,22.13c-0.02,0.31,0.25,0.59,0.62,0.62c0.37,0.03,0.7-0.28,0.72-0.59c0.02-0.31-0.26-0.5-0.63-0.53
	C33.63,21.59,33.31,21.82,33.29,22.13z"/>
<path class="st1" d="M29.72,42.9c1.74-0.05,3.46-0.79,4.33-2.31c0.54-0.93,0.63-2.04,0.67-3.11c0.04-1.17-0.11-2.36-0.27-3.52
	c-0.14-0.95-0.22-1.86-0.07-2.82c0.2-1.31,0.54-2.03,0.94-3.2c0.17-0.49,0.26-0.98,0.34-1.49c0.13-0.83,0.07-1.54-0.48-2.14
	c-0.6-0.66-1.33-0.79-2.2-0.95c-0.61-0.11-1.24-0.16-1.86-0.1c-1.05,0.11-2.08,0.32-2.7,1.18c-0.89,1.22-0.39,3.28-0.72,4.73
	c-0.17,0.74-0.24,1.16-0.67,1.8c-0.67,1.02-0.79,1.76-1.27,2.88c-0.28,0.66-0.38,1.37-0.46,2.08c-0.09,0.83-0.17,1.67-0.05,2.49
	C25.12,41.36,26.87,42.6,29.72,42.9z"/>
<path class="st7" d="M33.91,34.12l-2.24,0.11c0.17,0.47,1.19,2.12,2.26,3.51c0.45,0.47,2.56,1.03,2.77,0.1
	c0.02-0.11,0-0.22-0.08-0.32L33.91,34.12z"/>
<path class="st3" d="M32.89,32.49l2.44,2.81c0.01,0.02,0.02,0.04,0.04,0.05c-0.75,0.53-1.94,1.28-2.64,1.87
	c-0.97-1.24-1.83-2.84-2.23-3.85c-0.2-0.51,0.25-1.27,0.79-1.43C31.84,31.8,32.41,32.01,32.89,32.49z"/>
<path class="st4" d="M33.23,45c-2.07-4.93-0.86-2.08-0.69-7.6c0.79-3.6,0.54-5.88-2.33-6.18c-1.87-0.19-2.69,1.1-3.16,3.32
	c0,0-0.96,2.09-2.11,10.46H33.23z"/>
<path class="st3" d="M27.71,35.82c-0.24,0.25-0.78,0.33-1.11,0.27l0.4-1.67c0.1-0.49,0.27-0.8,0.42-1.19l1.75-0.54
	c0,0,0.56,0.57,0.53,0.66C29.27,34.46,28.34,35.17,27.71,35.82z"/>
<path class="st5" d="M30.21,31.23c1.04,0.11,1.77,0.55,2.26,1.23c0.05,0.6-0.15,0.96-0.74,0.93c-1.27-0.13-2.3-1.39-2.57-2.1
	C29.48,31.21,29.83,31.19,30.21,31.23z"/>
<path class="st5" d="M32.09,30.47l-2-1.39c-0.01,0.12-0.02,0.24-0.03,0.35l1.99,1.06C32.06,30.48,32.07,30.47,32.09,30.47z"/>
<path class="st5" d="M30.05,30.12c0,0.5-0.04,0.96-0.4,1.84c0.91,1.33,2.06,1.57,2.18,0.77c0.05-0.36,0.07-0.84,0.09-1.26
	C31.29,31.49,30.49,30.75,30.05,30.12z"/>
<path class="st6" d="M31.92,31.47c0.02-0.47,0.05-0.88,0.13-0.97l-1.99-1.06c-0.01,0.26-0.01,0.48-0.01,0.68
	C30.49,30.75,31.29,31.49,31.92,31.47z"/>
<path class="st7" d="M34.33,25.25c-1.27,0.6-2.27,1.53-3.64,1.69c-0.07,0.46-0.33,1.28-0.53,1.67c-0.16,0.31-0.34,0.58-0.52,0.82
	c0.08,0.1,0.17,0.2,0.26,0.29c0.65,0.58,1.52,0.9,2.36,1.11c0.31,0.08,0.79,0.02,1.09-0.1c0.2-0.08,0.36-0.23,0.49-0.4
	c0.35-0.45,0.63-1.2,0.71-1.76c0.12-0.77,0.33-1.92,0.1-2.66C34.58,25.67,34.47,25.45,34.33,25.25z"/>
<path class="st8" d="M32.84,26.86c-0.31-0.15-0.64-0.07-0.85,0.1L32.02,27c0.2-0.17,0.51-0.24,0.8-0.1L32.84,26.86z M31.99,26.96
	c-0.01,0.01-0.01,0.02,0,0.03c0.01,0.01,0.02,0.01,0.03,0L31.99,26.96z M32.82,26.9c0.01,0.01,0.03,0,0.03-0.01
	c0.01-0.01,0-0.03-0.01-0.03L32.82,26.9z"/>
<path class="st8" d="M33.92,26.96c0.13-0.06,0.28-0.05,0.41-0.01c0.13,0.04,0.25,0.12,0.33,0.19l0.03-0.03
	c-0.08-0.08-0.21-0.16-0.35-0.2c-0.14-0.04-0.3-0.05-0.44,0.01L33.92,26.96z M34.65,27.14c0.01,0.01,0.02,0.01,0.03,0
	c0.01-0.01,0.01-0.02,0-0.03L34.65,27.14z M33.9,26.92c-0.01,0.01-0.02,0.02-0.01,0.03c0.01,0.01,0.02,0.02,0.03,0.01L33.9,26.92z"
	/>
<path class="st9" d="M32.59,27.76c-0.02,0.11-0.08,0.19-0.16,0.18c-0.1-0.02-0.17-0.18-0.14-0.36c0.03-0.18,0.15-0.23,0.23-0.14
	C32.58,27.51,32.6,27.65,32.59,27.76z"/>
<path class="st10" d="M33.55,28.37c-0.1,0-0.16,0-0.21-0.06l-0.06,0.05c0.08,0.09,0.18,0.09,0.26,0.09L33.55,28.37z M33.67,28.35
	c-0.03,0.02-0.07,0.03-0.12,0.02l-0.01,0.07c0.05,0,0.11,0,0.17-0.03L33.67,28.35z M33.74,28.25c0.01,0.03,0,0.04-0.01,0.06
	c-0.01,0.02-0.03,0.03-0.05,0.04l0.04,0.06c0.02-0.01,0.05-0.03,0.08-0.06c0.02-0.03,0.04-0.07,0.02-0.13L33.74,28.25z M33.5,28.04
	c0.07,0.07,0.12,0.1,0.16,0.13c0.02,0.01,0.03,0.02,0.05,0.03c0.01,0.01,0.02,0.02,0.03,0.05l0.07-0.02
	c-0.01-0.03-0.02-0.05-0.04-0.07c-0.02-0.02-0.04-0.03-0.06-0.04c-0.04-0.03-0.09-0.05-0.15-0.11L33.5,28.04z M33.34,28.31
	c-0.01-0.02-0.04-0.02-0.05-0.01c-0.02,0.01-0.02,0.04-0.01,0.05L33.34,28.31z M33.55,28.41l0-0.04l0,0L33.55,28.41z M33.69,28.38
	l-0.02-0.03l0,0L33.69,28.38z M33.77,28.23l0.04-0.01l0,0L33.77,28.23z M33.55,27.99c-0.01-0.01-0.04-0.02-0.05,0
	c-0.01,0.01-0.02,0.04,0,0.05L33.55,27.99z"/>
<path class="st10" d="M32.8,29.3c-0.02-0.02-0.01-0.08,0.01-0.08c0.05,0.01,0.11,0.02,0.16,0.02c0.09,0.01,0.18,0.02,0.28,0.02
	s0.18-0.01,0.28-0.05c0.05-0.02,0.1-0.04,0.15-0.07c0.03-0.01,0.04,0.04,0.02,0.07c-0.05,0.06-0.1,0.1-0.15,0.13
	c-0.1,0.06-0.2,0.09-0.3,0.09c-0.1,0-0.2-0.02-0.29-0.06C32.9,29.36,32.85,29.34,32.8,29.3z"/>
<path class="st9" d="M34.07,27.78c0,0.11,0.05,0.21,0.12,0.21c0.1,0,0.2-0.15,0.21-0.33c0-0.18-0.1-0.25-0.2-0.18
	C34.12,27.54,34.07,27.67,34.07,27.78z"/>
<path class="st7" d="M24.81,42.84c0.12-0.02,0.2-0.13,0.27-0.24c0.08-0.13,0.19-0.21,0.27-0.34c0.02,0.05,0.01,0.1,0,0.15
	c-0.04,0.19-0.1,0.37-0.18,0.55c-0.01,0.03-0.03,0.07-0.01,0.1c0.01,0.02,0.03,0.03,0.05,0.03c0.06,0.01,0.13-0.02,0.17-0.07
	c0.04-0.05,0.07-0.11,0.1-0.17c0.09-0.21,0.2-0.39,0.32-0.59c0.04,0.19-0.06,0.38-0.11,0.57c-0.01,0.04-0.01,0.07,0,0.11
	C25.7,42.97,25.73,43,25.77,43c0.02,0,0.04-0.01,0.05-0.03c0,0,0.2-0.31,0.27-0.57c0.07-0.25,0.13-0.71,0.13-0.71
	c0.01-0.12,0.01-0.24,0-0.37c0.26,0.01,0.52-0.06,0.74-0.2c0.09-0.06,0.18-0.13,0.21-0.23c0.03-0.1-0.03-0.23-0.13-0.25
	c-0.1-0.02-0.19,0.07-0.28,0.12c-0.15,0.07-0.33,0.04-0.46-0.06c-0.11-0.07-0.2-0.18-0.28-0.29l-0.76-1.38l-0.96-2.64
	c-0.06-0.16-0.01-0.33,0.12-0.44l3.19-1.69l0.05-2.02c-0.91,0.16-6.2,2.46-5.89,3.34c0.31,0.88,1.27,2.78,1.27,2.78l1.93,3.18
	c0.09,0.11,0.05,0.28,0,0.41c-0.06,0.19-0.13,0.37-0.19,0.56c-0.03,0.09-0.06,0.2-0.04,0.29c0.01,0.02,0.01,0.04,0.03,0.05
	C24.79,42.85,24.8,42.85,24.81,42.84z"/>
<path class="st4" d="M27.83,31.6l-3.27,1.16c-0.02,0.01-0.04,0.02-0.06,0.02c0.34,0.82,0.91,2.05,1.18,2.91
	c1.36-0.57,3.22-1.41,4.02-2.06c0.4-0.33-0.01-1.28-0.36-1.69C28.98,31.54,28.43,31.44,27.83,31.6z"/>
<path class="st7" d="M36.68,38.06c0.65-0.65,1.28-1.21,1.28-1.21l2.54-2.3c0.2-0.02,0.29-0.04,0.51-0.06
	c0.27-0.01,0.57-0.11,0.75-0.33c0.09-0.11,0.24-0.13,0.22-0.26c-0.05-0.22-0.28,0-0.06,0.04c0.07,0.01,0.15,0.02,0.22,0.03
	c0.05,0,0.1,0.01,0.14-0.02c0.04-0.02,0.07-0.07,0.06-0.12c-0.01-0.03-0.03-0.05-0.05-0.07c0,0-0.45-0.21-0.8-0.24
	c-0.32-0.04-0.85-0.04-0.94-0.03c0.01-0.22-0.05-0.44-0.18-0.61c-0.05-0.07-0.12-0.14-0.22-0.16c-0.1-0.02-0.21,0.04-0.23,0.13
	c-0.01,0.09,0.07,0.15,0.11,0.23c0.07,0.12,0.03,0.27-0.05,0.39c-0.06,0.09-0.14,0.16-0.23,0.23c-0.23,0.1-0.45,0.22-0.64,0.38
	l-3.63,2.57c-0.29,0.21-0.45,0.57-0.38,0.93C35.21,38.3,36.14,38.6,36.68,38.06z"/>
<path class="st11" d="M10.82,12.84c0.15-1.72,3.41-2.66,4.14-0.9c2.25-1.08,5.08,0,4.75,3.12c1.96,1.92,1.83,5.1-0.81,5.62
	c-0.35,1.94-2.94,2.28-4.67,1.61c-1.83,0.42-2.52,0.7-3.83,0.16c-0.67-0.28-1.24-0.81-1.6-1.49c-0.66,0.25-1.27,0.18-1.83-0.21
	c-0.01,0-0.01-0.01-0.02-0.01c-1.12-0.7-1.86-1.98-1.94-3.38C4.81,13.8,7.17,12.42,10.82,12.84z"/>
<path class="st14" d="M14.65,19.19c0.41-0.04,0.51-0.2,0.45-0.74c-0.05-0.53-0.17-0.66-0.59-0.62l-0.14,0.01l0.13,1.36L14.65,19.19z
	 M14.57,17.15c0.29-0.03,0.36-0.17,0.31-0.65c-0.05-0.47-0.14-0.6-0.43-0.57l-0.25,0.02l0.12,1.21L14.57,17.15z M13.35,15.37
	l0.94-0.09c0.57-0.05,0.83-0.02,1.02,0.16c0.17,0.16,0.27,0.47,0.32,0.94c0.06,0.65-0.01,0.87-0.35,1.01
	c0.43,0.08,0.56,0.31,0.64,1.06c0.05,0.54-0.01,0.87-0.19,1.08c-0.18,0.2-0.42,0.27-1.04,0.33l-0.9,0.09L13.35,15.37z"/>
<path class="st15" d="M11.17,16.03c-0.1-0.32-0.25-0.78-0.39-1.31c0.07,0.73,0.09,0.93,0.11,1.36l0.03,0.88l0.54-0.1L11.17,16.03z
	 M10.96,17.72l0.06,1.39l-0.85,0.15l-0.1-5.22l1.13-0.2l1.81,4.91l-0.85,0.15l-0.46-1.31L10.96,17.72z"/>
<path class="st16" d="M18.23,19.27c0-0.04,0-0.08,0.01-0.12c0.01-0.04,0.03-0.07,0.06-0.1s0.05-0.05,0.09-0.07
	c0.04-0.02,0.07-0.03,0.12-0.03c0.04,0,0.08,0,0.12,0.01c0.04,0.01,0.07,0.03,0.1,0.06c0.03,0.02,0.05,0.06,0.07,0.09
	s0.03,0.07,0.03,0.12s0,0.08-0.01,0.12c-0.01,0.04-0.03,0.07-0.06,0.1c-0.02,0.03-0.06,0.05-0.09,0.07s-0.07,0.03-0.12,0.03
	c-0.04,0-0.08,0-0.12-0.01c-0.04-0.01-0.07-0.03-0.1-0.06c-0.03-0.02-0.05-0.06-0.07-0.09C18.25,19.36,18.24,19.32,18.23,19.27z"/>
<path class="st16" d="M17.35,19.27c0-0.04,0-0.08,0.01-0.12c0.01-0.04,0.03-0.07,0.06-0.1s0.05-0.05,0.09-0.07
	c0.04-0.02,0.07-0.03,0.12-0.03c0.04,0,0.08,0,0.12,0.01c0.04,0.01,0.07,0.03,0.1,0.06c0.03,0.02,0.05,0.06,0.07,0.09
	s0.03,0.07,0.03,0.12s0,0.08-0.01,0.12c-0.01,0.04-0.03,0.07-0.06,0.1c-0.02,0.03-0.06,0.05-0.09,0.07s-0.07,0.03-0.12,0.03
	c-0.04,0-0.08,0-0.12-0.01c-0.04-0.01-0.07-0.03-0.1-0.06c-0.03-0.02-0.05-0.06-0.07-0.09C17.36,19.36,17.35,19.32,17.35,19.27z"/>
<path class="st16" d="M16.46,19.27c0-0.04,0-0.08,0.01-0.12c0.01-0.04,0.03-0.07,0.06-0.1s0.05-0.05,0.09-0.07
	c0.04-0.02,0.07-0.03,0.12-0.03c0.04,0,0.08,0,0.12,0.01c0.04,0.01,0.07,0.03,0.1,0.06c0.03,0.02,0.05,0.06,0.07,0.09
	s0.03,0.07,0.03,0.12s0,0.08-0.01,0.12c-0.01,0.04-0.03,0.07-0.06,0.1c-0.02,0.03-0.06,0.05-0.09,0.07s-0.07,0.03-0.12,0.03
	c-0.04,0-0.08,0-0.12-0.01c-0.04-0.01-0.07-0.03-0.1-0.06c-0.03-0.02-0.05-0.06-0.07-0.09C16.47,19.36,16.46,19.32,16.46,19.27z"/>
<path class="st11" d="M40.88,14.41c0.15-1.72,3.41-2.66,4.14-0.9c2.25-1.08,5.08,0,4.75,3.12c1.96,1.92,1.83,5.1-0.81,5.62
	c-0.35,1.94-2.94,2.28-4.67,1.61c-1.83,0.42-2.52,0.7-3.83,0.16c-0.67-0.28-1.24-0.81-1.6-1.49c-0.66,0.25-1.27,0.18-1.83-0.21
	c-0.01,0-0.01-0.01-0.02-0.01c-1.12-0.7-1.86-1.98-1.94-3.38C34.87,15.36,37.23,13.98,40.88,14.41z"/>
<path class="st14" d="M40.47,20.54c0.41-0.04,0.51-0.2,0.45-0.74c-0.05-0.53-0.17-0.66-0.59-0.62l-0.14,0.01l0.13,1.36L40.47,20.54z
	 M40.39,18.5c0.29-0.03,0.36-0.17,0.31-0.65c-0.05-0.47-0.14-0.6-0.43-0.57l-0.25,0.02l0.12,1.21L40.39,18.5z M39.17,16.72
	l0.94-0.09c0.57-0.05,0.83-0.02,1.02,0.16c0.17,0.16,0.27,0.47,0.32,0.94c0.06,0.65-0.01,0.87-0.35,1.01
	c0.43,0.08,0.56,0.31,0.64,1.06c0.05,0.54-0.01,0.87-0.19,1.08c-0.18,0.2-0.42,0.27-1.04,0.33l-0.9,0.09L39.17,16.72z"/>
<path class="st15" d="M43.89,18.21c-0.06-0.33-0.15-0.81-0.23-1.35c-0.02,0.73-0.03,0.94-0.06,1.37l-0.08,0.88l0.55-0.03
	L43.89,18.21z M43.47,19.86l-0.11,1.38l-0.86,0.05l0.54-5.19l1.15-0.06l1.2,5.1l-0.86,0.05l-0.3-1.36L43.47,19.86z"/>
<polygon class="st16" points="47.73,16.39 47.27,19.48 46.43,19.4 46.48,16.19 "/>
<path class="st16" d="M46.33,20.29c0.01-0.06,0.02-0.12,0.05-0.16c0.03-0.05,0.06-0.09,0.1-0.13c0.04-0.04,0.09-0.06,0.14-0.08
	c0.06-0.02,0.11-0.02,0.17-0.02c0.06,0.01,0.12,0.02,0.16,0.05c0.05,0.03,0.09,0.06,0.13,0.11c0.04,0.04,0.06,0.09,0.08,0.15
	c0.02,0.06,0.02,0.11,0.02,0.17c-0.01,0.06-0.02,0.12-0.05,0.17c-0.03,0.05-0.06,0.09-0.1,0.13c-0.04,0.04-0.09,0.06-0.15,0.08
	c-0.06,0.02-0.11,0.02-0.17,0.02c-0.06-0.01-0.12-0.02-0.16-0.05c-0.05-0.03-0.09-0.06-0.13-0.1c-0.04-0.04-0.06-0.09-0.08-0.14
	C46.33,20.41,46.32,20.35,46.33,20.29z"/>
</svg>
