<?xml version="1.0" encoding="utf-8"?>
<!-- Generator: Adobe Illustrator 24.2.1, SVG Export Plug-In . SVG Version: 6.00 Build 0)  -->
<svg version="1.1" id="Layer_1" xmlns="http://www.w3.org/2000/svg" xmlns:xlink="http://www.w3.org/1999/xlink" x="0px" y="0px"
	 viewBox="0 0 56 56" style="enable-background:new 0 0 56 56;" xml:space="preserve">
<style type="text/css">
	.st0{fill:#CFE2FC;}
	.st1{fill:#EBB6A4;}
	.st2{fill:#F9F0DC;}
	.st3{opacity:0.16;}
	.st4{opacity:0.4;clip-path:url(#SVGID_2_);fill:#D9E9EB;}
	.st5{fill:#D8A68B;}
	.st6{fill:#6B6473;}
	.st7{fill:#5E5B66;}
	.st8{fill:#B2D3B2;}
	.st9{fill:#C2E2C2;}
	.st10{fill:#E1AE8F;}
	.st11{fill:#57535E;}
	.st12{fill:#5C294B;}
	.st13{fill:#C19881;}
	.st14{fill:#B28C79;}
	.st15{fill:#E09370;}
	.st16{fill:#EFF4F4;}
	.st17{fill:#9AD462;}
	.st18{fill:#92BA67;}
	.st19{opacity:0.4;clip-path:url(#SVGID_4_);fill:#D9E9EB;}
	.st20{fill:#FFC577;}
	.st21{enable-background:new    ;}
	.st22{clip-path:url(#SVGID_6_);fill:#F8DA94;}
	.st23{clip-path:url(#SVGID_6_);fill:#FFC577;}
	.st24{clip-path:url(#SVGID_6_);fill:#FB806C;}
	.st25{clip-path:url(#SVGID_6_);fill:#9B9ECC;}
	.st26{clip-path:url(#SVGID_6_);fill:#A6CE7C;}
	.st27{clip-path:url(#SVGID_6_);fill:#79AFCF;}
	.st28{clip-path:url(#SVGID_6_);fill:#90BFD1;}
</style>
<path class="st0" d="M53.05,56H2.95C1.32,56,0,54.68,0,53.05V2.95C0,1.32,1.32,0,2.95,0h50.1C54.68,0,56,1.32,56,2.95v50.1
	C56,54.68,54.68,56,53.05,56z"/>
<polygon class="st1" points="29.14,46 29.14,44.83 27.35,44.84 27.35,46 "/>
<path class="st2" d="M40.21,28.05l1.98-0.02c0.07,0,0.13-0.06,0.13-0.12v-0.98c0-0.07-0.06-0.12-0.13-0.12l-1.98,0.02
	c-0.07,0-0.13,0.06-0.13,0.12v0.98C40.07,27.99,40.13,28.05,40.21,28.05z"/>
<path class="st2" d="M38.85,26.44l1.98-0.02c0.07,0,0.13-0.06,0.13-0.12v-0.98c0-0.07-0.06-0.12-0.13-0.12l-1.98,0.02
	c-0.07,0-0.13,0.06-0.13,0.12v0.98C38.72,26.38,38.77,26.44,38.85,26.44z"/>
<path class="st2" d="M33.02,37.49L35,37.47c0.07,0,0.13-0.06,0.13-0.12v-0.98c0-0.07-0.06-0.12-0.13-0.12l-1.98,0.02
	c-0.07,0-0.13,0.06-0.13,0.12v0.98C32.89,37.44,32.95,37.49,33.02,37.49z"/>
<path class="st2" d="M31.72,35.86l1.98-0.02c0.07,0,0.13-0.06,0.13-0.12v-0.98c0-0.07-0.06-0.12-0.13-0.12l-1.98,0.02
	c-0.07,0-0.13,0.06-0.13,0.12v0.98C31.59,35.8,31.65,35.86,31.72,35.86z"/>
<path class="st2" d="M23.7,39.23l1.98-0.02c0.07,0,0.13-0.06,0.13-0.12v-0.98c0-0.07-0.06-0.12-0.13-0.12l-1.98,0.02
	c-0.07,0-0.13,0.06-0.13,0.12v0.98C23.57,39.17,23.63,39.23,23.7,39.23z"/>
<path class="st2" d="M26.62,32.37l1.98-0.02c0.07,0,0.13-0.06,0.13-0.12v-0.98c0-0.07-0.06-0.12-0.13-0.12l-1.98,0.02
	c-0.07,0-0.13,0.06-0.13,0.12v0.98C26.49,32.32,26.55,32.37,26.62,32.37z"/>
<path class="st2" d="M23.84,27.02l1.98-0.02c0.07,0,0.13-0.06,0.13-0.12V25.9c0-0.07-0.06-0.12-0.13-0.12l-1.98,0.02
	c-0.07,0-0.13,0.06-0.13,0.12v0.98C23.71,26.97,23.77,27.02,23.84,27.02z"/>
<g class="st3">
	<g>
		<defs>
			<rect id="SVGID_1_" width="56" height="56"/>
		</defs>
		<clipPath id="SVGID_2_">
			<use xlink:href="#SVGID_1_"  style="overflow:visible;"/>
		</clipPath>
		<rect x="47.77" y="27.94" class="st4" width="3.58" height="7.63"/>
		<path class="st4" d="M47.77,27.25h3.58v-2.09c0-0.72-0.57-1.3-1.27-1.3h-2.31V27.25z"/>
		<rect x="43.52" y="27.9" class="st4" width="3.58" height="7.63"/>
		<path class="st4" d="M43.52,27.25h3.58v-3.39h-2.31c-0.7,0-1.27,0.58-1.27,1.3V27.25z"/>
	</g>
</g>
<path class="st5" d="M41.53,37.54c0.07,0.07,0.18,0.08,0.27,0.03l1.38-0.52l0.93-0.47c0.18-0.09,0.37-0.14,0.56-0.15
	c0,0,0.28,0,0.43,0.02c0.16,0.02,0.35,0.12,0.35,0.12c0.01,0.01,0.02,0.02,0.02,0.03c0.01,0.02-0.01,0.04-0.03,0.05
	c-0.02,0.01-0.04,0.01-0.06,0.01c-0.12-0.01-0.23-0.06-0.34-0.02c0.13,0.05,0.24,0.11,0.37,0.15c0.04,0.01,0.08,0.02,0.11,0.04
	c0.03,0.02,0.06,0.06,0.06,0.1c0,0.01,0,0.03-0.01,0.04c-0.02,0.01-0.04,0.01-0.06,0c-0.11-0.03-0.22-0.05-0.34-0.06
	c-0.03,0-0.06,0-0.08,0.01c0.08,0.04,0.14,0.1,0.22,0.13c0.07,0.03,0.14,0.07,0.16,0.14c0,0.01,0,0.02,0,0.02
	c0,0.01-0.01,0.02-0.02,0.02c-0.05,0.02-0.12,0.01-0.17,0c-0.12-0.02-0.23-0.05-0.35-0.07c-0.08-0.02-0.18-0.03-0.24,0.03
	l-1.62,0.96c0,0-1.04,0.73-1.54,0.99c-0.5,0.26-2.27-2.75-2.43-3.28l1.2-0.13L41.53,37.54z"/>
<path class="st6" d="M37.21,34.69c-0.11,0.71-0.03,1.43,0.06,2.14c0.02,0.13,0.13,0.38,0.25,0.42c0.39-0.22,0.8,0.1,1.22-0.02
	c0.25-0.07,0.51-0.06,0.75-0.16c0.83-0.34,1.71-1.75,1.76-2.67c0.01-0.18,0-0.37,0.05-0.54c0.01-0.03,0.02-0.06,0.03-0.09
	c0.03-0.06,0.05-0.12,0.06-0.19c0.01-0.05,0.02-0.1,0.04-0.16c0.08-0.28,0.21-0.55,0.27-0.83c0.09-0.41,0.04-0.86-0.14-1.25
	c-0.1-0.22-0.24-0.41-0.31-0.64c-0.02-0.06-0.03-0.12-0.04-0.18c-0.03-0.22-0.11-0.43-0.23-0.61L41,29.9
	c-0.07-0.1-0.14-0.22-0.24-0.29c-0.11-0.09-0.25-0.13-0.39-0.16c-0.59-0.16-1.19-0.32-1.79-0.38c-0.43-0.05-0.87,0.12-1.15,0.46
	c-0.01,0.02-0.03,0.03-0.04,0.05c0,0,0,0.01-0.01,0.01C37.11,29.95,37,30.55,37,31.01c0,0.45,0.1,0.76,0.24,1.19
	c0.08,0.28,0.18,0.55,0.21,0.84C37.5,33.59,37.3,34.14,37.21,34.69z"/>
<path class="st7" d="M40.71,33.15c-0.08,0.17-0.16,0.34-0.23,0.51c-0.09,0.25-0.13,0.52-0.12,0.79c0.01,0.22,0.06,0.45,0.06,0.67
	c-0.01,0.56-0.33,1.06-0.7,1.4c-0.18,0.17-0.38,0.32-0.6,0.35c-0.37,0.05-0.72-0.26-0.88-0.66s-0.15-0.88-0.09-1.33
	c0.07-0.45,0.19-0.89,0.26-1.34c0.08-0.53,0.1-1.07,0.04-1.6c-0.03-0.24-0.07-0.48-0.04-0.72c0.05-0.48,0.37-0.87,0.74-1.07
	c0.3-0.16,0.62-0.21,0.93-0.22c0.2-0.01,0.43-0.05,0.57,0.15c0.33,0.46,0.38,1.34,0.33,1.94C40.96,32.41,40.86,32.8,40.71,33.15z"/>
<path class="st8" d="M40.06,35.01l1.24,1.67c0.01,0.01,0.01,0.02,0.02,0.03c-0.42,0.26-1.07,0.62-1.46,0.91
	c-0.49-0.73-0.91-1.65-1.1-2.23c-0.1-0.29,0.16-0.69,0.46-0.75C39.52,34.58,39.81,34.72,40.06,35.01z"/>
<path class="st9" d="M35.61,46h6.21l-1.68-7.82l0.32-1.29c0.22-0.9-0.12-1.86-0.87-2.37c-0.34-0.23-0.75-0.36-1.23-0.36
	c-1.86,0-1.68,2.26-1.66,5.49L35.61,46z"/>
<path class="st8" d="M36.72,39.51c-0.07-1.64,0.07-3.55,0.45-4.45c0.03-0.01,0.07-0.02,0.1-0.03c0.28-0.09,0.55-0.15,0.83-0.1
	c0.31,0.9,0,1.89-0.31,2.79c-0.05,0.14-0.1,0.28-0.2,0.38c-0.05,0.05-0.11,0.09-0.15,0.14c-0.07,0.08-0.1,0.18-0.13,0.28
	C37.17,38.91,36.99,39.57,36.72,39.51z"/>
<path class="st10" d="M38.34,34.16c0.63,0,1.1,0.23,1.44,0.61c0.07,0.36-0.03,0.6-0.39,0.62c-0.78,0-1.47-0.71-1.67-1.13
	C37.9,34.19,38.11,34.16,38.34,34.16z"/>
<path class="st5" d="M39.46,34.51c0.02-0.42-0.05-1.41,0.07-1.43l-1.25-0.6c0,0.58,0.12,1.2-0.13,1.94
	C38.75,35.05,39.44,34.92,39.46,34.51z"/>
<path class="st10" d="M38.13,32.89c0.35,0.35,0.84,0.57,1.32,0.71c0.18,0.05,0.45,0.03,0.62-0.03c0.12-0.04,0.21-0.12,0.29-0.22
	c0.21-0.25,0.39-0.68,0.45-1.01c0.09-0.44,0-1.11-0.12-1.55c-0.12-0.44-0.19-0.8-0.57-1.04c-0.13-0.08-0.28-0.15-0.42-0.19
	c-0.2-0.07-0.41-0.12-0.63-0.12c-0.86-0.04-1.53,0.6-1.53,1.48C37.53,31.82,37.74,32.46,38.13,32.89z"/>
<path class="st11" d="M38.98,31.29c0.01,0,0.02,0,0.02-0.01c0.1-0.1,0.27-0.17,0.46-0.1c0.02,0.01,0.04,0,0.04-0.02
	c0.01-0.02,0-0.04-0.02-0.05c-0.22-0.08-0.42,0.01-0.53,0.12c-0.01,0.01-0.01,0.04,0,0.05C38.96,31.29,38.97,31.29,38.98,31.29z"/>
<path class="st11" d="M40.57,31.12c0.01,0,0.02-0.01,0.03-0.02c0.01-0.02,0-0.04-0.01-0.05c-0.15-0.09-0.37-0.14-0.55-0.04
	c-0.02,0.01-0.02,0.03-0.01,0.05c0.01,0.02,0.03,0.02,0.05,0.01c0.16-0.09,0.36-0.04,0.49,0.04C40.56,31.11,40.57,31.12,40.57,31.12
	z"/>
<path class="st12" d="M39.24,31.77c0.08,0,0.15-0.01,0.22-0.03c0.02-0.01,0.04-0.03,0.03-0.05c-0.01-0.02-0.03-0.04-0.05-0.03
	c-0.09,0.02-0.19,0.03-0.3,0.02c-0.02,0-0.04,0.01-0.05,0.04c0,0.02,0.01,0.05,0.04,0.05C39.16,31.77,39.2,31.77,39.24,31.77z"/>
<path class="st12" d="M40.38,31.72c0.04,0,0.08,0,0.11-0.01c0.02,0,0.04-0.02,0.04-0.05c0-0.02-0.02-0.04-0.05-0.04
	c-0.1,0.01-0.21,0.01-0.3-0.02c-0.02-0.01-0.05,0.01-0.05,0.03c-0.01,0.02,0.01,0.05,0.03,0.05C40.23,31.71,40.3,31.72,40.38,31.72z
	"/>
<path class="st13" d="M39.99,32.25c0.01,0,0.01,0,0.02,0h0.01c0.03,0,0.07,0,0.1-0.03c0.02-0.01,0.08-0.06,0.06-0.13
	c-0.02-0.05-0.05-0.06-0.08-0.08c-0.02-0.01-0.05-0.03-0.08-0.06c-0.01-0.01-0.04-0.01-0.05,0c-0.01,0.01-0.01,0.04,0,0.05
	c0.04,0.04,0.07,0.06,0.1,0.07c0.03,0.02,0.04,0.02,0.04,0.04c0,0.01,0,0.02-0.03,0.05c-0.02,0.01-0.04,0.01-0.06,0.01H40
	c-0.05,0-0.08,0-0.11-0.03c-0.01-0.02-0.04-0.02-0.05,0c-0.02,0.01-0.02,0.04,0,0.05C39.89,32.24,39.94,32.25,39.99,32.25z"/>
<path class="st14" d="M40.17,32.59c0.03-0.01,0.02,0.03,0.01,0.05c-0.14,0.41-0.34,0.73-0.83,0.07c-0.02-0.02,0-0.06,0.02-0.06
	C39.65,32.67,39.94,32.64,40.17,32.59z"/>
<path class="st15" d="M39.62,32.83c0.04,0,0.07,0.01,0.11,0.01c0.04,0,0.07,0,0.11,0.01c0.07,0.01,0.13,0.05,0.17,0.1
	c0,0,0.01,0.01,0.01,0.01c-0.12,0.17-0.3,0.2-0.57-0.12c0.01-0.01,0.02-0.01,0.04-0.02C39.53,32.82,39.58,32.83,39.62,32.83z"/>
<path class="st5" d="M37.77,36.77c0,0-0.77,2.17-1.09,2.47c-0.31,0.3-0.78,0.23-1.05-0.22s0.95-2.42,0.95-2.42L37.77,36.77z"/>
<path class="st9" d="M37.3,38.04c0.51-0.82,0.94-1.86,1.12-2.51c0.09-0.33-0.22-0.8-0.56-0.89c-0.34-0.09-0.59,0.07-0.86,0.38
	l-1.09,2.07L37.3,38.04z"/>
<path class="st10" d="M35.26,34.01c0-0.06,0.01-0.11,0.02-0.17c0.07-0.39-0.05-1.35-0.6-0.07c-0.03,0.06-0.08,0.18-0.1,0.32
	c-0.01,0.08-0.01,0.18-0.02,0.27c0,0.08,0.01,0.15,0.04,0.23l0.14,0.85l0.72,3.53c0.16,0.81,1.31,0.77,1.41-0.05
	c0-0.01,0-0.02,0-0.02c-0.58-1.11-1.33-3.88-1.33-3.88s-0.06-0.22-0.16-0.4c-0.1-0.17-0.15-0.38-0.14-0.58L35.26,34.01z"/>
<path class="st10" d="M34.61,34.61c0,0-0.07-0.48-0.09-0.82c-0.01-0.16,0.05-0.38,0.05-0.38c0.01-0.01,0.01-0.02,0.02-0.03
	c0.02-0.01,0.04,0,0.06,0.02c0.01,0.02,0.02,0.04,0.02,0.06c0.01,0.12-0.02,0.24,0.04,0.35L34.61,34.61z"/>
<path class="st6" d="M38.19,33.45c-0.27-0.43-1.09-1.57-1.12-2.08c-0.04-0.53,0.11-1.09,0.49-1.45c0.24-0.23,0.56-0.37,0.88-0.48
	c0.44-0.15,1.61,0.02,1.99,0.33c0.4,0.34-0.97,0.51-1.64,0.91c-0.19,0.11-0.33,0.29-0.41,0.49L38.19,33.45z"/>
<path class="st6" d="M41.2,31.31c-0.1-0.08-0.21-0.16-0.31-0.24c-0.2-0.15-1.16-0.84-0.87-1.17c0.31-0.35,0.77,0.21,0.9,0.44
	c0.09,0.15,0.16,0.31,0.21,0.47C41.15,30.88,41.17,31.29,41.2,31.31z"/>
<path class="st16" d="M21.87,29.22l9.98,0.16c0.44,0.01,0.6-0.56,0.21-0.77l-3.62-1.88L21.87,29.22z"/>
<path class="st16" d="M4.97,14.38C8.32,8.51,22.32,7.59,29.8,10.9c7.48,3.3,4.73,11.98,0.78,15.61c-2.82,2.59-12.12,3.8-17.89,1.53
	C5.07,25.05,2.35,18.99,4.97,14.38z"/>
<path class="st17" d="M30.38,42.38c-0.03-0.47-0.28-0.9-0.59-1.2c0.04-1.01-0.38-1.88-1.07-2.1c-0.85-0.27-1.8,0.55-2.12,1.83
	c-0.16,0.65-0.13,1.3,0.06,1.81c-0.53,0.31-0.86,0.93-0.77,1.6c0.1,0.76,0.73,1.35,1.48,1.37c0.06,0,0.11,0,0.17,0
	c0.36-0.02,0.72,0,1.06,0.12c0.2,0.07,0.77,0.09,0.99,0.05c0.64-0.1,0.89-0.61,0.91-1.27c0.01-0.39-0.25-0.8-0.49-1.05
	C30.23,43.21,30.4,42.8,30.38,42.38z"/>
<path class="st18" d="M28.64,45.44c-0.02-0.39-0.23-0.73-0.49-0.99c0.03-0.83-0.31-1.54-0.88-1.72c-0.7-0.22-1.48,0.45-1.74,1.5
	c-0.13,0.53-0.1,1.07,0.05,1.49c-0.12,0.07-0.24,0.17-0.33,0.28h3.29C28.61,45.83,28.65,45.64,28.64,45.44z"/>
<g class="st3">
	<g>
		<defs>
			<rect id="SVGID_3_" width="56" height="56"/>
		</defs>
		<clipPath id="SVGID_4_">
			<use xlink:href="#SVGID_3_"  style="overflow:visible;"/>
		</clipPath>
		<rect x="27.97" y="14.9" class="st19" width="2.52" height="5.24"/>
		<path class="st19" d="M27.97,14.42h2.52v-1.44c0-0.49-0.4-0.89-0.89-0.89h-1.62V14.42z"/>
		<rect x="24.98" y="14.87" class="st19" width="2.52" height="5.24"/>
		<path class="st19" d="M24.98,14.42h2.52V12.1h-1.62c-0.49,0-0.89,0.4-0.89,0.89V14.42z"/>
	</g>
</g>
<path class="st5" d="M27.63,20.33c0.05,0.05,0.13,0.06,0.19,0.02L28.79,20l0.65-0.32c0.12-0.06,0.26-0.09,0.39-0.1
	c0,0,0.19,0,0.3,0.02c0.11,0.01,0.25,0.08,0.25,0.08c0.01,0.01,0.01,0.01,0.02,0.02c0,0.01-0.01,0.03-0.02,0.04
	c-0.01,0.01-0.03,0.01-0.05,0c-0.08-0.01-0.16-0.04-0.24-0.02c0.09,0.04,0.17,0.07,0.26,0.1c0.03,0.01,0.05,0.02,0.08,0.03
	c0.02,0.02,0.04,0.04,0.04,0.07c0,0.01,0,0.02-0.01,0.02c-0.01,0.01-0.03,0.01-0.04,0c-0.08-0.02-0.16-0.04-0.24-0.04
	c-0.02,0-0.04,0-0.06,0.01c0.06,0.02,0.1,0.07,0.15,0.09c0.05,0.02,0.1,0.05,0.12,0.1c0,0,0,0.01,0,0.02c0,0.01-0.01,0.01-0.02,0.02
	c-0.04,0.02-0.08,0.01-0.12,0c-0.08-0.02-0.16-0.03-0.24-0.05c-0.06-0.01-0.13-0.02-0.17,0.02l-1.14,0.66c0,0-0.73,0.5-1.08,0.68
	c-0.35,0.18-1.59-1.89-1.71-2.25l0.84-0.09L27.63,20.33z"/>
<path class="st6" d="M24.6,18.38c-0.08,0.49-0.02,0.98,0.04,1.47c0.01,0.09,0.09,0.26,0.18,0.29c0.27-0.15,0.56,0.07,0.86-0.01
	c0.18-0.05,0.36-0.04,0.53-0.11c0.59-0.23,1.2-1.2,1.24-1.83c0.01-0.12,0-0.25,0.03-0.37c0.01-0.02,0.01-0.04,0.02-0.06
	c0.02-0.04,0.03-0.09,0.05-0.13c0.01-0.04,0.02-0.07,0.03-0.11c0.06-0.19,0.14-0.38,0.19-0.57c0.07-0.28,0.03-0.59-0.09-0.86
	c-0.07-0.15-0.17-0.28-0.21-0.44c-0.01-0.04-0.02-0.08-0.03-0.12c-0.02-0.15-0.07-0.3-0.16-0.42l0-0.01
	c-0.05-0.07-0.1-0.15-0.17-0.2c-0.08-0.06-0.18-0.09-0.27-0.11c-0.41-0.11-0.83-0.22-1.26-0.26c-0.31-0.03-0.61,0.08-0.81,0.32
	c-0.01,0.01-0.02,0.02-0.03,0.04c0,0,0,0,0,0.01c-0.19,0.25-0.26,0.66-0.26,0.97c0,0.31,0.07,0.52,0.17,0.82
	c0.06,0.19,0.13,0.38,0.15,0.58C24.8,17.63,24.66,18,24.6,18.38z"/>
<path class="st7" d="M27.06,17.32c-0.05,0.12-0.12,0.23-0.16,0.35c-0.06,0.17-0.09,0.36-0.08,0.54c0.01,0.15,0.04,0.31,0.04,0.46
	c0,0.38-0.23,0.73-0.49,0.96c-0.12,0.12-0.26,0.22-0.42,0.24c-0.26,0.04-0.5-0.18-0.61-0.45c-0.11-0.28-0.11-0.61-0.06-0.92
	c0.05-0.31,0.13-0.61,0.18-0.92c0.06-0.36,0.07-0.74,0.03-1.1c-0.02-0.16-0.05-0.33-0.03-0.49c0.04-0.33,0.26-0.6,0.52-0.73
	c0.21-0.11,0.43-0.14,0.65-0.15c0.14-0.01,0.3-0.03,0.4,0.1c0.23,0.32,0.27,0.92,0.23,1.33C27.23,16.81,27.16,17.08,27.06,17.32z"/>
<path class="st20" d="M26.6,18.6l0.87,1.15c0,0.01,0.01,0.01,0.01,0.02c-0.29,0.18-0.75,0.42-1.03,0.63
	c-0.34-0.5-0.64-1.13-0.77-1.53c-0.07-0.2,0.12-0.47,0.32-0.52S26.43,18.4,26.6,18.6z"/>
<path class="st20" d="M23.48,26.15h4.36l-1.18-5.37l0.22-0.88c0.15-0.62-0.08-1.27-0.61-1.63c-0.24-0.16-0.53-0.25-0.86-0.25
	c-1.3,0-1.18,1.55-1.16,3.77L23.48,26.15z"/>
<path class="st20" d="M24.26,21.69c-0.05-1.13,0.05-2.44,0.32-3.06c0.02-0.01,0.05-0.01,0.07-0.02c0.2-0.06,0.38-0.1,0.59-0.07
	c0.22,0.62,0,1.3-0.21,1.92c-0.03,0.09-0.07,0.19-0.14,0.26c-0.03,0.03-0.07,0.06-0.11,0.1c-0.05,0.05-0.07,0.12-0.09,0.19
	C24.58,21.28,24.44,21.73,24.26,21.69z"/>
<path class="st10" d="M25.4,18.01c0.44,0,0.77,0.16,1.01,0.42c0.05,0.25-0.02,0.41-0.27,0.43c-0.54,0-1.03-0.49-1.18-0.78
	C25.09,18.04,25.23,18.01,25.4,18.01z"/>
<path class="st5" d="M26.18,18.26c0.01-0.29-0.04-0.97,0.05-0.98l-0.88-0.41c0,0.4,0.09,0.82-0.09,1.34
	C25.68,18.63,26.16,18.54,26.18,18.26z"/>
<path class="st10" d="M25.25,17.14c0.25,0.24,0.59,0.39,0.92,0.49c0.12,0.04,0.31,0.02,0.44-0.02c0.08-0.03,0.15-0.09,0.2-0.15
	c0.15-0.17,0.27-0.47,0.32-0.69c0.06-0.31,0-0.76-0.08-1.06c-0.08-0.3-0.14-0.55-0.4-0.71c-0.09-0.06-0.19-0.1-0.3-0.13
	c-0.14-0.05-0.29-0.08-0.44-0.08c-0.6-0.03-1.07,0.41-1.07,1.02C24.83,16.41,24.97,16.85,25.25,17.14z"/>
<path class="st11" d="M25.84,16.05c0.01,0,0.01,0,0.02-0.01c0.07-0.07,0.19-0.12,0.32-0.07c0.01,0,0.03,0,0.03-0.01
	c0-0.01,0-0.03-0.01-0.03c-0.15-0.06-0.29,0.01-0.37,0.08c-0.01,0.01-0.01,0.02,0,0.03C25.83,16.04,25.83,16.05,25.84,16.05z"/>
<path class="st11" d="M26.96,15.93c0.01,0,0.02,0,0.02-0.01c0.01-0.01,0-0.03-0.01-0.03c-0.1-0.06-0.26-0.1-0.39-0.02
	c-0.01,0.01-0.02,0.02-0.01,0.03c0.01,0.01,0.02,0.02,0.03,0.01c0.11-0.06,0.25-0.03,0.34,0.02C26.95,15.92,26.96,15.93,26.96,15.93
	z"/>
<path class="st12" d="M26.02,16.37c0.05,0,0.11-0.01,0.15-0.02c0.02,0,0.02-0.02,0.02-0.04c0-0.02-0.02-0.02-0.04-0.02
	c-0.06,0.02-0.14,0.02-0.21,0.01c-0.02,0-0.03,0.01-0.03,0.03c0,0.02,0.01,0.03,0.03,0.03C25.97,16.37,26,16.37,26.02,16.37z"/>
<path class="st12" d="M26.83,16.34c0.03,0,0.05,0,0.08,0c0.02,0,0.03-0.02,0.03-0.03c0-0.02-0.02-0.03-0.03-0.03
	c-0.07,0.01-0.15,0-0.21-0.01c-0.02,0-0.03,0-0.04,0.02c0,0.02,0,0.03,0.02,0.04C26.72,16.33,26.77,16.34,26.83,16.34z"/>
<path class="st13" d="M26.55,16.7c0,0,0.01,0,0.01,0h0c0.02,0,0.05,0,0.07-0.02c0.01-0.01,0.06-0.04,0.04-0.09
	c-0.01-0.03-0.03-0.04-0.05-0.06c-0.02-0.01-0.03-0.02-0.06-0.04c-0.01-0.01-0.03-0.01-0.04,0c-0.01,0.01-0.01,0.03,0,0.04
	c0.03,0.03,0.05,0.04,0.07,0.05c0.02,0.01,0.02,0.01,0.03,0.03c0,0.01,0,0.02-0.02,0.03c-0.01,0.01-0.03,0.01-0.05,0.01h0
	c-0.04,0-0.06,0-0.07-0.02c-0.01-0.01-0.02-0.01-0.04,0c-0.01,0.01-0.01,0.02,0,0.04C26.48,16.7,26.52,16.7,26.55,16.7z"/>
<path class="st14" d="M26.67,16.94c0.02-0.01,0.01,0.02,0,0.04c-0.1,0.28-0.24,0.5-0.59,0.05c-0.02-0.01,0-0.04,0.02-0.04
	C26.31,16.99,26.52,16.97,26.67,16.94z"/>
<path class="st15" d="M26.29,17.1c0.02,0,0.05,0.01,0.08,0.01c0.03,0,0.05,0,0.08,0.01c0.05,0.01,0.09,0.03,0.12,0.07
	c0,0,0,0.01,0.01,0.01c-0.09,0.12-0.21,0.14-0.4-0.08c0.01,0,0.02-0.01,0.03-0.01C26.23,17.09,26.26,17.1,26.29,17.1z"/>
<path class="st5" d="M24.99,19.81c0,0-0.54,1.49-0.76,1.69c-0.22,0.21-0.54,0.16-0.74-0.15s0.66-1.66,0.66-1.66L24.99,19.81z"/>
<path class="st20" d="M24.66,20.68c0.36-0.56,0.66-1.27,0.79-1.72c0.07-0.23-0.15-0.55-0.39-0.61c-0.24-0.06-0.42,0.05-0.6,0.26
	l-0.77,1.42L24.66,20.68z"/>
<path class="st10" d="M23.24,17.91c0-0.04,0.01-0.08,0.02-0.12c0.05-0.27-0.04-0.93-0.42-0.05c-0.02,0.04-0.06,0.13-0.07,0.22
	c-0.01,0.05-0.01,0.13-0.01,0.18c0,0.05,0.01,0.11,0.02,0.16l0.09,0.59l0.51,2.42c0.12,0.55,0.92,0.53,0.99-0.03c0,0,0-0.01,0-0.02
	c-0.41-0.76-0.93-2.66-0.93-2.66s-0.04-0.15-0.11-0.27c-0.07-0.12-0.1-0.26-0.09-0.4L23.24,17.91z"/>
<path class="st10" d="M22.78,18.32c0,0-0.05-0.33-0.06-0.56c0-0.11,0.03-0.26,0.03-0.26c0-0.01,0.01-0.01,0.02-0.02
	c0.01-0.01,0.03,0,0.04,0.01c0.01,0.01,0.01,0.03,0.01,0.04c0.01,0.08-0.01,0.17,0.03,0.24L22.78,18.32z"/>
<path class="st6" d="M25.29,17.53c-0.19-0.3-0.76-1.08-0.79-1.43c-0.03-0.36,0.08-0.75,0.34-1c0.17-0.16,0.39-0.25,0.62-0.33
	c0.31-0.11,1.13,0.01,1.39,0.23c0.28,0.23-0.68,0.35-1.15,0.62c-0.13,0.08-0.23,0.2-0.28,0.34L25.29,17.53z"/>
<path class="st6" d="M27.4,16.06c-0.07-0.05-0.14-0.11-0.22-0.16c-0.14-0.1-0.81-0.58-0.61-0.8c0.22-0.24,0.54,0.15,0.63,0.3
	c0.06,0.1,0.11,0.21,0.15,0.33C27.37,15.77,27.38,16.04,27.4,16.06z"/>
<g class="st21">
	<g>
		<defs>
			<rect id="SVGID_5_" width="56" height="56"/>
		</defs>
		<clipPath id="SVGID_6_">
			<use xlink:href="#SVGID_5_"  style="overflow:visible;"/>
		</clipPath>
		<path class="st22" d="M19.28,17.53c-0.21-0.09-0.53,0.16-0.33,0.35s0.42,0.02,0.46-0.07C19.44,17.71,19.42,17.58,19.28,17.53z"/>
		<path class="st23" d="M18.33,17.39c-0.21-0.09-0.53,0.16-0.33,0.35s0.42,0.02,0.46-0.07C18.48,17.58,18.46,17.45,18.33,17.39z"/>
		<path class="st24" d="M17.86,18.18c-0.21-0.09-0.53,0.16-0.33,0.35c0.19,0.18,0.42,0.02,0.46-0.07
			C18.02,18.37,18,18.24,17.86,18.18z"/>
		<path class="st25" d="M18.51,18.74c-0.21-0.09-0.53,0.16-0.33,0.35c0.19,0.18,0.42,0.02,0.46-0.07
			C18.67,18.93,18.65,18.8,18.51,18.74z"/>
		<path class="st26" d="M19.38,18.49c-0.21-0.09-0.53,0.16-0.33,0.35c0.19,0.18,0.42,0.02,0.46-0.07
			C19.54,18.68,19.51,18.55,19.38,18.49z"/>
		<path class="st27" d="M18.71,17.89c-0.29-0.13-0.75,0.23-0.48,0.49c0.28,0.26,0.6,0.02,0.65-0.1
			C18.93,18.16,18.9,17.98,18.71,17.89z"/>
		
			<rect x="18.89" y="18.31" transform="matrix(0.6305 -0.7762 0.7762 0.6305 -7.3404 21.5148)" class="st28" width="0.08" height="0.31"/>
		
			<rect x="18.33" y="18.57" transform="matrix(0.155 -0.9879 0.9879 0.155 -2.7995 33.9433)" class="st28" width="0.22" height="0.08"/>
		
			<rect x="17.99" y="18.24" transform="matrix(0.9959 -0.0904 0.0904 0.9959 -1.5788 1.7092)" class="st28" width="0.16" height="0.08"/>
		
			<rect x="18.32" y="17.77" transform="matrix(0.9566 -0.2913 0.2913 0.9566 -4.4014 6.1205)" class="st28" width="0.08" height="0.14"/>
		
			<rect x="18.81" y="17.9" transform="matrix(0.9308 -0.3655 0.3655 0.9308 -5.2472 8.1488)" class="st28" width="0.18" height="0.08"/>
		<path class="st25" d="M15.19,16.39h-1.05h-0.6c-0.07,0-0.12-0.06-0.12-0.13v-0.5c0-0.07,0.05-0.13,0.12-0.13h1.65
			c0.07,0,0.12,0.06,0.12,0.13v0.5C15.31,16.34,15.26,16.39,15.19,16.39z"/>
		<path class="st26" d="M15.19,17.57h-1.05h-0.6c-0.07,0-0.12-0.06-0.12-0.13v-0.5c0-0.07,0.05-0.13,0.12-0.13h1.65
			c0.07,0,0.12,0.06,0.12,0.13v0.5C15.31,17.51,15.26,17.57,15.19,17.57z"/>
		<path class="st28" d="M12.35,15.15c-0.04-0.01-0.04-0.01-0.04-0.01c0,0,0,0,0,0c0,0,0,0,0,0c0,0,0,0,0,0c0,0,0,0,0,0
			c0,0,0,0.01,0,0.01c0,0.01-0.01,0.02-0.01,0.04c-0.01,0.04-0.03,0.09-0.04,0.15c-0.03,0.13-0.05,0.29-0.04,0.46
			c0.01,0.17,0.06,0.34,0.18,0.47c0.12,0.13,0.31,0.21,0.6,0.21l0-0.08c-0.27,0-0.44-0.07-0.54-0.19c-0.1-0.11-0.15-0.27-0.16-0.42
			c-0.01-0.16,0.01-0.32,0.04-0.44c0.01-0.06,0.03-0.11,0.04-0.15c0.01-0.02,0.01-0.03,0.01-0.04c0,0,0-0.01,0-0.01c0,0,0,0,0,0
			c0,0,0,0,0,0c0,0,0,0,0,0c0,0,0,0,0,0C12.38,15.17,12.38,15.17,12.35,15.15z M12.99,16.49c0.02,0,0.04-0.02,0.04-0.04
			c0-0.02-0.02-0.04-0.04-0.04L12.99,16.49z M12.38,15.17c0.01-0.02,0-0.04-0.02-0.05c-0.02-0.01-0.04,0-0.05,0.02L12.38,15.17z"/>
		<polygon class="st28" points="12.67,16.8 12.61,16.73 12.96,16.44 12.64,16.13 12.71,16.07 13.09,16.45 		"/>
		<path class="st28" d="M15.15,15.12c0.17-0.15,0.25-0.36,0.25-0.59c0-0.22-0.07-0.46-0.19-0.64c-0.12-0.18-0.31-0.32-0.53-0.33
			c-0.22-0.02-0.47,0.08-0.73,0.35L14,13.96c0.25-0.25,0.48-0.34,0.67-0.32c0.19,0.02,0.35,0.13,0.47,0.3
			c0.12,0.17,0.18,0.38,0.18,0.59c0,0.21-0.07,0.4-0.22,0.53L15.15,15.12z M13.95,13.91c-0.02,0.02-0.01,0.04,0,0.06
			c0.02,0.02,0.04,0.01,0.06,0L13.95,13.91z M15.1,15.06c-0.02,0.01-0.02,0.04,0,0.05c0.01,0.02,0.04,0.02,0.05,0L15.1,15.06z"/>
		<path class="st27" d="M14,15.15h-1.16h-0.66c-0.07,0-0.13-0.06-0.13-0.13v-0.5c0-0.07,0.06-0.13,0.13-0.13H14
			c0.07,0,0.13,0.06,0.13,0.13v0.5C14.13,15.1,14.07,15.15,14,15.15z"/>
		<path class="st28" d="M16.53,18.48c0,0.03,0.02,0.06,0.04,0.08c0.02,0.02,0.05,0.05,0.08,0.07c0.06,0.04,0.14,0.09,0.22,0.13
			c0.08,0.04,0.16,0.07,0.21,0.1c0.03,0.01,0.05,0.02,0.07,0.03c0.01,0,0.02,0.01,0.02,0.01c0,0,0,0,0.01,0c0,0,0,0,0,0c0,0,0,0,0,0
			c0,0,0,0,0,0c0,0,0,0,0,0c0,0,0,0,0.01-0.04c0.01-0.04,0.01-0.04,0.01-0.04c0,0,0,0,0,0c0,0,0,0,0,0c0,0,0,0,0,0c0,0,0,0,0,0
			c0,0,0,0,0,0c0,0-0.01,0-0.02-0.01c-0.02-0.01-0.04-0.02-0.07-0.03c-0.06-0.02-0.13-0.06-0.21-0.1c-0.08-0.04-0.15-0.08-0.21-0.12
			c-0.03-0.02-0.05-0.04-0.07-0.06c-0.02-0.02-0.02-0.03-0.02-0.04L16.53,18.48z M17.11,17.99c-0.02-0.03-0.02-0.03-0.02-0.03
			c0,0,0,0,0,0c0,0,0,0,0,0c0,0,0,0,0,0c0,0,0,0,0,0c0,0,0,0,0,0c0,0-0.01,0.01-0.02,0.01C17.05,17.98,17.03,18,17,18.02
			c-0.05,0.03-0.12,0.08-0.19,0.13c-0.07,0.05-0.14,0.11-0.19,0.17c-0.03,0.03-0.05,0.06-0.06,0.08c-0.02,0.03-0.03,0.06-0.02,0.09
			l0.08-0.01c0-0.01,0-0.02,0.01-0.04c0.01-0.02,0.03-0.04,0.05-0.07c0.05-0.05,0.11-0.11,0.18-0.16c0.07-0.05,0.14-0.1,0.19-0.13
			c0.03-0.02,0.05-0.03,0.06-0.04c0.01,0,0.01-0.01,0.02-0.01c0,0,0,0,0,0c0,0,0,0,0,0c0,0,0,0,0,0c0,0,0,0,0,0c0,0,0,0,0,0
			C17.13,18.03,17.13,18.03,17.11,17.99z M17.18,18.9c0.02,0.01,0.04,0,0.05-0.02c0.01-0.02,0-0.04-0.02-0.05L17.18,18.9z
			 M17.13,18.03c0.02-0.01,0.02-0.04,0.01-0.05c-0.01-0.02-0.04-0.02-0.05-0.01L17.13,18.03z"/>
		<ellipse class="st22" cx="15.58" cy="18.64" rx="0.4" ry="0.39"/>
		<path class="st28" d="M19.25,15.93c0,0.01,0,0.02-0.01,0.04c-0.01,0.02-0.03,0.04-0.05,0.07c-0.05,0.05-0.11,0.11-0.18,0.16
			c-0.07,0.05-0.14,0.1-0.19,0.13c-0.03,0.02-0.05,0.03-0.06,0.04c-0.01,0-0.01,0.01-0.02,0.01c0,0,0,0,0,0c0,0,0,0,0,0c0,0,0,0,0,0
			c0,0,0,0,0,0c0,0,0,0,0,0c0,0,0,0,0.02,0.03c0.02,0.03,0.02,0.03,0.02,0.03c0,0,0,0,0,0c0,0,0,0,0,0c0,0,0,0,0,0c0,0,0,0,0,0
			c0,0,0,0,0,0c0,0,0.01-0.01,0.02-0.01c0.02-0.01,0.04-0.02,0.06-0.04c0.05-0.03,0.12-0.08,0.19-0.14
			c0.07-0.05,0.14-0.11,0.19-0.17c0.03-0.03,0.05-0.06,0.06-0.08c0.02-0.03,0.03-0.06,0.02-0.09L19.25,15.93z M18.66,15.55
			c-0.01,0.04-0.01,0.04-0.01,0.04c0,0,0,0,0,0c0,0,0,0,0,0c0,0,0,0,0,0c0,0,0,0,0,0c0,0,0,0,0.01,0c0,0,0.01,0,0.02,0.01
			c0.02,0.01,0.04,0.02,0.07,0.03c0.06,0.02,0.13,0.06,0.21,0.1c0.08,0.04,0.15,0.08,0.21,0.12c0.03,0.02,0.05,0.04,0.07,0.06
			c0.02,0.02,0.02,0.03,0.02,0.04l0.08-0.01c0-0.03-0.02-0.06-0.04-0.08c-0.02-0.02-0.05-0.05-0.08-0.07
			c-0.06-0.04-0.14-0.09-0.22-0.13c-0.08-0.04-0.16-0.07-0.21-0.1c-0.03-0.01-0.05-0.02-0.07-0.03c-0.01,0-0.02-0.01-0.02-0.01
			c0,0,0,0-0.01,0c0,0,0,0,0,0c0,0,0,0,0,0c0,0,0,0,0,0c0,0,0,0,0,0C18.68,15.51,18.68,15.51,18.66,15.55z M18.73,16.38
			c-0.02,0.01-0.02,0.04-0.01,0.05c0.01,0.02,0.04,0.02,0.05,0.01L18.73,16.38z M18.68,15.51c-0.02-0.01-0.04,0-0.05,0.02
			c-0.01,0.02,0,0.04,0.02,0.05L18.68,15.51z"/>
		<ellipse class="st24" cx="20.13" cy="15.92" rx="0.4" ry="0.39"/>
		<path class="st23" d="M18.07,15.5c-0.26-0.11-0.66,0.21-0.41,0.43c0.24,0.23,0.52,0.02,0.57-0.09
			C18.27,15.73,18.24,15.57,18.07,15.5z"/>
		<path class="st27" d="M17.35,15.96c-0.37-0.16-0.94,0.29-0.59,0.62c0.35,0.32,0.75,0.03,0.81-0.13
			C17.63,16.29,17.59,16.06,17.35,15.96z"/>
		
			<rect x="17.48" y="15.97" transform="matrix(0.9277 -0.3734 0.3734 0.9277 -4.7057 7.7287)" class="st28" width="0.23" height="0.08"/>
		<path class="st27" d="M17.89,13.69c-0.24-0.15-0.68,0.11-0.48,0.37c0.21,0.26,0.52,0.09,0.58-0.01
			C18.05,13.95,18.05,13.78,17.89,13.69z"/>
		<path class="st26" d="M17.1,14.04c-0.34-0.21-0.97,0.16-0.68,0.52c0.29,0.37,0.73,0.13,0.82-0.01
			C17.33,14.41,17.33,14.18,17.1,14.04z"/>
		
			<rect x="17.23" y="14.09" transform="matrix(0.9719 -0.2353 0.2353 0.9719 -2.8369 4.4761)" class="st28" width="0.23" height="0.08"/>
		<path class="st28" d="M18.35,13.98L18.83,14l0-0.08l-0.48-0.02L18.35,13.98z M18.83,14c0.02,0,0.04-0.02,0.04-0.04
			s-0.02-0.04-0.04-0.04L18.83,14z M18.35,13.9c-0.02,0-0.04,0.02-0.04,0.04c0,0.02,0.02,0.04,0.04,0.04L18.35,13.9z"/>
		<path class="st28" d="M18.33,14.21l0.47,0.02l0-0.08l-0.47-0.02L18.33,14.21z M18.81,14.24c0.02,0,0.04-0.02,0.04-0.04
			s-0.02-0.04-0.04-0.04L18.81,14.24z M18.34,14.14c-0.02,0-0.04,0.02-0.04,0.04s0.02,0.04,0.04,0.04L18.34,14.14z"/>
		<path class="st25" d="M20.02,14.51l-0.53-0.03l-0.3-0.01c-0.03,0-0.06-0.06-0.05-0.13l0.03-0.5c0-0.07,0.03-0.13,0.07-0.13
			l0.83,0.04c0.03,0,0.06,0.06,0.05,0.13l-0.03,0.5C20.08,14.45,20.06,14.51,20.02,14.51z"/>
		<path class="st28" d="M15.01,13.74c0.02,0.03,0.02,0.03,0.02,0.03c0,0,0,0,0,0c0,0,0,0,0,0c0,0,0,0,0,0c0,0,0,0,0,0
			c0,0,0,0,0.01-0.01c0.01-0.01,0.02-0.01,0.03-0.02c0.03-0.02,0.07-0.05,0.12-0.08c0.11-0.07,0.26-0.15,0.44-0.23
			c0.37-0.15,0.86-0.25,1.37-0.07l0.03-0.07c-0.54-0.19-1.05-0.09-1.43,0.07c-0.19,0.08-0.35,0.16-0.45,0.23
			c-0.05,0.03-0.1,0.06-0.13,0.09c-0.01,0.01-0.03,0.02-0.03,0.03c0,0-0.01,0.01-0.01,0.01c0,0,0,0,0,0c0,0,0,0,0,0c0,0,0,0,0,0
			c0,0,0,0,0,0C14.99,13.71,14.99,13.71,15.01,13.74z M17.02,13.36c0.02,0.01,0.04,0,0.05-0.02c0.01-0.02,0-0.04-0.02-0.05
			L17.02,13.36z M14.99,13.71c-0.02,0.01-0.02,0.04-0.01,0.05c0.01,0.02,0.04,0.02,0.05,0.01L14.99,13.71z"/>
		<polygon class="st28" points="16.62,13.59 16.58,13.51 16.99,13.32 16.77,12.94 16.85,12.89 17.12,13.36 		"/>
	</g>
</g>
</svg>
