<?xml version="1.0" encoding="utf-8"?>
<!-- Generator: Adobe Illustrator 24.2.1, SVG Export Plug-In . SVG Version: 6.00 Build 0)  -->
<svg version="1.1" id="Layer_1" xmlns="http://www.w3.org/2000/svg" xmlns:xlink="http://www.w3.org/1999/xlink" x="0px" y="0px"
	 viewBox="0 0 56 56" style="enable-background:new 0 0 56 56;" xml:space="preserve">
<style type="text/css">
	.st0{fill:#CFE2FC;}
	.st1{fill:#E5D8C6;}
	.st2{fill:#FDC9A6;}
	.st3{fill:#BA7196;}
	.st4{fill:#943B70;}
	.st5{fill:#CE8394;}
	.st6{fill:#A3D8DD;}
	.st7{fill:#F9BDA0;}
	.st8{fill:#6B6473;}
	.st9{fill:#5C294B;}
	.st10{fill:#D39E8C;}
	.st11{fill:#EFB097;}
	.st12{fill:#E2AD96;}
	.st13{fill:#7685A4;}
	.st14{fill:#5BB7C0;}
	.st15{fill:#90ADFF;}
	.st16{fill:#B9CFFF;}
	.st17{fill:#EFF4F4;}
	.st18{fill:#FFE7BA;}
	.st19{fill:#F3C1AE;}
	.st20{fill:#FAAD77;}
	.st21{fill:#553072;}
	.st22{fill:#77C1CC;}
	.st23{fill:#DDE06D;}
	.st24{fill:#DFED77;}
	.st25{fill:#FFFFFF;}
	.st26{fill:#C6D15E;}
	.st27{fill:#BFCD4D;}
	.st28{fill:#F6EFE3;}
	.st29{fill:#EDB169;}
	.st30{fill:#FFC577;}
	.st31{fill:#7B6766;}
	.st32{fill:#C19881;}
</style>
<path class="st0" d="M53.05,56H2.95C1.32,56,0,54.68,0,53.05V2.95C0,1.32,1.32,0,2.95,0h50.1C54.68,0,56,1.32,56,2.95v50.1
	C56,54.68,54.68,56,53.05,56z"/>
<rect x="31.34" y="45.27" class="st1" width="1.23" height="1.73"/>
<rect x="25.48" y="45.27" class="st1" width="1.23" height="1.73"/>
<rect x="10.09" y="45.27" class="st1" width="0.54" height="1.73"/>
<path class="st2" d="M18.88,33.86c-0.02,0.01-0.03,0.02-0.03,0.04c0,0-0.06,0.31-0.02,0.53c0.03,0.2,0.15,0.21,0.13,0.22
	c0.13-0.07-0.19-0.01-0.34,0.01c-0.06,0.01-0.13,0.02-0.16,0.07c-0.04,0.05-0.05,0.13,0,0.17s0.12,0.01,0.17,0.01
	c0.09,0,0.29,0.09,0.38,0.12c0.07,0.02,0.08,0.07,0.15,0.11c0.15,0.1,0.19,0.17,0.41,0.46c1.9,2.5,2.11,2.42,3.19,2.6
	c0.57,0.1,2.89,0.19,2.89,0.19l0.34-1.19c-0.99-0.34-3.18-0.22-3.77-0.62c-0.38-0.26-2.23-1.62-2.23-1.62l-0.09-0.25
	c-0.01-0.12-0.07-0.14-0.13-0.27c-0.04-0.13-0.17-0.18-0.22-0.23c-0.04-0.05-0.13-0.12-0.24-0.18c-0.11-0.06-0.21-0.07-0.22-0.1
	c0-0.03-0.09-0.04-0.12-0.06C18.95,33.85,18.91,33.84,18.88,33.86z"/>
<path class="st3" d="M27.09,37.67c0.39,0.28,0.64,0.52,0.55,0.9L27.09,37.67z"/>
<path class="st4" d="M23.68,36.67c-0.11,0.62-0.22,1.33-0.38,1.89c1.14,0.17,2.47,0.28,3.28,0.19c0.4-0.05,0.9-0.7,0.83-1.08
	C27.4,37.68,26.58,36.84,23.68,36.67z"/>
<path class="st5" d="M22.77,38.16c2.24-1.07,3.28-0.93,4.56-0.55c0.57,0.39,0.9,1.97-1.08,1.68c0.29,0.18-1.32-0.43-1.11-0.09
	c0.18,0.3,1.44-0.24,3.09-0.1c0.08,0.01,0.03,0.17,0.03,0.27c-0.01,1.38-1.91,2.63-4.62,4.01l-2.22,1.15l-2.83-5.23L22.77,38.16z"/>
<path class="st2" d="M27.77,38.73c-0.22-0.61,0.21-0.82-0.32-1c-0.23-0.08-0.54-0.07-0.54-0.07c-0.59,0.09-1,0.35-0.81,0.7
	c0.45,0.74,1.58,0.77,2.13,0.74c-0.04-0.22,0.04-0.14-0.1-0.36"/>
<path class="st6" d="M23.09,41.23c-0.57-0.2-1.42-0.37-1.82-1.02L23.36,40c0.44,0.02,0.88,0.05,1.32,0.07
	c1.1,0.06,2.2,0.11,3.29,0.08c0,0,0,0,0,0.01c0.08,0.39-0.12,0.79-0.48,1c-0.47,0.27-1,0.61-1.3,0.79c-0.79,0.07-0.99-0.1-1.87-0.17
	l-0.96-0.23L23.09,41.23z"/>
<path class="st6" d="M27.01,39.09l-2.84-0.14c-0.02,0-0.04,0-0.05-0.01c-0.06,0.66-0.1,1.68-0.22,2.33
	c1.27,0.16,2.66-0.01,3.53-0.12C28.33,40.51,28.59,39.44,27.01,39.09z"/>
<path class="st7" d="M27.82,39.23l-0.49-0.73c-0.01-0.01-0.05-0.07-0.07-0.11c-0.11-0.2,0.03-0.53,0.22-0.73l0.31-0.44
	c0.06-0.07,0.17-0.07,0.25-0.02l1.06,0.77c0.07,0.05,0.09,0.14,0.05,0.21l-0.39,0.66c-0.01,0.01-0.02,0.03-0.03,0.04
	c-0.21,0.2-0.78,0.56-0.99,0.39"/>
<path class="st2" d="M27.53,37.73c0.98,0.36,2.07,1.22,3.74-0.11c1.15-0.92,1.4-2.43,0.35-3.28c-0.31-0.25-0.69-0.42-1.1-0.51
	c-0.03-0.01-0.07-0.01-0.1-0.02c-0.46-0.08-0.93,0.05-1.29,0.31c-0.03,0.02-0.06,0.05-0.09,0.07c-0.37,0.28-0.74,0.56-1.11,0.83
	c-0.39,0.3-0.81,0.61-0.95,1.06c-0.12,0.38-0.04,0.8,0.14,1.19C27.22,37.44,27.38,37.57,27.53,37.73z"/>
<path class="st8" d="M29.95,38.17c1.42,0.43,1.71-0.17,2.36-1.21c0.19-0.31,0.35-0.42,0.43-1.07c0.08-0.65-0.22-1.06-0.95-1.6
	c-0.23-0.75-1.08-1.16-1.66-0.65c-0.05,0.04-0.08,0.08-0.11,0.14c-0.29,0.01-0.57,0.11-0.8,0.27c-0.04,0.03-0.08,0.06-0.12,0.08
	c0.23-0.07,0.47-0.13,0.71-0.16c0.06-0.01,0.12-0.02,0.18-0.03c0.01,0.14,0.1,0.31,0.29,0.53c0.06,0.07,0.16,0.17,0.23,0.23
	c0.49,0.4,0.45,1.25,1.05,1.51l-0.37,0.12c-0.13,0.45-0.42,0.85-0.81,1.13c-0.07,0.05-0.11,0.13-0.1,0.21l0.01,0.26L29.95,38.17z"/>
<path class="st7" d="M30.69,38.37c0.35-0.07,0.75-0.33,0.65-0.69c-0.08-0.28-0.45-0.28-0.6-0.27c-0.04,0-0.07,0.02-0.1,0.04
	l-0.69,0.58c-0.1,0.08-0.07,0.23,0.05,0.28C30.19,38.38,30.46,38.41,30.69,38.37z"/>
<path class="st8" d="M30.05,36.31c0.01,0.01,0.03,0.02,0.05,0.02c0.04,0,0.07-0.02,0.07-0.06c0.01-0.18-0.07-0.42-0.32-0.55
	c-0.03-0.02-0.07-0.01-0.09,0.02c-0.02,0.03-0.01,0.07,0.02,0.08c0.2,0.1,0.26,0.29,0.25,0.43C30.04,36.28,30.04,36.3,30.05,36.31z"
	/>
<path class="st8" d="M28.68,34.66c0.01,0.01,0.02,0.01,0.03,0.02c0.16,0.03,0.44,0.16,0.49,0.4c0,0.03,0.03,0.04,0.06,0.04
	c0.03,0,0.05-0.03,0.04-0.06c-0.06-0.28-0.38-0.44-0.57-0.47c-0.03,0-0.06,0.01-0.06,0.04C28.67,34.64,28.67,34.65,28.68,34.66z"/>
<path class="st9" d="M29.37,36.11c-0.06,0.05-0.08,0.12-0.04,0.16c0.05,0.05,0.18,0.02,0.28-0.06c0.1-0.09,0.08-0.17-0.01-0.18
	C29.52,36.01,29.43,36.05,29.37,36.11z"/>
<path class="st9" d="M28.72,35.29c-0.07,0.05-0.14,0.05-0.17,0.01c-0.04-0.05,0-0.17,0.11-0.24c0.11-0.07,0.19-0.04,0.19,0.04
	C28.85,35.17,28.79,35.25,28.72,35.29z"/>
<path class="st10" d="M27.9,35.92c-0.01-0.04-0.04,0-0.06,0.02c-0.26,0.4-0.37,0.8,0.7,0.93c0.04,0.01,0.06-0.04,0.03-0.06
	C28.3,36.51,28.05,36.19,27.9,35.92z"/>
<path class="st11" d="M28.13,36.64c-0.03-0.04-0.07-0.07-0.1-0.11c-0.03-0.04-0.06-0.08-0.1-0.11c-0.07-0.07-0.15-0.11-0.24-0.13
	c-0.01,0-0.01,0-0.02,0c-0.04,0.23,0.08,0.44,0.59,0.55c0-0.02-0.01-0.03-0.02-0.05C28.22,36.73,28.17,36.68,28.13,36.64z"/>
<path class="st12" d="M28.41,36.09c0.02,0.03,0.05,0.05,0.07,0.06c0.08,0.06,0.17,0.1,0.26,0.09c0.03,0,0.05-0.02,0.05-0.05
	c0-0.02-0.02-0.04-0.05-0.04c-0.07,0-0.14-0.03-0.2-0.07c-0.02-0.02-0.04-0.04-0.06-0.06c-0.03-0.04-0.06-0.08-0.09-0.13
	c-0.04-0.06-0.05-0.1-0.03-0.12c0.01-0.02,0.03-0.02,0.05-0.02c0.12,0.06,0.25,0.1,0.42,0.14c0.02,0,0.05-0.01,0.06-0.03
	c0-0.02-0.01-0.05-0.03-0.05c-0.16-0.03-0.29-0.07-0.4-0.13l-0.01,0c-0.06-0.01-0.12,0.01-0.15,0.05c-0.06,0.08,0,0.18,0.02,0.22
	C28.34,35.99,28.37,36.04,28.41,36.09L28.41,36.09z"/>
<path class="st13" d="M31.46,39.44c0,0-0.6-0.69-0.81-0.94c-0.07-0.09-1.48-0.59-0.5,0.17c0.19,0.15-0.59-0.42-1.89-0.34
	c-0.46,0.03-0.44,0.02-0.55,0.12s0.51,0.28,0.47,0.38c-0.03,0.1,0.16,0.6,0.28,0.63c0.08,0.02,0.52,1.35,1.86,0.87
	C31.04,40.08,31.46,39.44,31.46,39.44z"/>
<path class="st14" d="M28.19,39.66c-0.84-0.82,0.74-0.7,1.6-0.43c0.2,0.05-1.86-1.49-0.84-1.16c1.21,0.39,1.68,0.39,2.29,0.02
	c0.37-0.22-0.36,0.53,0.08-0.04c1.2-1.57,1.64-0.87,0.98-0.41c-0.62,0.42,1.11,2.14,0.66,2.57c-0.44,0.43-1.2,0.32-1.99,0.48
	c-0.8,0.16,0.57-0.11-0.95,0.09C28.52,40.97,29.03,40.48,28.19,39.66z"/>
<path class="st6" d="M26.98,40.25c0,0,0.32-0.78,0.63-1.02c0.31-0.24,0.52-0.16,0.65,0.06c0.13,0.22,2.89,0.55,3.35,0.36
	c0.46-0.19,0.78-0.42,0.92-0.34c0.14,0.08-0.25,0.55-0.18,0.65c0.06,0.1,0.3,1.05,0.17,1.11c-0.08,0.04-2.43,0.14-4.04-0.12
	C27.6,40.81,26.98,40.25,26.98,40.25z"/>
<path class="st7" d="M21.39,38.4c0.01-0.02,0.03-0.03,0.04-0.04c0.14-0.1,0.81-0.52,1.25-0.27c0.37,0.21,0.24,0.42,0.15,0.51
	c-0.03,0.03-0.07,0.05-0.12,0.05l-1.22,0.1c-0.15,0.01-0.25-0.14-0.16-0.26L21.39,38.4z"/>
<path class="st13" d="M13.78,36.86c-0.46,0.1-2.3,1.42-3.7,2.45v1.26l1.41,0.01c0,0,3.06-0.88,2.73-1.63
	c1.67,1.89,5.02,1.67,5.02,1.67l3.38,0.02C22.62,40.64,14.55,36.71,13.78,36.86z"/>
<path class="st15" d="M26.78,45.32H11.37c-0.63,0-1.13-0.47-1.13-1.05v-4.7c0-0.58,0.51-1.05,1.13-1.05h15.42
	c0.63,0,1.13,0.47,1.13,1.05v4.7C27.92,44.85,27.41,45.32,26.78,45.32z"/>
<path class="st15" d="M33.04,46.3v-4.57c0-0.58-0.51-1.05-1.13-1.05H16.49c-0.63,0-1.13,0.47-1.13,1.05v4.57H33.04z"/>
<path class="st16" d="M24.96,38.52H10.09v7.77H26.1v-6.73C26.1,38.99,25.59,38.52,24.96,38.52z"/>
<ellipse transform="matrix(0.9983 -0.0586 0.0586 0.9983 -1.1608 2.1908)" class="st17" cx="36.8" cy="20.9" rx="12.47" ry="10.35"/>
<polygon class="st17" points="36.99,31.21 28.19,32.8 30.97,29.09 "/>
<polygon class="st6" points="27.45,21.24 28.03,21.24 28.03,20.68 27.74,20.25 27.45,20.38 "/>
<rect x="28.03" y="20.69" class="st18" width="0.78" height="0.55"/>
<polygon class="st19" points="27.74,20.25 28.52,20.25 28.81,20.69 28.03,20.69 "/>
<polygon class="st19" points="27.45,20.38 27.74,20.25 27.75,20.27 27.45,20.39 "/>
<rect x="27.6" y="20.53" class="st14" width="0.08" height="0.08"/>
<rect x="27.74" y="20.77" class="st14" width="0.08" height="0.08"/>
<polygon class="st6" points="29.91,21.14 30.49,21.14 30.49,20.58 30.2,20.15 29.91,20.28 "/>
<rect x="30.48" y="20.59" class="st18" width="0.78" height="0.55"/>
<polygon class="st20" points="30.2,20.15 30.97,20.15 31.26,20.59 30.48,20.59 "/>
<polygon class="st19" points="29.91,20.28 30.2,20.15 30.21,20.17 29.91,20.29 "/>
<rect x="30.06" y="20.42" class="st14" width="0.08" height="0.08"/>
<rect x="30.2" y="20.67" class="st14" width="0.08" height="0.08"/>
<polygon class="st21" points="39.94,20.47 39.99,20.47 39.93,20.44 "/>
<polygon class="st6" points="39.09,20.46 39.54,20.1 39.96,20.45 39.96,20.97 39.09,20.97 "/>
<rect x="38.71" y="20.46" class="st18" width="0.39" height="0.55"/>
<polygon class="st20" points="39.55,20.09 39.15,20.09 38.68,20.46 39.09,20.46 "/>
<polygon class="st19" points="39.97,20.47 40.01,20.47 39.55,20.09 39.53,20.1 "/>
<rect x="39.62" y="20.42" class="st14" width="0.08" height="0.08"/>
<rect x="38.82" y="20.67" class="st14" width="0.08" height="0.08"/>
<rect x="39.6" y="20.75" class="st14" width="0.08" height="0.08"/>
<rect x="39.44" y="20.59" class="st14" width="0.08" height="0.08"/>
<rect x="39.22" y="19.99" class="st18" width="0.07" height="0.13"/>
<polygon class="st22" points="39.29,20.13 39.32,20.09 39.35,20.09 39.35,19.99 39.29,19.99 "/>
<polygon class="st21" points="40.98,20.65 40.95,20.65 40.98,20.62 "/>
<polygon class="st18" points="41.49,20.6 41.22,20.32 40.97,20.58 40.97,21.12 41.49,21.12 "/>
<rect x="41.49" y="20.6" class="st6" width="0.87" height="0.52"/>
<polygon class="st20" points="41.22,20.31 42.09,20.31 42.37,20.6 41.49,20.6 "/>
<polygon class="st19" points="40.96,20.6 40.94,20.6 41.22,20.31 41.23,20.32 "/>
<rect x="41.27" y="20.64" class="st22" width="0.13" height="0.23"/>
<rect x="41.05" y="20.64" class="st22" width="0.06" height="0.08"/>
<polygon class="st21" points="31.12,20.24 31.08,20.24 31.13,20.21 "/>
<polygon class="st6" points="31.7,20.11 31.26,19.75 30.83,20.1 30.83,21.07 31.7,21.07 "/>
<rect x="31.7" y="20.11" class="st18" width="0.39" height="0.95"/>
<polygon class="st20" points="31.25,19.74 31.65,19.74 32.12,20.11 31.7,20.11 "/>
<polygon class="st19" points="30.83,20.12 30.79,20.12 31.25,19.74 31.27,19.75 "/>
<rect x="31.1" y="20.07" class="st14" width="0.08" height="0.08"/>
<rect x="31.89" y="20.32" class="st14" width="0.08" height="0.08"/>
<rect x="31.12" y="20.4" class="st14" width="0.08" height="0.08"/>
<rect x="31.27" y="20.24" class="st14" width="0.08" height="0.08"/>
<rect x="31.51" y="19.64" class="st18" width="0.07" height="0.13"/>
<polygon class="st22" points="31.51,19.78 31.48,19.74 31.45,19.74 31.45,19.64 31.51,19.64 "/>
<rect x="28.13" y="20.15" class="st18" width="0.07" height="0.13"/>
<polygon class="st6" points="28.13,20.28 28.1,20.25 28.07,20.25 28.07,20.15 28.13,20.15 "/>
<polygon class="st6" points="32.46,20.94 33.03,20.94 33.03,20.38 32.75,19.94 32.46,20.07 "/>
<rect x="33.04" y="20.38" class="st18" width="0.78" height="0.55"/>
<polygon class="st19" points="32.75,19.94 33.52,19.94 33.81,20.38 33.04,20.38 "/>
<polygon class="st19" points="32.46,20.07 32.75,19.94 32.76,19.96 32.46,20.09 "/>
<rect x="32.61" y="20.22" class="st14" width="0.08" height="0.08"/>
<rect x="32.75" y="20.46" class="st14" width="0.08" height="0.08"/>
<polygon class="st21" points="27.56,20.92 27.58,20.92 27.55,20.9 "/>
<polygon class="st18" points="27.04,20.92 27.31,20.64 27.57,20.9 27.57,21.44 27.04,21.44 "/>
<rect x="26.51" y="20.92" class="st6" width="0.54" height="0.52"/>
<polygon class="st20" points="27.32,20.63 26.77,20.63 26.49,20.92 27.04,20.92 "/>
<polygon class="st19" points="27.57,20.92 27.59,20.92 27.31,20.63 27.3,20.64 "/>
<rect x="27.19" y="20.89" class="st14" width="0.07" height="0.07"/>
<path class="st23" d="M45.62,21.46c0-0.06-0.04-0.12-0.09-0.16c0-0.13-0.07-0.25-0.18-0.28c-0.15-0.03-0.31,0.07-0.37,0.24
	c-0.03,0.08-0.03,0.16,0.01,0.24c-0.13,0.06-0.17,0.18-0.1,0.29c0.04,0.06,0.13,0.1,0.22,0.1h0.03c0.06,0,0.12,0,0.18,0.01
	c0.12,0.03,0.26-0.02,0.29-0.12c0.03-0.06,0.01-0.13-0.05-0.18C45.61,21.56,45.63,21.51,45.62,21.46z"/>
<path class="st23" d="M43.97,21c0-0.03-0.02-0.06-0.05-0.08c0-0.07-0.03-0.13-0.1-0.14c-0.08-0.02-0.16,0.04-0.19,0.12
	c-0.01,0.04-0.01,0.08,0,0.12c-0.07,0.03-0.09,0.1-0.05,0.15c0.02,0.03,0.07,0.05,0.12,0.05h0.02c0.03,0,0.06,0,0.1,0.01
	c0.06,0.02,0.13-0.01,0.15-0.06c0.01-0.03,0-0.07-0.03-0.1C43.96,21.06,43.97,21.03,43.97,21z"/>
<path class="st23" d="M31.94,20.71c0-0.04-0.02-0.07-0.06-0.1c0-0.08-0.04-0.15-0.11-0.17c-0.09-0.02-0.19,0.04-0.23,0.15
	c-0.02,0.05-0.02,0.1,0.01,0.15c-0.08,0.04-0.11,0.11-0.06,0.18c0.03,0.04,0.08,0.06,0.14,0.06h0.02c0.04,0,0.08,0,0.11,0.01
	c0.08,0.02,0.16-0.01,0.18-0.07c0.02-0.04,0.01-0.08-0.03-0.11C31.93,20.78,31.94,20.74,31.94,20.71z"/>
<path class="st23" d="M35.43,20.86c0-0.04-0.02-0.07-0.06-0.1c0-0.08-0.04-0.15-0.11-0.17c-0.09-0.02-0.19,0.04-0.23,0.15
	c-0.02,0.05-0.02,0.1,0.01,0.15c-0.08,0.04-0.11,0.11-0.06,0.18c0.03,0.04,0.08,0.06,0.14,0.06h0.02c0.04,0,0.08,0,0.11,0.01
	c0.08,0.02,0.16-0.01,0.18-0.07c0.02-0.04,0.01-0.08-0.03-0.11C35.42,20.93,35.43,20.89,35.43,20.86z"/>
<path class="st23" d="M35.97,21.05c0-0.04-0.02-0.07-0.06-0.1c0-0.08-0.04-0.15-0.11-0.17c-0.09-0.02-0.19,0.04-0.23,0.15
	c-0.02,0.05-0.02,0.1,0.01,0.15c-0.08,0.04-0.11,0.11-0.06,0.18c0.03,0.04,0.08,0.06,0.14,0.06h0.02c0.04,0,0.08,0,0.11,0.01
	c0.08,0.02,0.16-0.01,0.18-0.07c0.02-0.04,0.01-0.08-0.03-0.11C35.96,21.11,35.97,21.08,35.97,21.05z"/>
<path class="st23" d="M35.78,20.96c0-0.04-0.03-0.07-0.08-0.1c0-0.08-0.06-0.15-0.16-0.17c-0.13-0.02-0.27,0.04-0.32,0.15
	c-0.02,0.05-0.02,0.1,0.01,0.15c-0.11,0.04-0.15,0.11-0.08,0.18c0.04,0.04,0.11,0.06,0.2,0.06h0.03c0.05,0,0.11,0,0.16,0.01
	c0.11,0.02,0.22-0.01,0.26-0.07c0.02-0.04,0.01-0.08-0.05-0.11C35.77,21.02,35.79,20.99,35.78,20.96z"/>
<polygon class="st6" points="38.27,20.22 37.82,19.85 37.4,20.2 37.4,21.17 38.27,21.17 "/>
<rect x="38.27" y="20.22" class="st18" width="0.39" height="0.95"/>
<polygon class="st20" points="37.82,19.84 38.22,19.84 38.68,20.22 38.27,20.22 "/>
<polygon class="st19" points="37.39,20.22 37.36,20.22 37.81,19.84 37.83,19.86 "/>
<rect x="37.66" y="20.17" class="st14" width="0.08" height="0.08"/>
<rect x="37.84" y="20.34" class="st14" width="0.08" height="0.08"/>
<rect x="38.07" y="19.74" class="st18" width="0.07" height="0.13"/>
<polygon class="st22" points="38.07,19.88 38.04,19.84 38.01,19.84 38.01,19.74 38.07,19.74 "/>
<path class="st23" d="M38.58,20.74c0-0.04-0.02-0.07-0.06-0.1c0-0.08-0.04-0.15-0.11-0.17c-0.09-0.02-0.19,0.04-0.23,0.15
	c-0.02,0.05-0.02,0.1,0.01,0.15c-0.08,0.04-0.11,0.11-0.06,0.18c0.03,0.04,0.08,0.06,0.14,0.06h0.02c0.04,0,0.08,0,0.11,0.01
	c0.08,0.02,0.16-0.01,0.18-0.07c0.02-0.04,0.01-0.08-0.03-0.11C38.57,20.81,38.58,20.77,38.58,20.74z"/>
<path class="st23" d="M32.53,20.61c0-0.05-0.03-0.09-0.07-0.12c0-0.1-0.05-0.19-0.15-0.22c-0.12-0.03-0.25,0.06-0.29,0.19
	c-0.02,0.06-0.02,0.13,0.01,0.19c-0.1,0.05-0.14,0.14-0.08,0.23c0.04,0.05,0.1,0.08,0.18,0.08h0.02c0.05,0,0.1,0,0.15,0.01
	c0.1,0.02,0.2-0.02,0.23-0.09c0.02-0.05,0.01-0.1-0.04-0.14C32.52,20.69,32.54,20.65,32.53,20.61z"/>
<path class="st23" d="M37.71,20.81c0-0.04-0.02-0.07-0.06-0.1c0-0.08-0.04-0.15-0.11-0.17c-0.09-0.02-0.19,0.04-0.23,0.15
	c-0.02,0.05-0.02,0.1,0.01,0.15c-0.08,0.04-0.11,0.11-0.06,0.18c0.03,0.04,0.08,0.06,0.14,0.06h0.02c0.04,0,0.08,0,0.11,0.01
	c0.08,0.02,0.16-0.01,0.18-0.07c0.02-0.04,0.01-0.08-0.03-0.11C37.71,20.88,37.72,20.84,37.71,20.81z"/>
<path class="st24" d="M37.92,20.92c0-0.02-0.01-0.03-0.03-0.04c0-0.04-0.02-0.07-0.05-0.08c-0.04-0.01-0.09,0.02-0.1,0.07
	c-0.01,0.02-0.01,0.04,0,0.07c-0.04,0.02-0.05,0.05-0.03,0.08c0.01,0.02,0.04,0.03,0.06,0.03h0.01c0.02,0,0.04,0,0.05,0
	c0.04,0.01,0.07-0.01,0.08-0.03c0.01-0.02,0-0.04-0.02-0.05C37.92,20.95,37.92,20.94,37.92,20.92z"/>
<path class="st23" d="M34.38,20.73c0-0.04-0.02-0.07-0.06-0.1c0-0.08-0.04-0.15-0.11-0.17c-0.09-0.02-0.19,0.04-0.23,0.15
	c-0.02,0.05-0.02,0.1,0.01,0.15c-0.08,0.04-0.11,0.11-0.06,0.18C33.95,20.97,34,21,34.06,21h0.02c0.04,0,0.08,0,0.11,0.01
	c0.08,0.02,0.16-0.01,0.18-0.07c0.02-0.04,0.01-0.08-0.03-0.11C34.37,20.79,34.38,20.76,34.38,20.73z"/>
<path class="st24" d="M34.81,20.68c0-0.05-0.03-0.09-0.07-0.12c0-0.1-0.05-0.19-0.15-0.22c-0.12-0.03-0.25,0.06-0.29,0.19
	c-0.02,0.06-0.07,0.16,0.01,0.19c0.91,0.32,0.42,0.3-0.08,0.23c-0.07-0.01,0.1,0.08,0.18,0.08h0.02c0.05,0,0.1,0,0.15,0.01
	c0.1,0.02,0.2-0.02,0.23-0.09c0.02-0.05,0.01-0.1-0.04-0.14C34.8,20.76,34.81,20.72,34.81,20.68z"/>
<path class="st24" d="M35.11,20.77c0-0.05-0.03-0.09-0.07-0.12c0-0.1-0.05-0.19-0.14-0.21c-0.12-0.03-0.24,0.06-0.29,0.19
	c-0.02,0.06-0.02,0.12,0.01,0.19c-0.1,0.05-0.13,0.14-0.07,0.22c0.03,0.05,0.1,0.08,0.18,0.08h0.02c0.05,0,0.1,0,0.14,0.01
	c0.1,0.02,0.2-0.02,0.23-0.09c0.02-0.05,0.01-0.1-0.04-0.14C35.1,20.86,35.12,20.81,35.11,20.77z"/>
<path class="st23" d="M30.05,20.84c0-0.05-0.03-0.09-0.07-0.12c0-0.1-0.05-0.19-0.15-0.22c-0.12-0.03-0.25,0.06-0.29,0.19
	c-0.02,0.06-0.02,0.13,0.01,0.19c-0.1,0.05-0.14,0.15-0.08,0.23c0.04,0.05,0.1,0.08,0.18,0.08h0.02c0.05,0,0.1,0,0.15,0.01
	c0.1,0.02,0.2-0.02,0.23-0.09c0.02-0.05,0.01-0.1-0.04-0.15C30.04,20.92,30.05,20.88,30.05,20.84z"/>
<path class="st24" d="M29.25,20.91c0-0.04-0.02-0.08-0.06-0.11c0-0.09-0.04-0.17-0.12-0.19c-0.1-0.02-0.21,0.05-0.25,0.16
	c-0.01,0.03-0.02,0.07-0.01,0.1c0,0.03-0.01,0.07-0.04,0.1c-0.04,0.04-0.05,0.11-0.01,0.16c0.03,0.04,0.09,0.07,0.15,0.07h0.02
	c0.04,0,0.08,0,0.12,0.01c0.08,0.02,0.17-0.01,0.2-0.08c0.02-0.04,0.01-0.09-0.04-0.12C29.24,20.98,29.25,20.95,29.25,20.91z"/>
<path class="st25" d="M26.92,21.54c-0.17,0.03-0.24,0.19-0.07,0.19h9.5c0.16,0,0.96-0.23,0.79-0.26l-0.93-0.14
	c-0.32-0.01-3.25-0.39-3.98-0.42C31.51,20.87,28.28,21.26,26.92,21.54z"/>
<path class="st26" d="M45.05,21.86c-0.13,0-0.07-0.13-0.18-0.19c-1.3-0.77-2.59-0.96-5.99-0.7c-0.84,0.06-2.32,0.12-3.93,0.17
	c-2.92,0.1,2.71,0.72,2.01,0.85c-0.15,0.03-9.03-0.14-8.62-0.14H45.05z"/>
<path class="st25" d="M46.83,21.98c0.17,0.03,0.24,0.19,0.07,0.19h-9.5c-0.16,0,0.09-0.22-0.08-0.22c-2.91,0.01-4.11-0.98-3.63-0.94
	c0.48,0.04,1.01,0.1,1.35,0.15c0.4,0.06,0.85,0.13,1.24,0.16C41.42,21.67,45.3,21.67,46.83,21.98z"/>
<path class="st27" d="M25.36,22.17c-0.13,0-0.19-0.13-0.08-0.19c1.3-0.77,2.59-0.96,5.99-0.7c2.36,0.18,9.75,0.49,10.83,0.69
	c0.15,0.03,0.12,0.19-0.03,0.19H25.36z"/>
<path class="st28" d="M26.15,17.28c-0.03,0-0.06-0.04-0.05-0.07c0.03-0.08,0.09-0.13,0.18-0.13c0.04,0,0.08,0.01,0.11,0.04
	c0.06-0.2,0.24-0.35,0.44-0.35c0.17,0,0.32,0.1,0.41,0.25c0.05-0.05,0.12-0.08,0.2-0.08c0.12,0,0.22,0.07,0.27,0.17
	c0.03-0.02,0.07-0.04,0.11-0.04c0.08,0,0.15,0.06,0.18,0.13c0.01,0.03-0.01,0.07-0.05,0.07l-0.25,0l-0.57,0h-0.15l-0.5,0
	L26.15,17.28z"/>
<path class="st28" d="M34.56,18.5c-0.03,0-0.06-0.04-0.05-0.07c0.03-0.08,0.09-0.13,0.18-0.13c0.04,0,0.08,0.01,0.11,0.04
	c0.06-0.2,0.24-0.35,0.44-0.35c0.17,0,0.32,0.1,0.41,0.25c0.05-0.05,0.12-0.08,0.2-0.08c0.12,0,0.22,0.07,0.27,0.17
	c0.03-0.02,0.07-0.04,0.11-0.04c0.08,0,0.15,0.06,0.18,0.13c0.01,0.03-0.01,0.07-0.05,0.07l-0.25,0l-0.57,0h-0.15l-0.5,0L34.56,18.5
	z"/>
<path class="st28" d="M39.91,16.56c-0.03,0-0.06-0.04-0.05-0.07c0.03-0.08,0.09-0.13,0.18-0.13c0.04,0,0.08,0.01,0.11,0.04
	c0.06-0.2,0.24-0.35,0.44-0.35c0.17,0,0.32,0.1,0.41,0.25c0.05-0.05,0.12-0.08,0.2-0.08c0.12,0,0.22,0.07,0.27,0.17
	c0.03-0.02,0.07-0.04,0.11-0.04c0.08,0,0.15,0.06,0.18,0.13c0.01,0.03-0.01,0.07-0.05,0.07l-0.25,0l-0.57,0h-0.15l-0.5,0
	L39.91,16.56z"/>
<path class="st28" d="M44.37,18.32c-0.03,0-0.06-0.04-0.05-0.07c0.03-0.08,0.09-0.13,0.18-0.13c0.04,0,0.08,0.01,0.11,0.04
	c0.06-0.2,0.24-0.35,0.44-0.35c0.17,0,0.32,0.1,0.41,0.25c0.05-0.05,0.12-0.08,0.2-0.08c0.12,0,0.22,0.07,0.27,0.17
	c0.03-0.02,0.07-0.04,0.11-0.04c0.08,0,0.15,0.06,0.18,0.13c0.01,0.03-0.01,0.07-0.05,0.07l-0.25,0l-0.57,0h-0.15l-0.5,0
	L44.37,18.32z"/>
<path class="st7" d="M38.62,22.09c-0.03,0.07-0.09,0.11-0.17,0.1l-1.04,0.08l-0.74-0.02c-0.14,0-0.28,0.02-0.41,0.08
	c0,0-0.18,0.08-0.27,0.14c-0.09,0.06-0.2,0.18-0.2,0.18c0,0.01-0.01,0.02,0,0.03c0,0.01,0.02,0.02,0.03,0.02s0.03-0.01,0.04-0.01
	c0.07-0.04,0.13-0.11,0.22-0.12c-0.07,0.07-0.12,0.14-0.2,0.2c-0.02,0.02-0.04,0.04-0.06,0.06s-0.02,0.05-0.01,0.08
	c0,0.01,0.01,0.02,0.02,0.02c0.01,0,0.03-0.01,0.04-0.02c0.06-0.05,0.13-0.1,0.2-0.14c0.02-0.01,0.04-0.02,0.06-0.02
	c-0.04,0.05-0.06,0.1-0.1,0.15C36,22.95,35.96,23,35.97,23.05c0,0.01,0,0.01,0.01,0.02c0,0.01,0.01,0.01,0.02,0.01
	c0.04,0,0.08-0.03,0.11-0.05c0.07-0.05,0.14-0.1,0.2-0.15c0.05-0.04,0.11-0.07,0.17-0.05l1.33,0.13c0,0,0.89,0.15,1.29,0.17
	s0.67-2.42,0.62-2.81l-0.81,0.27L38.62,22.09z"/>
<path class="st29" d="M38.83,20.05l-0.32,1.43c0,0.01,0,0.02,0,0.03c0.34,0.04,0.87,0.07,1.21,0.14c0.1-0.61,0.11-1.32,0.06-1.74
	c-0.02-0.21-0.31-0.39-0.52-0.34C39.06,19.61,38.91,19.8,38.83,20.05z"/>
<polygon class="st8" points="41.74,25.24 41.72,26.1 41.71,26.25 40.23,26.25 40.21,25.91 40.17,25.26 "/>
<polygon class="st8" points="39.9,25.24 39.86,25.86 39.84,26.25 38.5,26.25 38.49,25.68 38.49,25.26 "/>
<path class="st30" d="M38.43,25.68l3.37,0.44v-3.2c0.01-2.22-0.19-3.77-1.5-3.77c-1.22,0-1.57,1.21-1.57,2.5L38.43,25.68z"/>
<path class="st29" d="M41.8,23.03v-0.12c0.01-1.08-0.04-2-0.24-2.67l-1.01-0.06c0,0,0.11,1.16,0.28,1.61
	c0.08,0.21,0.11,0.55,0.06,0.72c-0.55,0.55-1.28,1.11-1.28,1.11C40.43,23.6,41.2,23.46,41.8,23.03z"/>
<path class="st7" d="M40.3,19.14c-0.44,0-0.77,0.16-1.01,0.42c-0.05,0.25,0.02,0.41,0.27,0.43c0.54,0,1.03-0.49,1.17-0.77
	C40.61,19.17,40.46,19.14,40.3,19.14z"/>
<path class="st7" d="M41.09,21.8c0.07,0.21,0.26,0.56,0.09,0.67l-1.38,1c0.1,0.19,0.15,0.34,0.21,0.55l0.71-0.26
	c0,0,1.22-0.56,1.57-0.88c0.15-0.13,0.02-0.76-0.21-1.44C41.73,21.54,41.44,21.66,41.09,21.8z"/>
<path class="st30" d="M40.55,20.38l0.42,1.5c0,0.01,0.01,0.02,0.01,0.03c0.34-0.14,0.86-0.37,1.22-0.48
	c-0.21-0.63-0.56-1.3-0.82-1.67c-0.13-0.19-0.49-0.21-0.66-0.06C40.55,19.86,40.5,20.1,40.55,20.38z"/>
<path class="st7" d="M40.27,19.55l-0.35,0.05c-0.17,0.02-0.33-0.1-0.35-0.27l-0.06-0.53l0.96-0.19l0.07,0.59
	C40.56,19.38,40.44,19.53,40.27,19.55z"/>
<path class="st7" d="M39.82,18.98c0.7,0,1.28-0.51,1.28-1.8c0-0.89-0.53-1.54-1.34-1.43c-0.24,0.03-0.47,0.13-0.67,0.27
	c-0.17,0.12-0.29,0.28-0.37,0.46c-0.02,0.12-0.02,0.23-0.03,0.35c-0.01,0.28-0.02,0.56-0.03,0.84c-0.01,0.3-0.01,0.61,0.15,0.87
	c0.13,0.21,0.37,0.35,0.62,0.43C39.56,18.99,39.69,18.98,39.82,18.98z"/>
<path class="st8" d="M40.97,18.09c0.76-0.46,0.58-0.83,0.32-1.55c-0.08-0.21-0.07-0.33-0.35-0.64c-0.28-0.31-0.6-0.34-1.14-0.25
	c-0.45-0.21-0.97,0-0.95,0.47c0,0.04,0.01,0.07,0.03,0.1c-0.11,0.13-0.17,0.3-0.18,0.47c0,0.03,0,0.06,0,0.09
	c0.05-0.13,0.12-0.26,0.2-0.38c0.02-0.03,0.04-0.06,0.06-0.09c0.07,0.05,0.19,0.09,0.37,0.09c0.05,0,0.14,0,0.2,0
	c0.38-0.05,0.78,0.33,1.13,0.16l-0.09,0.21c0.16,0.25,0.25,0.54,0.23,0.83c0,0.05,0.02,0.1,0.06,0.13l0.13,0.11L40.97,18.09z"/>
<path class="st7" d="M41.34,17.84c0.1-0.18,0.13-0.47-0.08-0.58c-0.21-0.1-0.38,0.19-0.38,0.19l0.02,0.72
	C41.04,18.17,41.24,18.02,41.34,17.84z"/>
<path class="st31" d="M39.72,17.07c0.12-0.04,0.25,0,0.32,0.07l0.03-0.03c-0.09-0.09-0.23-0.13-0.37-0.08L39.72,17.07z M40.04,17.14
	c0.01,0.01,0.02,0.01,0.03,0c0.01-0.01,0.01-0.02,0-0.03L40.04,17.14z M39.7,17.02c-0.01,0-0.02,0.02-0.01,0.03
	c0,0.01,0.02,0.02,0.03,0.01L39.7,17.02z"/>
<path class="st31" d="M39.21,16.92c-0.08-0.04-0.16-0.05-0.24-0.03c-0.08,0.02-0.15,0.05-0.2,0.09l0.03,0.04
	c0.04-0.03,0.11-0.07,0.18-0.08c0.07-0.01,0.14-0.01,0.21,0.03L39.21,16.92z M38.77,16.98c-0.01,0.01-0.01,0.02,0,0.03
	s0.02,0.01,0.03,0L38.77,16.98z M39.19,16.96c0.01,0.01,0.03,0,0.03-0.01c0.01-0.01,0-0.03-0.01-0.03L39.19,16.96z"/>
<path class="st9" d="M39.75,17.48c0,0.05,0.03,0.09,0.06,0.09c0.04,0,0.08-0.07,0.08-0.15c0-0.08-0.05-0.1-0.09-0.07
	C39.76,17.38,39.74,17.44,39.75,17.48z"/>
<path class="st9" d="M39.11,17.43c0,0.05-0.03,0.09-0.06,0.08c-0.04,0-0.08-0.07-0.07-0.15s0.05-0.1,0.09-0.07
	C39.09,17.32,39.11,17.38,39.11,17.43z"/>
<path class="st32" d="M39.74,18.19c0.02-0.01,0.01-0.04-0.01-0.03c-0.03,0-0.07,0.01-0.1,0.01c-0.06,0.01-0.12,0.01-0.17,0.02
	c-0.06,0-0.11,0-0.17-0.01c-0.03-0.01-0.06-0.01-0.09-0.03c-0.02-0.01-0.03,0.02-0.01,0.03c0.03,0.02,0.06,0.04,0.09,0.05
	c0.06,0.02,0.12,0.03,0.18,0.03c0.06,0,0.12-0.01,0.18-0.03C39.67,18.22,39.71,18.21,39.74,18.19z"/>
<path class="st32" d="M39.43,17.9c0.05-0.01,0.11-0.03,0.14-0.08l-0.04-0.03c-0.03,0.03-0.07,0.05-0.11,0.06L39.43,17.9z
	 M39.37,17.9c0.02,0,0.04,0,0.06,0l-0.01-0.05c-0.02,0-0.03,0-0.05,0V17.9z M39.26,17.89c0.03,0.01,0.07,0.01,0.1,0.01l0-0.05
	c-0.03,0-0.06-0.01-0.1-0.01L39.26,17.89z M39.15,17.81c0.01,0.03,0.03,0.05,0.05,0.06c0.02,0.01,0.04,0.02,0.06,0.02l0.01-0.05
	c-0.02,0-0.04-0.01-0.05-0.01c-0.01-0.01-0.02-0.02-0.02-0.03L39.15,17.81z M39.18,17.72c-0.02,0.02-0.04,0.05-0.03,0.09l0.05-0.01
	c0-0.01,0-0.03,0.02-0.04L39.18,17.72z M39.41,17.6c-0.07,0.05-0.14,0.1-0.22,0.12l0.02,0.05c0.08-0.03,0.16-0.08,0.23-0.13
	L39.41,17.6z M39.57,17.82c0.01-0.01,0.01-0.03,0-0.03c-0.01-0.01-0.03-0.01-0.03,0L39.57,17.82z M39.42,17.87l0-0.02l0,0
	L39.42,17.87z M39.37,17.88l0,0.02h0V17.88z M39.27,17.86l0-0.02l0,0L39.27,17.86z M39.17,17.8l0.02-0.01l0,0L39.17,17.8z
	 M39.2,17.74l-0.01-0.02l-0.01,0L39.2,17.74z M39.43,17.63c0.01-0.01,0.01-0.02,0.01-0.03c-0.01-0.01-0.02-0.01-0.03-0.01
	L39.43,17.63z"/>
<path class="st7" d="M39.8,23.46c-0.16,0.04-0.32,0.07-0.45,0.17c0,0-0.18,0.16-0.27,0.26c-0.09,0.1-0.17,0.28-0.17,0.28
	c0,0.01,0,0.02,0,0.03c0.01,0.02,0.03,0.02,0.05,0.02c0.02,0,0.03-0.02,0.04-0.03c0.02-0.02,0.04-0.04,0.05-0.07
	c0.05-0.07,0.15-0.05,0.19,0.02c0.03,0.04,0.06,0.08,0.11,0.1c0.1,0.04,0.21,0.01,0.3-0.06l0.68-0.35c-0.06-0.21-0.14-0.41-0.23-0.6
	L39.8,23.46z"/>
<rect x="6" y="22.1" class="st17" width="3.74" height="9.31"/>
<path class="st17" d="M9.74,21.26H6v-2.55c0-0.87,0.59-1.59,1.33-1.59h2.41V21.26z"/>
<rect x="10.43" y="22.05" class="st17" width="3.74" height="9.31"/>
<path class="st17" d="M14.17,21.26h-3.74v-4.14h2.41c0.73,0,1.33,0.71,1.33,1.59V21.26z"/>
</svg>
