<?xml version="1.0" encoding="utf-8"?>
<!-- Generator: Adobe Illustrator 24.2.1, SVG Export Plug-In . SVG Version: 6.00 Build 0)  -->
<svg version="1.1" id="Layer_1" xmlns="http://www.w3.org/2000/svg" xmlns:xlink="http://www.w3.org/1999/xlink" x="0px" y="0px"
	 viewBox="0 0 56 56" style="enable-background:new 0 0 56 56;" xml:space="preserve">
<style type="text/css">
	.st0{fill:#CFE2FC;}
	.st1{fill:#F9F0DC;}
	.st2{fill:#FEC9A7;}
	.st3{fill:#F9BEA0;}
	.st4{fill:#BA7196;}
	.st5{fill:#BD86A2;}
	.st6{fill:#F4AD58;}
	.st7{fill:#5C294B;}
	.st8{fill:#FDD6C0;}
	.st9{fill:#EFB097;}
	.st10{fill:#EDBB72;}
	.st11{fill:#ECCD9D;}
	.st12{fill:#E7BD96;}
	.st13{fill:#FFDDA1;}
	.st14{fill:#EFF4F4;}
	.st15{fill:#4F4F4F;}
	.st16{fill:#F2DF91;}
	.st17{fill:#E5C7B7;}
	.st18{fill:#EDD8CE;}
	.st19{fill:#A6C0D1;}
	.st20{fill:#FDD735;}
	.st21{fill:#FFED9F;}
	.st22{fill:#EBA493;}
</style>
<path class="st0" d="M53.05,56H2.95C1.32,56,0,54.68,0,53.05V2.95C0,1.32,1.32,0,2.95,0h50.1C54.68,0,56,1.32,56,2.95v50.1
	C56,54.68,54.68,56,53.05,56z"/>
<path class="st1" d="M38.7,31.22l-2.48-0.03c-0.09,0-0.17-0.08-0.17-0.18v-1.44c0-0.1,0.08-0.18,0.17-0.18l2.48,0.03
	c0.09,0,0.17,0.08,0.17,0.18v1.44C38.87,31.14,38.79,31.22,38.7,31.22z"/>
<path class="st1" d="M9.64,26.66l-2.48-0.03C7.08,26.63,7,26.55,7,26.45v-1.44c0-0.1,0.08-0.18,0.17-0.18l2.48,0.03
	c0.09,0,0.17,0.08,0.17,0.18v1.44C9.81,26.58,9.74,26.66,9.64,26.66z"/>
<path class="st1" d="M19.68,16.96l-2.48-0.03c-0.09,0-0.17-0.08-0.17-0.18v-1.44c0-0.1,0.08-0.18,0.17-0.18l2.48,0.03
	c0.09,0,0.17,0.08,0.17,0.18v1.44C19.84,16.88,19.77,16.96,19.68,16.96z"/>
<path class="st1" d="M17.14,24.98l-2.48-0.03c-0.09,0-0.17-0.08-0.17-0.18v-1.44c0-0.1,0.08-0.18,0.17-0.18l2.48,0.03
	c0.09,0,0.17,0.08,0.17,0.18v1.44C17.3,24.9,17.23,24.98,17.14,24.98z"/>
<path class="st1" d="M17.14,33.48l-2.48-0.03c-0.09,0-0.17-0.08-0.17-0.18v-1.44c0-0.1,0.08-0.18,0.17-0.18l2.48,0.03
	c0.09,0,0.17,0.08,0.17,0.18v1.44C17.3,33.4,17.23,33.48,17.14,33.48z"/>
<path class="st1" d="M21.25,19.18l-2.48-0.03c-0.09,0-0.17-0.08-0.17-0.18v-1.44c0-0.1,0.08-0.18,0.17-0.18l2.48,0.03
	c0.09,0,0.17,0.08,0.17,0.18V19C21.41,19.1,21.34,19.18,21.25,19.18z"/>
<path class="st1" d="M32.23,34.39l-2.48-0.03c-0.09,0-0.17-0.08-0.17-0.18v-1.44c0-0.1,0.08-0.18,0.17-0.18l2.48,0.03
	c0.09,0,0.17,0.08,0.17,0.18v1.44C32.4,34.31,32.32,34.39,32.23,34.39z"/>
<path class="st1" d="M34.34,37.07l-2.48-0.03c-0.09,0-0.17-0.08-0.17-0.18v-1.44c0-0.1,0.08-0.18,0.17-0.18l2.48,0.03
	c0.09,0,0.17,0.08,0.17,0.18v1.44C34.5,36.99,34.43,37.07,34.34,37.07z"/>
<path class="st2" d="M32.11,29c0.01-0.13,0.03-0.26,0.06-0.38c0.03-0.11,0.04-0.27,0-0.33c-0.01-0.01-0.02-0.02-0.04-0.03
	c-0.04-0.01-0.07,0.02-0.09,0.05c-0.24,0.39-0.32,0.83-0.39,1.27c0.12,0.08,0.31,0.06,0.41-0.03L32.11,29z"/>
<path class="st3" d="M27.25,32.8l1.43-0.57l2.12,2.02c0.2,0.19,0.2,0.52,0,0.71c-0.3,0.28-0.86,0.33-1.1-0.01L27.25,32.8z"/>
<path class="st4" d="M28.03,31.18c-0.6-0.51-1.28-0.55-1.54-0.37c-0.13,0.09-0.43,0.55-0.42,0.71c0.05,0.72,0.9,1.76,2.75,3.12
	c0.33-0.33,1.06-1.02,1.35-1.38C29.37,32.33,28.52,31.6,28.03,31.18z"/>
<path class="st5" d="M20.04,44.15c3.02,0.44,6.62,0.09,8.88-0.09c-0.18-1.17-1.76-8.53-1.76-8.53c-0.15-0.95,0.26-2.97,0.59-4.53
	c-1.88-0.82-3.57-0.97-5.22,0.11L23,32.24l-0.09,2.91L20.04,44.15z"/>
<path class="st2" d="M27.17,30.74c-1.46-0.57-2.91-0.6-4.14,0.04c0.49,0.2,1.09,0.35,1.62,0.42C25.79,31.28,26.61,31.12,27.17,30.74
	z"/>
<path class="st2" d="M16.99,29.82l0.64,1.66c0,0,0.42,1.4,0.68,1.98c0.26,0.59,3.96-0.78,4.49-1.13l-0.98-0.98l-2.37,0.67
	c-0.11,0.01-0.22-0.06-0.26-0.16l-1.07-1.77l-0.47-0.73c-0.03-0.07-0.05-0.14-0.09-0.2c-0.29-0.25-0.56-0.34-0.78-0.27
	c-0.05,0.02-0.1,0.04-0.14,0.07s-0.07,0.08-0.08,0.13c0,0.04,0.01,0.07,0.02,0.11C16.75,29.38,16.9,29.59,16.99,29.82z"/>
<path class="st5" d="M22.63,30.86l-2.28,0.57c-0.01,0-0.03,0.01-0.04,0.01c0.2,0.53,0.52,1.23,0.67,1.77
	c0.95-0.29,1.98-0.62,2.56-0.99c0.29-0.19,0.34-0.82,0.12-1.08C23.42,30.87,23.05,30.79,22.63,30.86z"/>
<rect x="24.23" y="28.62" class="st2" width="1.7" height="2.16"/>
<path class="st3" d="M24.23,29.07l1.7-0.09v1.44C25.67,30.15,24.23,30.15,24.23,29.07z"/>
<path class="st2" d="M27.17,27.37c-0.06,0.63-0.92,2.32-2.05,2.32c-1.13,0-2-1.85-2.05-2.32c-0.24-2.16,0.41-3.49,2.05-3.49
	S27.35,25.37,27.17,27.37z"/>
<path class="st6" d="M24.01,27.23c-0.01,0-0.02,0-0.03-0.01c-0.02-0.02-0.02-0.05-0.01-0.07c0.12-0.14,0.34-0.27,0.61-0.19
	c0.03,0.01,0.04,0.04,0.04,0.06c-0.01,0.03-0.04,0.04-0.06,0.04c-0.22-0.06-0.4,0.05-0.5,0.16C24.04,27.23,24.03,27.23,24.01,27.23z
	"/>
<path class="st7" d="M24.55,27.66c-0.01,0.08-0.04,0.14-0.1,0.14c-0.07,0-0.13-0.11-0.13-0.24c0.01-0.13,0.08-0.17,0.15-0.11
	C24.53,27.49,24.56,27.58,24.55,27.66z"/>
<path class="st8" d="M25.18,28.14c-0.08,0.01-0.14,0.02-0.2-0.07c-0.04-0.06-0.02-0.13,0.01-0.19c0.03-0.06,0.19-0.07,0.23-0.01
	C25.27,27.91,25.32,28.11,25.18,28.14z"/>
<path class="st6" d="M26.18,27.12c-0.01,0-0.03,0-0.04-0.01c-0.11-0.11-0.3-0.19-0.52-0.12c-0.03,0.01-0.06,0-0.07-0.03
	c-0.01-0.03,0-0.06,0.03-0.07c0.26-0.09,0.49,0.01,0.62,0.14c0.02,0.02,0.02,0.05,0,0.07C26.21,27.12,26.2,27.12,26.18,27.12z"/>
<path class="st7" d="M25.73,27.66c0.01,0.08,0.04,0.14,0.1,0.14c0.07,0,0.13-0.11,0.13-0.24c-0.01-0.13-0.08-0.17-0.15-0.11
	C25.75,27.49,25.72,27.58,25.73,27.66z"/>
<path class="st9" d="M25.18,28.98c-0.3,0.05-0.46-0.28-0.46-0.28c-0.03-0.02-0.02-0.08,0.01-0.08c0.05,0.01,0.11,0.01,0.16,0.02
	c0.1,0.01,0.19,0.02,0.28,0.01s0.19-0.02,0.28-0.06c0.05-0.02,0.1-0.04,0.15-0.07c0.03-0.02,0.05,0.04,0.02,0.07
	C25.63,28.59,25.48,28.93,25.18,28.98z"/>
<path class="st10" d="M23.96,23.99c0.9-0.46,1.72-0.17,2.28,0.11c0.27,0.13,0.37,0.47,0.22,0.73c-0.58,0.97-2.05,1.65-2.67,2.04
	c-0.3,0.18-0.5,0.22-0.72,0.5C22.82,26.18,22.78,24.38,23.96,23.99z"/>
<path class="st10" d="M27.22,26.58c0,0,0.16-0.75-0.2-1.56c-0.49-1.22-1.16-1.17-1.96-0.36C25.53,25.42,26.25,26.05,27.22,26.58z"/>
<path class="st10" d="M26.66,23.38c-0.04,0.69-0.64,1.23-1.33,1.19c-0.69-0.04-1.22-0.64-1.18-1.33c0.04-0.69,0.62-0.96,1.31-0.92
	C26.16,22.36,26.7,22.68,26.66,23.38z"/>
<path class="st2" d="M30.3,34.98c0.8,0.26,1.06-1.06,1.33-2.37l0.57-1.69c0.12-0.17,0.27-0.33,0.32-0.53l0.03-0.13
	c0.11-0.42,0.03-0.76-0.17-1.15c-0.02-0.04-0.04-0.08-0.08-0.1c-0.09-0.05-0.2,0.01-0.27,0.08c-0.34,0.32-0.55,0.77-0.58,1.24
	l-1.04,2.77c0,0-0.31,0.55-0.54,1.14C29.85,34.25,29.72,34.89,30.3,34.98z"/>
<path class="st11" d="M47.97,41.64c-1.06,0.88-35.81-0.08-35.81-0.08V47H48C48.04,43.53,47.97,41.64,47.97,41.64z"/>
<path class="st12" d="M12.16,41.56L27.7,47H48c0-0.12,0-0.25,0-0.37c-0.01-2.71-0.03-5-0.03-5L12.16,41.56z"/>
<path class="st13" d="M11.16,41.64c0,0.47,0.38,0.85,0.85,0.85c4.97-0.01,31,0,36.09,0c0.48,0,0.86-0.39,0.86-0.87
	c0-0.48-0.39-0.87-0.86-0.87c-5.07,0.01-30.95,0.08-36.08,0.02C11.55,40.78,11.16,41.16,11.16,41.64z"/>
<path class="st2" d="M16.76,27.62c-0.02-0.13-0.05-0.25-0.09-0.38c-0.04-0.11-0.07-0.26-0.03-0.33c0.01-0.01,0.02-0.03,0.03-0.03
	c0.04-0.02,0.07,0.01,0.09,0.04c0.27,0.37,0.4,0.8,0.5,1.23c-0.11,0.09-0.3,0.08-0.41,0.01L16.76,27.62z"/>
<path class="st2" d="M19.09,33.41c-0.78,0.33-1.15-0.96-1.53-2.25l-0.71-1.63c-0.13-0.16-0.3-0.3-0.36-0.5l-0.05-0.12
	c-0.15-0.41-0.1-0.75,0.07-1.16c0.02-0.04,0.04-0.08,0.07-0.11c0.08-0.06,0.2,0,0.28,0.06c0.37,0.28,0.62,0.72,0.69,1.18l1.28,2.67
	c0,0,0.36,0.52,0.64,1.09C19.47,32.65,19.66,33.27,19.09,33.41z"/>
<path class="st14" d="M31.77,14.26c0.46-1.21,2.83-1.06,2.95,0.4c1.73-0.21,3.39,1.28,2.52,3.46c0.91,1.89,0.16,4.15-1.71,3.87
	c-0.64,1.32-2.44,0.9-3.46-0.02c-1.31-0.16-1.83-0.13-2.59-0.85c-0.39-0.37-0.66-0.9-0.76-1.49c-0.49,0.01-0.83-0.3-1.18-0.61
	S27.53,19,27.53,19c-0.61-0.61-0.38-2.6,0.59-3.63S29.42,13.04,31.77,14.26z"/>
<path class="st14" d="M20.77,8.81c0.46-1.21,2.83-1.06,2.95,0.4c1.73-0.21,3.39,1.28,2.52,3.46c0.91,1.89,0.16,4.15-1.71,3.87
	c-0.64,1.32-2.44,0.9-3.46-0.02c-1.31-0.16-1.83-0.13-2.59-0.85c-0.39-0.37-0.66-0.9-0.76-1.49c-0.49,0.01-0.83-0.3-1.18-0.61
	s-0.01-0.01-0.01-0.02c-0.61-0.61-0.38-2.6,0.59-3.63S18.42,7.59,20.77,8.81z"/>
<path class="st14" d="M13.43,17.33c0.46-1.21,2.83-1.06,2.95,0.4c1.73-0.21,3.39,1.28,2.52,3.46c0.91,1.89,0.16,4.15-1.71,3.87
	c-0.64,1.32-2.44,0.9-3.46-0.02c-1.31-0.16-1.83-0.13-2.59-0.85c-0.39-0.37-0.66-0.9-0.76-1.49c-0.49,0.01-0.83-0.3-1.18-0.61
	c-0.35-0.32-0.01-0.01-0.01-0.02c-0.61-0.61-0.38-2.6,0.59-3.63C10.75,17.41,11.08,16.1,13.43,17.33z"/>
<ellipse transform="matrix(0.5966 -0.8026 0.8026 0.5966 -6.7955 31.1112)" class="st14" cx="27.55" cy="22.31" rx="0.81" ry="0.95"/>
<path class="st15" d="M12.21,21.1c-0.19-0.05-0.32-0.12-0.41-0.2c-0.08-0.08-0.13-0.17-0.13-0.29c0-0.13,0.05-0.24,0.15-0.32
	c0.1-0.09,0.24-0.13,0.4-0.13c0.11,0,0.21,0.02,0.3,0.07c0.09,0.04,0.16,0.1,0.21,0.18c0.05,0.08,0.07,0.16,0.07,0.25H12.6
	c0-0.1-0.03-0.18-0.09-0.23c-0.06-0.06-0.15-0.09-0.27-0.09c-0.11,0-0.19,0.02-0.25,0.07c-0.06,0.05-0.09,0.11-0.09,0.2
	c0,0.07,0.03,0.12,0.08,0.17c0.06,0.05,0.15,0.09,0.29,0.13c0.14,0.04,0.24,0.08,0.32,0.13c0.08,0.05,0.13,0.1,0.17,0.16
	c0.04,0.06,0.06,0.13,0.06,0.22c0,0.13-0.05,0.24-0.16,0.32c-0.1,0.08-0.24,0.12-0.42,0.12c-0.11,0-0.22-0.02-0.32-0.06
	c-0.1-0.04-0.17-0.1-0.23-0.18c-0.05-0.08-0.08-0.16-0.08-0.26h0.22c0,0.1,0.04,0.18,0.11,0.24c0.07,0.06,0.17,0.09,0.29,0.09
	c0.11,0,0.2-0.02,0.26-0.07c0.06-0.05,0.09-0.11,0.09-0.19c0-0.08-0.03-0.14-0.08-0.19C12.46,21.19,12.36,21.15,12.21,21.1z"/>
<polygon class="st15" points="14.23,20.37 13.71,20.37 13.71,21.84 13.49,21.84 13.49,20.37 12.96,20.37 12.96,20.19 14.23,20.19 
	"/>
<path class="st15" d="M15.5,20.96c0-0.19-0.04-0.34-0.12-0.45c-0.08-0.1-0.19-0.16-0.33-0.16c-0.14,0-0.24,0.05-0.32,0.16
	c-0.08,0.1-0.12,0.25-0.12,0.43v0.12c0,0.19,0.04,0.34,0.12,0.45c0.08,0.11,0.19,0.16,0.33,0.16c0.14,0,0.25-0.05,0.33-0.15
	c0.08-0.1,0.12-0.25,0.12-0.44V20.96z M15.71,21.07c0,0.16-0.03,0.3-0.08,0.42c-0.05,0.12-0.13,0.21-0.23,0.27
	c-0.1,0.06-0.22,0.09-0.35,0.09c-0.13,0-0.24-0.03-0.34-0.09c-0.1-0.06-0.18-0.15-0.23-0.27c-0.05-0.12-0.08-0.25-0.08-0.41v-0.12
	c0-0.16,0.03-0.3,0.08-0.42c0.05-0.12,0.13-0.21,0.23-0.28c0.1-0.06,0.22-0.1,0.35-0.1c0.13,0,0.25,0.03,0.35,0.1
	c0.1,0.06,0.18,0.16,0.23,0.28c0.05,0.12,0.08,0.26,0.08,0.42V21.07z"/>
<path class="st15" d="M16.25,21.01h0.39c0.12,0,0.2-0.03,0.27-0.08C16.97,20.88,17,20.8,17,20.7c0-0.1-0.03-0.18-0.09-0.23
	c-0.06-0.06-0.15-0.09-0.25-0.09h-0.4V21.01z M16.25,21.19v0.64h-0.22v-1.64h0.61c0.18,0,0.32,0.05,0.42,0.14
	c0.1,0.09,0.15,0.21,0.15,0.36c0,0.16-0.05,0.28-0.15,0.37c-0.1,0.09-0.24,0.13-0.43,0.13H16.25z"/>
<polygon class="st16" points="19.97,12.03 19.48,12.81 19.83,12.91 19.12,13.7 19.24,12.99 18.86,12.87 19.24,11.95 "/>
<circle class="st17" cx="19.98" cy="11.88" r="0.45"/>
<circle class="st17" cx="20.07" cy="11.46" r="0.45"/>
<circle class="st17" cx="20.4" cy="11.12" r="0.45"/>
<circle class="st17" cx="20.94" cy="10.82" r="0.45"/>
<circle class="st17" cx="21.43" cy="10.71" r="0.45"/>
<circle class="st17" cx="22" cy="10.76" r="0.45"/>
<circle class="st17" cx="22.66" cy="10.99" r="0.45"/>
<circle class="st17" cx="23.11" cy="11.49" r="0.45"/>
<circle class="st17" cx="22.98" cy="11.96" r="0.45"/>
<circle class="st17" cx="22.53" cy="12.19" r="0.45"/>
<circle class="st17" cx="21.98" cy="12.35" r="0.45"/>
<circle class="st17" cx="21.49" cy="12.52" r="0.45"/>
<circle class="st17" cx="20.97" cy="12.62" r="0.45"/>
<circle class="st17" cx="20.5" cy="12.54" r="0.45"/>
<circle class="st17" cx="20.12" cy="12.37" r="0.45"/>
<circle class="st17" cx="21.91" cy="11.21" r="0.45"/>
<circle class="st17" cx="22.03" cy="11.21" r="0.45"/>
<circle class="st17" cx="22.51" cy="11.73" r="0.45"/>
<circle class="st17" cx="21.78" cy="11.82" r="0.45"/>
<circle class="st17" cx="21.08" cy="11.96" r="0.45"/>
<circle class="st17" cx="20.59" cy="11.88" r="0.45"/>
<circle class="st17" cx="21.13" cy="11.44" r="0.45"/>
<polygon class="st16" points="21.67,14.38 21.17,15.16 21.52,15.26 20.81,16.05 20.93,15.34 20.55,15.22 20.94,14.3 "/>
<polygon class="st16" points="21.69,9.39 21.19,10.17 21.54,10.27 20.83,11.06 20.95,10.35 20.57,10.23 20.96,9.31 "/>
<ellipse transform="matrix(7.236694e-03 -1 1 7.236694e-03 8.4385 32.2164)" class="st18" cx="20.44" cy="11.86" rx="0.47" ry="0.45"/>
<path class="st18" d="M21.02,11.44c0-0.26-0.2-0.47-0.45-0.47c-0.25,0-0.46,0.21-0.46,0.46c0,0.26,0.2,0.47,0.45,0.47
	C20.81,11.9,21.02,11.7,21.02,11.44z"/>
<ellipse transform="matrix(7.195978e-03 -1 1 7.195978e-03 9.648 31.9477)" class="st18" cx="20.91" cy="11.11" rx="0.47" ry="0.45"/>
<ellipse transform="matrix(7.312759e-03 -1 1 7.312759e-03 10.4705 32.2442)" class="st18" cx="21.48" cy="10.85" rx="0.47" ry="0.45"/>
<ellipse transform="matrix(7.272023e-03 -1 1 7.272023e-03 11.0464 32.6588)" class="st18" cx="21.97" cy="10.77" rx="0.47" ry="0.45"/>
<ellipse transform="matrix(7.195978e-03 -1 1 7.195978e-03 11.5157 33.3084)" class="st18" cx="22.53" cy="10.85" rx="0.47" ry="0.45"/>
<ellipse transform="matrix(7.190574e-03 -1 1 7.190574e-03 11.8758 34.2232)" class="st18" cx="23.17" cy="11.13" rx="0.47" ry="0.45"/>
<ellipse transform="matrix(7.196277e-03 -1 1 7.196277e-03 11.7372 35.175)" class="st18" cx="23.58" cy="11.68" rx="0.47" ry="0.45"/>
<ellipse transform="matrix(7.312759e-03 -1 1 7.312759e-03 11.1094 35.4917)" class="st18" cx="23.43" cy="12.15" rx="0.47" ry="0.45"/>
<ellipse transform="matrix(7.196277e-03 -1 1 7.196277e-03 10.4497 35.2278)" class="st18" cx="22.97" cy="12.35" rx="0.47" ry="0.45"/>
<ellipse transform="matrix(7.272023e-03 -1 1 7.272023e-03 9.7615 34.7954)" class="st18" cx="22.41" cy="12.48" rx="0.47" ry="0.45"/>
<ellipse transform="matrix(7.312759e-03 -1 1 7.312759e-03 9.135 34.4308)" class="st18" cx="21.91" cy="12.61" rx="0.47" ry="0.45"/>
<ellipse transform="matrix(7.196277e-03 -1 1 7.196277e-03 8.547 33.9638)" class="st18" cx="21.38" cy="12.68" rx="0.47" ry="0.45"/>
<ellipse transform="matrix(7.196277e-03 -1 1 7.196277e-03 8.2119 33.4937)" class="st18" cx="20.97" cy="12.61" rx="0.47" ry="0.45"/>
<ellipse transform="matrix(7.195978e-03 -1 1 7.195978e-03 8.0422 32.8361)" class="st18" cx="20.56" cy="12.37" rx="0.47" ry="0.45"/>
<ellipse transform="matrix(7.190574e-03 -1 1 7.190574e-03 10.9382 33.6415)" class="st18" cx="22.41" cy="11.31" rx="0.47" ry="0.45"/>
<ellipse transform="matrix(7.190574e-03 -1 1 7.190574e-03 11.0537 33.7595)" class="st18" cx="22.53" cy="11.31" rx="0.47" ry="0.45"/>
<ellipse transform="matrix(7.195978e-03 -1 1 7.195978e-03 10.9307 34.7618)" class="st18" cx="22.97" cy="11.88" rx="0.47" ry="0.45"/>
<ellipse transform="matrix(7.272023e-03 -1 1 7.272023e-03 10.1584 34.0756)" class="st18" cx="22.24" cy="11.92" rx="0.47" ry="0.45"/>
<ellipse transform="matrix(7.312759e-03 -1 1 7.312759e-03 9.3546 33.4606)" class="st18" cx="21.53" cy="12.02" rx="0.47" ry="0.45"/>
<path class="st18" d="M21.51,11.9c0-0.26-0.2-0.47-0.45-0.47c-0.25,0-0.46,0.21-0.46,0.46c0,0.26,0.2,0.47,0.45,0.47
	C21.3,12.36,21.51,12.16,21.51,11.9z"/>
<ellipse transform="matrix(7.236990e-03 -1 1 7.236990e-03 9.9709 33.0297)" class="st18" cx="21.62" cy="11.49" rx="0.47" ry="0.45"/>
<polygon class="st16" points="23.43,12.39 22.77,13.42 23.23,13.56 22.28,14.61 22.45,13.67 21.94,13.5 22.33,12.28 "/>
<path class="st19" d="M32.12,19.78c0-0.05-0.04-0.07,0-0.11c0.04-0.05-0.04-0.11,0-0.15c0.04-0.05-0.04-0.1,0-0.15
	c0.05-0.05,0.01-0.09,0.01-0.18l0.46,0.02l0.46,0.02c0,0.1-0.05,0.09,0,0.14c0.05,0.05-0.04,0.1,0,0.15c0.04,0.05-0.04,0.11,0,0.15
	c0.03,0.03-0.01,0.08-0.01,0.13c0,0.05-0.04,0.13-0.13,0.15l-0.33-0.01l-0.33-0.01C32.15,19.89,32.12,19.83,32.12,19.78z"/>
<path class="st20" d="M32.01,17.25c0.18-0.19,0.42-0.28,0.65-0.28c0.17,0.01,0.33,0.06,0.48,0.17c0.05,0.04,0.11,0.09,0.16,0.15
	c0.34,0.4,0.33,1.04-0.04,1.43c-0.12,0.12-0.19,0.34-0.19,0.5L32.6,19.2l-0.46-0.02c0.01-0.16-0.05-0.38-0.16-0.51
	c-0.06-0.08-0.11-0.16-0.15-0.25C31.65,18.04,31.71,17.56,32.01,17.25z"/>
<path class="st21" d="M32.02,17.79c0,0.07,0.01,0.14,0.05,0.19c0.04,0.05,0.13,0.05,0.16,0c0.03-0.04,0.02-0.1,0.03-0.15
	c0.03-0.1,0.45-0.46,0.16-0.51C32.21,17.29,32.03,17.59,32.02,17.79z"/>
<polygon class="st22" points="33.76,16.89 34.11,16.05 33.65,16.82 "/>
<polygon class="st22" points="34.12,17.73 34.95,17.67 34.12,17.59 "/>
<polygon class="st22" points="33.97,17.22 34.65,16.59 33.9,17.11 "/>
<polygon class="st22" points="31.19,17.57 30.44,17.16 31.12,17.69 "/>
<polygon class="st22" points="31.13,18.5 30.45,19.03 31.19,18.62 "/>
<polygon class="st22" points="31.1,17.95 30.21,17.93 31.09,18.09 "/>
</svg>
